<svg width="1283" height="228" viewBox="0 0 1283 228" fill="none" xmlns="http://www.w3.org/2000/svg">
<path fill-rule="evenodd" clip-rule="evenodd" d="M412.322 73.9116C410.74 72.3305 410.74 69.767 412.322 68.1858C413.903 66.6047 416.466 66.6047 418.047 68.1858L424.814 74.9526C425.68 75.8189 426.072 76.9799 425.989 78.1128C426.072 79.2456 425.68 80.4067 424.814 81.2729L418.047 88.0397C416.466 89.6208 413.903 89.6208 412.322 88.0397C410.74 86.4586 410.74 83.8951 412.322 82.3139L412.382 82.2539H358.049C355.813 82.2539 354 80.4413 354 78.2052C354 75.9692 355.813 74.1565 358.049 74.1565H412.567L412.322 73.9116Z" fill="url(#paint0_linear)" fill-opacity="0.8"/>
<path fill-rule="evenodd" clip-rule="evenodd" d="M907.322 73.9116C905.74 72.3305 905.74 69.767 907.322 68.1858C908.903 66.6047 911.466 66.6047 913.047 68.1858L919.814 74.9526C920.68 75.8189 921.072 76.9799 920.989 78.1128C921.072 79.2456 920.68 80.4067 919.814 81.2729L913.047 88.0397C911.466 89.6208 908.903 89.6208 907.322 88.0397C905.74 86.4586 905.74 83.8951 907.322 82.3139L907.382 82.2539H853.049C850.813 82.2539 849 80.4413 849 78.2052C849 75.9692 850.813 74.1565 853.049 74.1565H907.567L907.322 73.9116Z" fill="url(#paint1_linear)" fill-opacity="0.8"/>
<circle cx="105" cy="100" r="72" fill="#6C61FD" fill-opacity="0.1"/>
<circle cx="653" cy="72" r="72" fill="#57E3FB" fill-opacity="0.1"/>
<circle cx="1148" cy="89" r="72" fill="#57E3FB" fill-opacity="0.1"/>
<circle cx="224.5" cy="66.5" r="52.5" fill="#56EDFB" fill-opacity="0.1"/>
<circle cx="742.5" cy="124.5" r="52.5" fill="#687EFD" fill-opacity="0.05"/>
<circle cx="1102.5" cy="160.5" r="52.5" fill="#687EFD" fill-opacity="0.05"/>
<circle cx="177.5" cy="152.5" r="30.5" fill="#687EFD" fill-opacity="0.1"/>
<circle cx="592.5" cy="149.5" r="41.5" fill="#687EFD" fill-opacity="0.1"/>
<circle cx="1060.5" cy="47.5" r="41.5" fill="#687EFD" fill-opacity="0.05"/>
<path d="M120.2 67C120 67 119.83 66.94 119.69 66.82C119.57 66.68 119.51 66.51 119.51 66.31V46.69C119.51 46.49 119.57 46.33 119.69 46.21C119.83 46.07 120 46 120.2 46H121.79C121.99 46 122.15 46.07 122.27 46.21C122.41 46.33 122.48 46.49 122.48 46.69V66.31C122.48 66.51 122.41 66.68 122.27 66.82C122.15 66.94 121.99 67 121.79 67H120.2ZM132.123 67.3C130.043 67.3 128.473 66.62 127.413 65.26C126.353 63.9 125.793 62.18 125.733 60.1L125.703 59.2L125.733 58.3C125.793 56.24 126.353 54.53 127.413 53.17C128.473 51.79 130.043 51.1 132.123 51.1C134.183 51.1 135.803 51.83 136.983 53.29V46.39C136.983 46.19 137.043 46.03 137.163 45.91C137.303 45.77 137.473 45.7 137.673 45.7H139.113C139.313 45.7 139.473 45.77 139.593 45.91C139.733 46.03 139.803 46.19 139.803 46.39V66.31C139.803 66.51 139.733 66.68 139.593 66.82C139.473 66.94 139.313 67 139.113 67H137.763C137.563 67 137.393 66.94 137.253 66.82C137.133 66.68 137.073 66.51 137.073 66.31V65.05C135.913 66.55 134.263 67.3 132.123 67.3ZM132.753 64.87C134.133 64.87 135.163 64.42 135.843 63.52C136.543 62.6 136.923 61.51 136.983 60.25C137.003 60.03 137.013 59.65 137.013 59.11C137.013 58.55 137.003 58.16 136.983 57.94C136.943 56.76 136.563 55.73 135.843 54.85C135.123 53.97 134.093 53.53 132.753 53.53C131.333 53.53 130.293 53.97 129.633 54.85C128.993 55.73 128.643 56.89 128.583 58.33L128.553 59.2C128.553 62.98 129.953 64.87 132.753 64.87ZM149.605 67.3C147.545 67.3 145.895 66.67 144.655 65.41C143.435 64.13 142.765 62.39 142.645 60.19L142.615 59.17L142.645 58.18C142.785 56.02 143.465 54.3 144.685 53.02C145.925 51.74 147.555 51.1 149.575 51.1C151.795 51.1 153.515 51.81 154.735 53.23C155.955 54.63 156.565 56.53 156.565 58.93V59.44C156.565 59.64 156.495 59.81 156.355 59.95C156.235 60.07 156.075 60.13 155.875 60.13H145.495V60.4C145.555 61.7 145.945 62.81 146.665 63.73C147.405 64.63 148.375 65.08 149.575 65.08C150.495 65.08 151.245 64.9 151.825 64.54C152.425 64.16 152.865 63.77 153.145 63.37C153.325 63.13 153.455 62.99 153.535 62.95C153.635 62.89 153.805 62.86 154.045 62.86H155.515C155.695 62.86 155.845 62.91 155.965 63.01C156.085 63.11 156.145 63.25 156.145 63.43C156.145 63.87 155.865 64.4 155.305 65.02C154.765 65.64 153.995 66.18 152.995 66.64C152.015 67.08 150.885 67.3 149.605 67.3ZM153.715 58.06V57.97C153.715 56.59 153.335 55.47 152.575 54.61C151.835 53.73 150.835 53.29 149.575 53.29C148.315 53.29 147.315 53.73 146.575 54.61C145.855 55.47 145.495 56.59 145.495 57.97V58.06H153.715ZM159.942 67C159.742 67 159.572 66.94 159.432 66.82C159.312 66.68 159.252 66.51 159.252 66.31V52.09C159.252 51.89 159.312 51.73 159.432 51.61C159.572 51.47 159.742 51.4 159.942 51.4H161.352C161.552 51.4 161.712 51.47 161.832 51.61C161.972 51.73 162.042 51.89 162.042 52.09V53.41C162.622 52.67 163.302 52.1 164.082 51.7C164.882 51.3 165.872 51.1 167.052 51.1C168.972 51.1 170.462 51.72 171.522 52.96C172.602 54.18 173.142 55.81 173.142 57.85V66.31C173.142 66.51 173.072 66.68 172.932 66.82C172.812 66.94 172.652 67 172.452 67H170.952C170.752 67 170.582 66.94 170.442 66.82C170.322 66.68 170.262 66.51 170.262 66.31V58C170.262 56.58 169.912 55.48 169.212 54.7C168.532 53.92 167.542 53.53 166.242 53.53C164.982 53.53 163.982 53.93 163.242 54.73C162.502 55.51 162.132 56.6 162.132 58V66.31C162.132 66.51 162.062 66.68 161.922 66.82C161.802 66.94 161.642 67 161.442 67H159.942ZM182.43 67C179.27 67 177.69 65.24 177.69 61.72V53.8H175.35C175.15 53.8 174.98 53.74 174.84 53.62C174.72 53.48 174.66 53.31 174.66 53.11V52.09C174.66 51.89 174.72 51.73 174.84 51.61C174.98 51.47 175.15 51.4 175.35 51.4H177.69V46.39C177.69 46.19 177.75 46.03 177.87 45.91C178.01 45.77 178.18 45.7 178.38 45.7H179.79C179.99 45.7 180.15 45.77 180.27 45.91C180.41 46.03 180.48 46.19 180.48 46.39V51.4H184.2C184.4 51.4 184.56 51.47 184.68 51.61C184.82 51.73 184.89 51.89 184.89 52.09V53.11C184.89 53.31 184.82 53.48 184.68 53.62C184.56 53.74 184.4 53.8 184.2 53.8H180.48V61.51C180.48 62.51 180.65 63.27 180.99 63.79C181.33 64.29 181.89 64.54 182.67 64.54H184.5C184.7 64.54 184.86 64.61 184.98 64.75C185.12 64.87 185.19 65.03 185.19 65.23V66.31C185.19 66.51 185.12 66.68 184.98 66.82C184.86 66.94 184.7 67 184.5 67H182.43ZM187.609 48.49C187.409 48.49 187.239 48.43 187.099 48.31C186.979 48.17 186.919 48 186.919 47.8V46.18C186.919 45.98 186.979 45.81 187.099 45.67C187.239 45.53 187.409 45.46 187.609 45.46H189.499C189.699 45.46 189.869 45.53 190.009 45.67C190.149 45.81 190.219 45.98 190.219 46.18V47.8C190.219 48 190.149 48.17 190.009 48.31C189.869 48.43 189.699 48.49 189.499 48.49H187.609ZM187.849 67C187.649 67 187.479 66.94 187.339 66.82C187.219 66.68 187.159 66.51 187.159 66.31V52.09C187.159 51.89 187.219 51.73 187.339 51.61C187.479 51.47 187.649 51.4 187.849 51.4H189.289C189.489 51.4 189.649 51.47 189.769 51.61C189.909 51.73 189.979 51.89 189.979 52.09V66.31C189.979 66.51 189.909 66.68 189.769 66.82C189.649 66.94 189.489 67 189.289 67H187.849ZM195.774 67C195.574 67 195.404 66.94 195.264 66.82C195.144 66.68 195.084 66.51 195.084 66.31V53.8H192.534C192.334 53.8 192.164 53.74 192.024 53.62C191.904 53.48 191.844 53.31 191.844 53.11V52.09C191.844 51.89 191.904 51.73 192.024 51.61C192.164 51.47 192.334 51.4 192.534 51.4H195.084V49.9C195.084 46.5 196.804 44.8 200.244 44.8H202.044C202.244 44.8 202.404 44.87 202.524 45.01C202.664 45.13 202.734 45.29 202.734 45.49V46.51C202.734 46.71 202.664 46.88 202.524 47.02C202.404 47.14 202.244 47.2 202.044 47.2H200.304C199.404 47.2 198.774 47.44 198.414 47.92C198.054 48.38 197.874 49.09 197.874 50.05V51.4H201.744C201.944 51.4 202.104 51.47 202.224 51.61C202.364 51.73 202.434 51.89 202.434 52.09V53.11C202.434 53.31 202.364 53.48 202.224 53.62C202.104 53.74 201.944 53.8 201.744 53.8H197.874V66.31C197.874 66.51 197.804 66.68 197.664 66.82C197.544 66.94 197.384 67 197.184 67H195.774ZM206.897 72.7C206.737 72.7 206.597 72.64 206.477 72.52C206.357 72.4 206.297 72.26 206.297 72.1C206.297 71.96 206.347 71.78 206.447 71.56L208.757 66.07L203.027 52.54C202.927 52.28 202.877 52.11 202.877 52.03C202.877 51.85 202.937 51.7 203.057 51.58C203.177 51.46 203.327 51.4 203.507 51.4H204.977C205.297 51.4 205.537 51.57 205.697 51.91L210.257 62.83L214.937 51.91C215.097 51.57 215.347 51.4 215.687 51.4H217.097C217.277 51.4 217.427 51.46 217.547 51.58C217.667 51.7 217.727 51.84 217.727 52C217.727 52.06 217.677 52.24 217.577 52.54L209.057 72.19C208.897 72.53 208.647 72.7 208.307 72.7H206.897Z" fill="black"/>
<path d="M86.7414 117C86.4614 117 86.2514 116.902 86.1114 116.706C85.9994 116.594 85.9434 116.44 85.9434 116.244C85.9434 116.188 85.9574 116.118 85.9854 116.034L91.8234 88.608C91.8794 88.3 92.0054 88.062 92.2014 87.894C92.4254 87.698 92.6774 87.6 92.9574 87.6H103.331C106.131 87.6 108.315 88.174 109.883 89.322C111.451 90.47 112.235 92.15 112.235 94.362C112.235 95.034 112.151 95.776 111.983 96.588C111.339 99.556 110.023 101.796 108.035 103.308C106.047 104.792 103.443 105.534 100.223 105.534H92.4114L90.1854 116.034C90.1294 116.314 89.9894 116.552 89.7654 116.748C89.5414 116.916 89.2894 117 89.0094 117H86.7414ZM100.139 102.006C102.127 102.006 103.807 101.544 105.179 100.62C106.551 99.668 107.419 98.324 107.783 96.588C107.951 95.86 108.035 95.202 108.035 94.614C108.035 93.438 107.643 92.57 106.859 92.01C106.075 91.422 104.759 91.128 102.911 91.128H95.4354L93.1254 102.006H100.139ZM112.008 117C111.728 117 111.504 116.916 111.336 116.748C111.196 116.552 111.154 116.314 111.21 116.034L115.452 96.168C115.508 95.888 115.648 95.65 115.872 95.454C116.096 95.258 116.348 95.16 116.628 95.16H118.56C118.84 95.16 119.064 95.258 119.232 95.454C119.344 95.594 119.4 95.762 119.4 95.958C119.4 96.014 119.386 96.084 119.358 96.168L118.938 98.016C120.31 96.112 122.424 95.16 125.28 95.16H127.086C127.366 95.16 127.576 95.244 127.716 95.412C127.8 95.552 127.842 95.706 127.842 95.874C127.842 95.958 127.828 96.042 127.8 96.126L127.464 97.848C127.436 98.128 127.31 98.352 127.086 98.52C126.862 98.688 126.596 98.772 126.288 98.772H123.81C122.298 98.772 121.01 99.22 119.946 100.116C118.882 100.984 118.182 102.174 117.846 103.686L115.242 116.034C115.186 116.314 115.046 116.552 114.822 116.748C114.598 116.916 114.346 117 114.066 117H112.008ZM134.562 117.42C131.93 117.42 129.886 116.734 128.43 115.362C127.002 113.99 126.288 112.17 126.288 109.902C126.288 109.202 126.344 108.53 126.456 107.886C126.54 107.326 126.652 106.696 126.792 105.996C126.96 105.296 127.114 104.722 127.254 104.274C127.954 101.362 129.284 99.052 131.244 97.344C133.204 95.608 135.724 94.74 138.804 94.74C141.464 94.74 143.508 95.426 144.936 96.798C146.392 98.17 147.12 99.99 147.12 102.258C147.12 102.958 147.064 103.63 146.952 104.274C146.784 105.226 146.532 106.43 146.196 107.886C145.44 110.798 144.082 113.122 142.122 114.858C140.19 116.566 137.67 117.42 134.562 117.42ZM134.73 114.186C136.522 114.186 138.09 113.626 139.434 112.506C140.778 111.358 141.702 109.748 142.206 107.676C142.458 106.668 142.696 105.604 142.92 104.484C143.032 103.84 143.088 103.196 143.088 102.552C143.088 101.068 142.71 99.934 141.954 99.15C141.198 98.366 140.092 97.974 138.636 97.974C136.844 97.974 135.276 98.548 133.932 99.696C132.616 100.816 131.706 102.412 131.202 104.484C130.95 105.352 130.726 106.416 130.53 107.676C130.39 108.516 130.32 109.202 130.32 109.734C130.32 111.19 130.684 112.296 131.412 113.052C132.168 113.808 133.274 114.186 134.73 114.186ZM159.101 117.42C157.505 117.42 156.161 117.14 155.069 116.58C154.005 115.992 153.221 115.222 152.717 114.27L152.339 116.034C152.283 116.314 152.143 116.552 151.919 116.748C151.695 116.916 151.443 117 151.163 117H149.231C148.951 117 148.741 116.902 148.601 116.706C148.489 116.594 148.433 116.44 148.433 116.244C148.433 116.188 148.447 116.118 148.475 116.034L154.397 88.146C154.453 87.866 154.593 87.642 154.817 87.474C155.041 87.278 155.293 87.18 155.573 87.18H157.631C157.911 87.18 158.121 87.264 158.261 87.432C158.345 87.572 158.387 87.726 158.387 87.894C158.387 87.978 158.373 88.062 158.345 88.146L156.329 97.806C157.309 96.826 158.345 96.07 159.437 95.538C160.529 95.006 161.831 94.74 163.343 94.74C165.863 94.74 167.725 95.454 168.929 96.882C170.161 98.282 170.777 100.116 170.777 102.384C170.777 103.224 170.721 103.98 170.609 104.652C170.497 105.38 170.287 106.332 169.979 107.508C169.251 110.42 167.991 112.8 166.199 114.648C164.407 116.496 162.041 117.42 159.101 117.42ZM158.681 114.018C160.613 114.018 162.167 113.402 163.343 112.17C164.547 110.91 165.443 109.286 166.031 107.298C166.283 106.43 166.451 105.618 166.535 104.862C166.675 103.966 166.745 103.196 166.745 102.552C166.745 101.18 166.423 100.102 165.779 99.318C165.135 98.534 164.029 98.142 162.461 98.142C161.173 98.142 159.997 98.436 158.933 99.024C157.897 99.612 157.029 100.382 156.329 101.334C155.629 102.286 155.153 103.28 154.901 104.316C154.593 105.632 154.383 106.71 154.271 107.55C154.159 108.082 154.103 108.67 154.103 109.314C154.103 110.686 154.467 111.82 155.195 112.716C155.923 113.584 157.085 114.018 158.681 114.018ZM172.991 117C172.711 117 172.487 116.916 172.319 116.748C172.179 116.552 172.137 116.314 172.193 116.034L178.157 88.146C178.213 87.866 178.339 87.642 178.535 87.474C178.759 87.278 179.011 87.18 179.291 87.18H181.307C181.587 87.18 181.797 87.264 181.937 87.432C182.049 87.572 182.105 87.74 182.105 87.936C182.105 87.992 182.091 88.062 182.063 88.146L176.141 116.034C176.085 116.314 175.945 116.552 175.721 116.748C175.525 116.916 175.287 117 175.007 117H172.991ZM190.217 117.42C187.697 117.42 185.765 116.748 184.421 115.404C183.077 114.032 182.405 112.128 182.405 109.692C182.405 108.88 182.461 108.138 182.573 107.466C182.769 106.346 182.979 105.408 183.203 104.652C184.043 101.628 185.499 99.22 187.571 97.428C189.671 95.636 192.149 94.74 195.005 94.74C197.553 94.74 199.499 95.426 200.843 96.798C202.187 98.142 202.859 100.018 202.859 102.426C202.859 103.434 202.733 104.526 202.481 105.702L202.313 106.416C202.257 106.696 202.117 106.934 201.893 107.13C201.669 107.298 201.403 107.382 201.095 107.382H186.605C186.605 107.522 186.577 107.648 186.521 107.76C186.437 108.264 186.395 108.768 186.395 109.272C186.395 110.756 186.773 111.974 187.529 112.926C188.285 113.85 189.391 114.312 190.847 114.312C192.135 114.312 193.241 114.06 194.165 113.556C195.117 113.024 195.831 112.478 196.307 111.918C196.643 111.582 196.881 111.386 197.021 111.33C197.189 111.246 197.441 111.204 197.777 111.204H199.793C200.045 111.204 200.241 111.288 200.381 111.456C200.493 111.568 200.549 111.708 200.549 111.876C200.549 111.932 200.535 112.002 200.507 112.086C200.339 112.702 199.779 113.444 198.827 114.312C197.875 115.152 196.643 115.88 195.131 116.496C193.619 117.112 191.981 117.42 190.217 117.42ZM198.701 104.484L198.743 104.358C198.883 103.658 198.953 103.042 198.953 102.51C198.953 101.082 198.547 99.948 197.735 99.108C196.951 98.24 195.831 97.806 194.375 97.806C192.611 97.806 191.085 98.422 189.797 99.654C188.537 100.858 187.697 102.426 187.277 104.358L187.235 104.484H198.701ZM204.145 117C203.865 117 203.641 116.916 203.473 116.748C203.333 116.552 203.291 116.314 203.347 116.034L207.589 96.126C207.645 95.846 207.785 95.622 208.009 95.454C208.233 95.258 208.485 95.16 208.765 95.16H210.655C210.935 95.16 211.145 95.244 211.285 95.412C211.397 95.552 211.453 95.72 211.453 95.916C211.453 95.972 211.439 96.042 211.411 96.126L211.117 97.596C212.013 96.644 212.937 95.93 213.889 95.454C214.841 94.978 215.989 94.74 217.333 94.74C218.929 94.74 220.273 95.076 221.365 95.748C222.457 96.42 223.185 97.372 223.549 98.604C225.565 96.028 228.043 94.74 230.983 94.74C232.971 94.74 234.567 95.3 235.771 96.42C236.975 97.54 237.577 99.164 237.577 101.292C237.577 102.16 237.479 103.028 237.283 103.896L234.679 116.034C234.623 116.314 234.483 116.552 234.259 116.748C234.063 116.916 233.825 117 233.545 117H231.571C231.291 117 231.081 116.902 230.941 116.706C230.829 116.594 230.773 116.44 230.773 116.244C230.773 116.188 230.787 116.118 230.815 116.034L233.293 104.274C233.489 103.378 233.587 102.552 233.587 101.796C233.587 99.36 232.397 98.142 230.017 98.142C228.645 98.142 227.329 98.632 226.069 99.612C224.809 100.592 223.955 102.146 223.507 104.274L220.987 116.034C220.931 116.314 220.791 116.552 220.567 116.748C220.371 116.916 220.133 117 219.853 117H217.879C217.599 117 217.375 116.916 217.207 116.748C217.067 116.552 217.025 116.314 217.081 116.034L219.601 104.274C219.797 103.406 219.895 102.608 219.895 101.88C219.895 99.388 218.705 98.142 216.325 98.142C214.953 98.142 213.637 98.632 212.377 99.612C211.117 100.564 210.263 102.104 209.815 104.232L207.295 116.034C207.239 116.314 207.099 116.552 206.875 116.748C206.679 116.916 206.441 117 206.161 117H204.145ZM247.306 117.42C245.458 117.42 243.946 117.14 242.77 116.58C241.622 116.02 240.782 115.362 240.25 114.606C239.746 113.85 239.494 113.178 239.494 112.59C239.494 112.254 239.62 111.974 239.872 111.75C240.124 111.526 240.376 111.414 240.628 111.414H242.518C242.686 111.414 242.812 111.442 242.896 111.498C242.98 111.554 243.078 111.666 243.19 111.834C243.75 112.646 244.366 113.276 245.038 113.724C245.71 114.144 246.704 114.354 248.02 114.354C249.476 114.354 250.708 114.074 251.716 113.514C252.752 112.954 253.382 112.156 253.606 111.12C253.662 110.84 253.69 110.63 253.69 110.49C253.69 109.734 253.27 109.146 252.43 108.726C251.618 108.278 250.092 107.788 247.852 107.256C245.892 106.78 244.478 106.15 243.61 105.366C242.742 104.582 242.308 103.602 242.308 102.426C242.308 102.118 242.364 101.656 242.476 101.04C242.7 99.976 243.232 98.968 244.072 98.016C244.912 97.036 246.004 96.252 247.348 95.664C248.692 95.048 250.218 94.74 251.926 94.74C253.578 94.74 254.95 95.006 256.042 95.538C257.162 96.042 257.974 96.658 258.478 97.386C259.01 98.086 259.276 98.73 259.276 99.318C259.276 99.682 259.15 99.99 258.898 100.242C258.674 100.466 258.408 100.578 258.1 100.578H256.378C256.014 100.578 255.762 100.438 255.622 100.158C255.258 99.626 254.95 99.22 254.698 98.94C254.446 98.632 254.04 98.366 253.48 98.142C252.92 97.918 252.192 97.806 251.296 97.806C249.952 97.806 248.846 98.1 247.978 98.688C247.138 99.248 246.62 99.99 246.424 100.914C246.368 101.194 246.34 101.404 246.34 101.544C246.34 102.216 246.718 102.776 247.474 103.224C248.258 103.672 249.672 104.12 251.716 104.568C253.872 105.072 255.426 105.744 256.378 106.584C257.358 107.396 257.848 108.418 257.848 109.65C257.848 109.93 257.792 110.378 257.68 110.994C257.428 112.198 256.84 113.29 255.916 114.27C255.02 115.25 253.83 116.02 252.346 116.58C250.862 117.14 249.182 117.42 247.306 117.42Z" fill="url(#paint2_linear)"/>
<path d="M594.784 67.3C592.204 67.3 590.204 66.61 588.784 65.23C587.384 63.83 586.684 61.72 586.684 58.9V46.72C586.684 46.5 586.744 46.33 586.864 46.21C587.004 46.07 587.174 46 587.374 46H588.904C589.124 46 589.294 46.07 589.414 46.21C589.554 46.33 589.624 46.5 589.624 46.72V58.96C589.624 60.88 590.074 62.32 590.974 63.28C591.874 64.24 593.144 64.72 594.784 64.72C596.424 64.72 597.694 64.24 598.594 63.28C599.494 62.32 599.944 60.88 599.944 58.96V46.72C599.944 46.5 600.004 46.33 600.124 46.21C600.264 46.07 600.434 46 600.634 46H602.194C602.394 46 602.554 46.07 602.674 46.21C602.814 46.35 602.884 46.52 602.884 46.72V58.9C602.884 61.72 602.174 63.83 600.754 65.23C599.354 66.61 597.364 67.3 594.784 67.3ZM607.3 67C607.1 67 606.93 66.94 606.79 66.82C606.67 66.68 606.61 66.51 606.61 66.31V52.09C606.61 51.89 606.67 51.73 606.79 51.61C606.93 51.47 607.1 51.4 607.3 51.4H608.71C608.91 51.4 609.07 51.47 609.19 51.61C609.33 51.73 609.4 51.89 609.4 52.09V53.41C609.98 52.67 610.66 52.1 611.44 51.7C612.24 51.3 613.23 51.1 614.41 51.1C616.33 51.1 617.82 51.72 618.88 52.96C619.96 54.18 620.5 55.81 620.5 57.85V66.31C620.5 66.51 620.43 66.68 620.29 66.82C620.17 66.94 620.01 67 619.81 67H618.31C618.11 67 617.94 66.94 617.8 66.82C617.68 66.68 617.62 66.51 617.62 66.31V58C617.62 56.58 617.27 55.48 616.57 54.7C615.89 53.92 614.9 53.53 613.6 53.53C612.34 53.53 611.34 53.93 610.6 54.73C609.86 55.51 609.49 56.6 609.49 58V66.31C609.49 66.51 609.42 66.68 609.28 66.82C609.16 66.94 609 67 608.8 67H607.3ZM624.623 67C624.423 67 624.253 66.94 624.113 66.82C623.993 66.68 623.933 66.51 623.933 66.31V46.39C623.933 46.19 623.993 46.03 624.113 45.91C624.253 45.77 624.423 45.7 624.623 45.7H626.033C626.233 45.7 626.393 45.77 626.513 45.91C626.653 46.03 626.723 46.19 626.723 46.39V66.31C626.723 66.51 626.653 66.68 626.513 66.82C626.393 66.94 626.233 67 626.033 67H624.623ZM636.538 67.3C634.478 67.3 632.828 66.67 631.588 65.41C630.368 64.13 629.698 62.39 629.578 60.19L629.548 59.17L629.578 58.18C629.718 56.02 630.398 54.3 631.618 53.02C632.858 51.74 634.488 51.1 636.508 51.1C638.728 51.1 640.448 51.81 641.668 53.23C642.888 54.63 643.498 56.53 643.498 58.93V59.44C643.498 59.64 643.428 59.81 643.288 59.95C643.168 60.07 643.008 60.13 642.808 60.13H632.428V60.4C632.488 61.7 632.878 62.81 633.598 63.73C634.338 64.63 635.308 65.08 636.508 65.08C637.428 65.08 638.178 64.9 638.758 64.54C639.358 64.16 639.798 63.77 640.078 63.37C640.258 63.13 640.388 62.99 640.468 62.95C640.568 62.89 640.738 62.86 640.978 62.86H642.448C642.628 62.86 642.778 62.91 642.898 63.01C643.018 63.11 643.078 63.25 643.078 63.43C643.078 63.87 642.798 64.4 642.238 65.02C641.698 65.64 640.928 66.18 639.928 66.64C638.948 67.08 637.818 67.3 636.538 67.3ZM640.648 58.06V57.97C640.648 56.59 640.268 55.47 639.508 54.61C638.768 53.73 637.768 53.29 636.508 53.29C635.248 53.29 634.248 53.73 633.508 54.61C632.788 55.47 632.428 56.59 632.428 57.97V58.06H640.648ZM650.535 67.3C649.555 67.3 648.645 67.1 647.805 66.7C646.965 66.3 646.295 65.76 645.795 65.08C645.315 64.38 645.075 63.61 645.075 62.77C645.075 61.45 645.615 60.37 646.695 59.53C647.795 58.67 649.275 58.11 651.135 57.85L655.605 57.22V56.35C655.605 54.31 654.435 53.29 652.095 53.29C651.215 53.29 650.495 53.48 649.935 53.86C649.375 54.22 648.955 54.65 648.675 55.15C648.615 55.33 648.535 55.46 648.435 55.54C648.355 55.62 648.235 55.66 648.075 55.66H646.785C646.605 55.66 646.445 55.6 646.305 55.48C646.185 55.34 646.125 55.18 646.125 55C646.145 54.52 646.365 53.98 646.785 53.38C647.225 52.76 647.895 52.23 648.795 51.79C649.695 51.33 650.805 51.1 652.125 51.1C654.365 51.1 655.975 51.63 656.955 52.69C657.935 53.73 658.425 55.03 658.425 56.59V66.31C658.425 66.51 658.355 66.68 658.215 66.82C658.095 66.94 657.935 67 657.735 67H656.355C656.155 67 655.985 66.94 655.845 66.82C655.725 66.68 655.665 66.51 655.665 66.31V65.02C655.225 65.66 654.585 66.2 653.745 66.64C652.905 67.08 651.835 67.3 650.535 67.3ZM651.165 65.05C652.465 65.05 653.525 64.63 654.345 63.79C655.185 62.93 655.605 61.7 655.605 60.1V59.26L652.125 59.77C650.705 59.97 649.635 60.31 648.915 60.79C648.195 61.25 647.835 61.84 647.835 62.56C647.835 63.36 648.165 63.98 648.825 64.42C649.485 64.84 650.265 65.05 651.165 65.05ZM667.238 67.3C665.838 67.3 664.658 67.08 663.698 66.64C662.758 66.18 662.048 65.66 661.568 65.08C661.108 64.5 660.878 64.02 660.878 63.64C660.878 63.44 660.948 63.29 661.088 63.19C661.248 63.07 661.408 63.01 661.568 63.01H662.918C663.118 63.01 663.298 63.11 663.458 63.31C663.938 63.87 664.458 64.31 665.018 64.63C665.578 64.95 666.328 65.11 667.268 65.11C668.308 65.11 669.148 64.91 669.788 64.51C670.448 64.09 670.778 63.52 670.778 62.8C670.778 62.32 670.638 61.93 670.358 61.63C670.098 61.31 669.638 61.04 668.978 60.82C668.338 60.58 667.378 60.32 666.098 60.04C664.358 59.66 663.118 59.11 662.378 58.39C661.658 57.67 661.298 56.74 661.298 55.6C661.298 54.84 661.518 54.12 661.958 53.44C662.418 52.74 663.078 52.18 663.938 51.76C664.818 51.32 665.868 51.1 667.088 51.1C668.368 51.1 669.458 51.31 670.358 51.73C671.258 52.15 671.928 52.65 672.368 53.23C672.828 53.79 673.058 54.26 673.058 54.64C673.058 54.82 672.988 54.97 672.848 55.09C672.728 55.21 672.578 55.27 672.398 55.27H671.138C670.898 55.27 670.698 55.17 670.538 54.97C670.218 54.59 669.938 54.3 669.698 54.1C669.478 53.88 669.148 53.69 668.708 53.53C668.288 53.37 667.748 53.29 667.088 53.29C666.128 53.29 665.388 53.5 664.868 53.92C664.348 54.32 664.088 54.85 664.088 55.51C664.088 55.93 664.198 56.29 664.418 56.59C664.638 56.87 665.058 57.13 665.678 57.37C666.318 57.61 667.238 57.86 668.438 58.12C670.338 58.52 671.678 59.1 672.458 59.86C673.258 60.6 673.658 61.55 673.658 62.71C673.658 63.57 673.408 64.35 672.908 65.05C672.408 65.75 671.668 66.3 670.688 66.7C669.728 67.1 668.578 67.3 667.238 67.3ZM676.951 67C676.751 67 676.581 66.94 676.441 66.82C676.321 66.68 676.261 66.51 676.261 66.31V46.39C676.261 46.19 676.321 46.03 676.441 45.91C676.581 45.77 676.751 45.7 676.951 45.7H678.451C678.651 45.7 678.811 45.77 678.931 45.91C679.071 46.03 679.141 46.19 679.141 46.39V53.38C679.721 52.64 680.401 52.08 681.181 51.7C681.961 51.3 682.931 51.1 684.091 51.1C686.011 51.1 687.501 51.72 688.561 52.96C689.641 54.18 690.181 55.81 690.181 57.85V66.31C690.181 66.51 690.111 66.68 689.971 66.82C689.851 66.94 689.691 67 689.491 67H687.991C687.791 67 687.621 66.94 687.481 66.82C687.361 66.68 687.301 66.51 687.301 66.31V58C687.301 56.58 686.951 55.48 686.251 54.7C685.571 53.92 684.581 53.53 683.281 53.53C682.021 53.53 681.011 53.93 680.251 54.73C679.511 55.51 679.141 56.6 679.141 58V66.31C679.141 66.51 679.071 66.68 678.931 66.82C678.811 66.94 678.651 67 678.451 67H676.951Z" fill="black"/>
<path d="M530.166 117C529.886 117 529.676 116.902 529.536 116.706C529.424 116.594 529.368 116.44 529.368 116.244C529.368 116.188 529.382 116.118 529.41 116.034L535.248 88.608C535.304 88.3 535.43 88.062 535.626 87.894C535.85 87.698 536.102 87.6 536.382 87.6H553.56C553.84 87.6 554.05 87.684 554.19 87.852C554.302 87.992 554.358 88.16 554.358 88.356C554.358 88.44 554.344 88.524 554.316 88.608L553.98 90.288C553.924 90.568 553.784 90.806 553.56 91.002C553.364 91.17 553.112 91.254 552.804 91.254H538.776L536.676 101.04H549.864C550.172 101.04 550.396 101.124 550.536 101.292C550.62 101.432 550.662 101.586 550.662 101.754C550.662 101.838 550.648 101.936 550.62 102.048L550.284 103.728C550.228 104.008 550.088 104.246 549.864 104.442C549.64 104.61 549.388 104.694 549.108 104.694H535.92L533.484 116.034C533.428 116.314 533.288 116.552 533.064 116.748C532.84 116.916 532.588 117 532.308 117H530.166ZM552.438 117C552.158 117 551.934 116.916 551.766 116.748C551.626 116.552 551.584 116.314 551.64 116.034L555.882 96.168C555.938 95.888 556.078 95.65 556.302 95.454C556.526 95.258 556.778 95.16 557.058 95.16H558.99C559.27 95.16 559.494 95.258 559.662 95.454C559.774 95.594 559.83 95.762 559.83 95.958C559.83 96.014 559.816 96.084 559.788 96.168L559.368 98.016C560.74 96.112 562.854 95.16 565.71 95.16H567.516C567.796 95.16 568.006 95.244 568.146 95.412C568.23 95.552 568.272 95.706 568.272 95.874C568.272 95.958 568.258 96.042 568.23 96.126L567.894 97.848C567.866 98.128 567.74 98.352 567.516 98.52C567.292 98.688 567.026 98.772 566.718 98.772H564.24C562.728 98.772 561.44 99.22 560.376 100.116C559.312 100.984 558.612 102.174 558.276 103.686L555.672 116.034C555.616 116.314 555.476 116.552 555.252 116.748C555.028 116.916 554.776 117 554.496 117H552.438ZM574.733 117.42C572.353 117.42 570.561 116.846 569.357 115.698C568.181 114.522 567.593 112.898 567.593 110.826C567.593 109.986 567.705 109.034 567.929 107.97L570.449 96.126C570.505 95.846 570.645 95.622 570.869 95.454C571.093 95.258 571.345 95.16 571.625 95.16H573.725C574.005 95.16 574.215 95.244 574.355 95.412C574.439 95.552 574.481 95.706 574.481 95.874C574.481 95.958 574.467 96.042 574.439 96.126L572.003 107.76C571.779 108.88 571.667 109.804 571.667 110.532C571.667 111.708 571.975 112.59 572.591 113.178C573.235 113.738 574.285 114.018 575.741 114.018C577.589 114.018 579.185 113.472 580.529 112.38C581.901 111.26 582.797 109.72 583.217 107.76L585.695 96.126C585.751 95.846 585.891 95.622 586.115 95.454C586.339 95.258 586.591 95.16 586.871 95.16H588.929C589.209 95.16 589.419 95.244 589.559 95.412C589.671 95.552 589.727 95.72 589.727 95.916C589.727 95.972 589.713 96.042 589.685 96.126L585.443 116.034C585.387 116.314 585.247 116.552 585.023 116.748C584.827 116.916 584.589 117 584.309 117H582.377C582.097 117 581.873 116.916 581.705 116.748C581.565 116.552 581.523 116.314 581.579 116.034L581.957 114.186C580.865 115.306 579.815 116.132 578.807 116.664C577.827 117.168 576.469 117.42 574.733 117.42ZM598.277 117.42C596.429 117.42 594.917 117.14 593.741 116.58C592.593 116.02 591.753 115.362 591.221 114.606C590.717 113.85 590.465 113.178 590.465 112.59C590.465 112.254 590.591 111.974 590.843 111.75C591.095 111.526 591.347 111.414 591.599 111.414H593.489C593.657 111.414 593.783 111.442 593.867 111.498C593.951 111.554 594.049 111.666 594.161 111.834C594.721 112.646 595.337 113.276 596.009 113.724C596.681 114.144 597.675 114.354 598.991 114.354C600.447 114.354 601.679 114.074 602.687 113.514C603.723 112.954 604.353 112.156 604.577 111.12C604.633 110.84 604.661 110.63 604.661 110.49C604.661 109.734 604.241 109.146 603.401 108.726C602.589 108.278 601.063 107.788 598.823 107.256C596.863 106.78 595.449 106.15 594.581 105.366C593.713 104.582 593.279 103.602 593.279 102.426C593.279 102.118 593.335 101.656 593.447 101.04C593.671 99.976 594.203 98.968 595.043 98.016C595.883 97.036 596.975 96.252 598.319 95.664C599.663 95.048 601.189 94.74 602.897 94.74C604.549 94.74 605.921 95.006 607.013 95.538C608.133 96.042 608.945 96.658 609.449 97.386C609.981 98.086 610.247 98.73 610.247 99.318C610.247 99.682 610.121 99.99 609.869 100.242C609.645 100.466 609.379 100.578 609.071 100.578H607.349C606.985 100.578 606.733 100.438 606.593 100.158C606.229 99.626 605.921 99.22 605.669 98.94C605.417 98.632 605.011 98.366 604.451 98.142C603.891 97.918 603.163 97.806 602.267 97.806C600.923 97.806 599.817 98.1 598.949 98.688C598.109 99.248 597.591 99.99 597.395 100.914C597.339 101.194 597.311 101.404 597.311 101.544C597.311 102.216 597.689 102.776 598.445 103.224C599.229 103.672 600.643 104.12 602.687 104.568C604.843 105.072 606.397 105.744 607.349 106.584C608.329 107.396 608.819 108.418 608.819 109.65C608.819 109.93 608.763 110.378 608.651 110.994C608.399 112.198 607.811 113.29 606.887 114.27C605.991 115.25 604.801 116.02 603.317 116.58C601.833 117.14 600.153 117.42 598.277 117.42ZM619.016 117C616.944 117 615.46 116.608 614.564 115.824C613.668 115.04 613.22 113.892 613.22 112.38C613.22 111.596 613.332 110.672 613.556 109.608L615.908 98.52H612.632C612.352 98.52 612.142 98.422 612.002 98.226C611.89 98.114 611.834 97.96 611.834 97.764C611.834 97.708 611.848 97.638 611.876 97.554L612.17 96.126C612.226 95.846 612.366 95.622 612.59 95.454C612.814 95.258 613.066 95.16 613.346 95.16H616.622L618.134 88.146C618.19 87.866 618.316 87.642 618.512 87.474C618.736 87.278 618.988 87.18 619.268 87.18H621.242C621.522 87.18 621.732 87.264 621.872 87.432C621.984 87.572 622.04 87.74 622.04 87.936C622.04 87.992 622.026 88.062 621.998 88.146L620.528 95.16H625.736C626.016 95.16 626.226 95.244 626.366 95.412C626.478 95.552 626.534 95.72 626.534 95.916C626.534 95.972 626.52 96.042 626.492 96.126L626.198 97.554C626.142 97.834 626.002 98.072 625.778 98.268C625.554 98.436 625.302 98.52 625.022 98.52H619.814L617.504 109.314C617.252 110.462 617.126 111.26 617.126 111.708C617.126 112.324 617.294 112.786 617.63 113.094C617.994 113.402 618.61 113.556 619.478 113.556H622.25C622.53 113.556 622.74 113.64 622.88 113.808C622.964 113.948 623.006 114.102 623.006 114.27C623.006 114.354 622.992 114.438 622.964 114.522L622.67 116.034C622.614 116.314 622.474 116.552 622.25 116.748C622.054 116.916 621.816 117 621.536 117H619.016ZM626.189 117C625.909 117 625.685 116.916 625.517 116.748C625.377 116.552 625.335 116.314 625.391 116.034L629.633 96.168C629.689 95.888 629.829 95.65 630.053 95.454C630.277 95.258 630.529 95.16 630.809 95.16H632.741C633.021 95.16 633.245 95.258 633.413 95.454C633.525 95.594 633.581 95.762 633.581 95.958C633.581 96.014 633.567 96.084 633.539 96.168L633.119 98.016C634.491 96.112 636.605 95.16 639.461 95.16H641.267C641.547 95.16 641.757 95.244 641.897 95.412C641.981 95.552 642.023 95.706 642.023 95.874C642.023 95.958 642.009 96.042 641.981 96.126L641.645 97.848C641.617 98.128 641.491 98.352 641.267 98.52C641.043 98.688 640.777 98.772 640.469 98.772H637.991C636.479 98.772 635.191 99.22 634.127 100.116C633.063 100.984 632.363 102.174 632.027 103.686L629.423 116.034C629.367 116.314 629.227 116.552 629.003 116.748C628.779 116.916 628.527 117 628.247 117H626.189ZM647.735 117.42C645.271 117.42 643.451 116.72 642.275 115.32C641.099 113.92 640.511 112.072 640.511 109.776C640.511 109.076 640.581 108.264 640.721 107.34C640.805 106.948 640.987 106.108 641.267 104.82C642.051 101.824 643.297 99.402 645.005 97.554C646.741 95.678 649.107 94.74 652.103 94.74C653.783 94.74 655.085 95.02 656.009 95.58C656.961 96.112 657.717 96.868 658.277 97.848L658.613 96.126C658.669 95.846 658.809 95.622 659.033 95.454C659.257 95.258 659.509 95.16 659.789 95.16H661.679C661.959 95.16 662.183 95.244 662.351 95.412C662.463 95.552 662.519 95.72 662.519 95.916C662.519 95.972 662.505 96.042 662.477 96.126L658.235 116.034C658.179 116.314 658.039 116.552 657.815 116.748C657.619 116.916 657.381 117 657.101 117H655.169C654.889 117 654.679 116.902 654.539 116.706C654.427 116.594 654.371 116.44 654.371 116.244C654.371 116.188 654.385 116.118 654.413 116.034L654.791 114.27C653.755 115.334 652.719 116.132 651.683 116.664C650.675 117.168 649.359 117.42 647.735 117.42ZM648.617 114.018C650.577 114.018 652.201 113.374 653.489 112.086C654.805 110.798 655.673 109.286 656.093 107.55C656.317 106.542 656.541 105.464 656.765 104.316C656.877 103.84 656.933 103.294 656.933 102.678C656.933 101.362 656.569 100.284 655.841 99.444C655.113 98.576 653.979 98.142 652.439 98.142C650.591 98.142 649.079 98.772 647.903 100.032C646.755 101.264 645.887 102.874 645.299 104.862C645.103 105.478 644.935 106.29 644.795 107.298C644.655 108.194 644.585 108.964 644.585 109.608C644.585 110.98 644.893 112.058 645.509 112.842C646.125 113.626 647.161 114.018 648.617 114.018ZM671.714 117C669.642 117 668.158 116.608 667.262 115.824C666.366 115.04 665.918 113.892 665.918 112.38C665.918 111.596 666.03 110.672 666.254 109.608L668.606 98.52H665.33C665.05 98.52 664.84 98.422 664.7 98.226C664.588 98.114 664.532 97.96 664.532 97.764C664.532 97.708 664.546 97.638 664.574 97.554L664.868 96.126C664.924 95.846 665.064 95.622 665.288 95.454C665.512 95.258 665.764 95.16 666.044 95.16H669.32L670.832 88.146C670.888 87.866 671.014 87.642 671.21 87.474C671.434 87.278 671.686 87.18 671.966 87.18H673.94C674.22 87.18 674.43 87.264 674.57 87.432C674.682 87.572 674.738 87.74 674.738 87.936C674.738 87.992 674.724 88.062 674.696 88.146L673.226 95.16H678.434C678.714 95.16 678.924 95.244 679.064 95.412C679.176 95.552 679.232 95.72 679.232 95.916C679.232 95.972 679.218 96.042 679.19 96.126L678.896 97.554C678.84 97.834 678.7 98.072 678.476 98.268C678.252 98.436 678 98.52 677.72 98.52H672.512L670.202 109.314C669.95 110.462 669.824 111.26 669.824 111.708C669.824 112.324 669.992 112.786 670.328 113.094C670.692 113.402 671.308 113.556 672.176 113.556H674.948C675.228 113.556 675.438 113.64 675.578 113.808C675.662 113.948 675.704 114.102 675.704 114.27C675.704 114.354 675.69 114.438 675.662 114.522L675.368 116.034C675.312 116.314 675.172 116.552 674.948 116.748C674.752 116.916 674.514 117 674.234 117H671.714ZM684.053 91.086C683.773 91.086 683.549 91.002 683.381 90.834C683.241 90.638 683.199 90.4 683.255 90.12L683.801 87.852C683.857 87.572 683.983 87.334 684.179 87.138C684.403 86.942 684.655 86.844 684.935 86.844H687.539C687.819 86.844 688.043 86.942 688.211 87.138C688.351 87.278 688.421 87.446 688.421 87.642C688.421 87.698 688.407 87.768 688.379 87.852L687.875 90.12C687.819 90.4 687.679 90.638 687.455 90.834C687.231 91.002 686.979 91.086 686.699 91.086H684.053ZM678.887 117C678.607 117 678.383 116.916 678.215 116.748C678.075 116.552 678.033 116.314 678.089 116.034L682.331 96.126C682.387 95.846 682.527 95.622 682.751 95.454C682.975 95.258 683.227 95.16 683.507 95.16H685.523C685.803 95.16 686.013 95.244 686.153 95.412C686.237 95.552 686.279 95.706 686.279 95.874C686.279 95.958 686.265 96.042 686.237 96.126L682.037 116.034C681.981 116.314 681.841 116.552 681.617 116.748C681.421 116.916 681.183 117 680.903 117H678.887ZM695.904 117.42C693.272 117.42 691.228 116.734 689.772 115.362C688.344 113.99 687.63 112.17 687.63 109.902C687.63 109.202 687.686 108.53 687.798 107.886C687.882 107.326 687.994 106.696 688.134 105.996C688.302 105.296 688.456 104.722 688.596 104.274C689.296 101.362 690.626 99.052 692.586 97.344C694.546 95.608 697.066 94.74 700.146 94.74C702.806 94.74 704.85 95.426 706.278 96.798C707.734 98.17 708.462 99.99 708.462 102.258C708.462 102.958 708.406 103.63 708.294 104.274C708.126 105.226 707.874 106.43 707.538 107.886C706.782 110.798 705.424 113.122 703.464 114.858C701.532 116.566 699.012 117.42 695.904 117.42ZM696.072 114.186C697.864 114.186 699.432 113.626 700.776 112.506C702.12 111.358 703.044 109.748 703.548 107.676C703.8 106.668 704.038 105.604 704.262 104.484C704.374 103.84 704.43 103.196 704.43 102.552C704.43 101.068 704.052 99.934 703.296 99.15C702.54 98.366 701.434 97.974 699.978 97.974C698.186 97.974 696.618 98.548 695.274 99.696C693.958 100.816 693.048 102.412 692.544 104.484C692.292 105.352 692.068 106.416 691.872 107.676C691.732 108.516 691.662 109.202 691.662 109.734C691.662 111.19 692.026 112.296 692.754 113.052C693.51 113.808 694.616 114.186 696.072 114.186ZM710.615 117C710.335 117 710.111 116.916 709.943 116.748C709.803 116.552 709.761 116.314 709.817 116.034L714.059 96.126C714.115 95.846 714.255 95.622 714.479 95.454C714.703 95.258 714.955 95.16 715.235 95.16H717.209C717.489 95.16 717.699 95.244 717.839 95.412C717.951 95.552 718.007 95.72 718.007 95.916C718.007 95.972 717.993 96.042 717.965 96.126L717.545 97.974C718.469 96.994 719.547 96.21 720.779 95.622C722.039 95.034 723.411 94.74 724.895 94.74C727.331 94.74 729.137 95.328 730.313 96.504C731.517 97.652 732.119 99.262 732.119 101.334C732.119 102.174 732.007 103.126 731.783 104.19L729.221 116.034C729.165 116.314 729.025 116.552 728.801 116.748C728.605 116.916 728.367 117 728.087 117H725.987C725.707 117 725.483 116.916 725.315 116.748C725.175 116.552 725.133 116.314 725.189 116.034L727.667 104.4C727.891 103.28 728.003 102.37 728.003 101.67C728.003 100.466 727.681 99.584 727.037 99.024C726.393 98.436 725.343 98.142 723.887 98.142C721.955 98.142 720.317 98.702 718.973 99.822C717.629 100.914 716.733 102.44 716.285 104.4L713.849 116.034C713.793 116.314 713.653 116.552 713.429 116.748C713.233 116.916 712.995 117 712.715 117H710.615ZM741.882 117.42C740.034 117.42 738.522 117.14 737.346 116.58C736.198 116.02 735.358 115.362 734.826 114.606C734.322 113.85 734.07 113.178 734.07 112.59C734.07 112.254 734.196 111.974 734.448 111.75C734.7 111.526 734.952 111.414 735.204 111.414H737.094C737.262 111.414 737.388 111.442 737.472 111.498C737.556 111.554 737.654 111.666 737.766 111.834C738.326 112.646 738.942 113.276 739.614 113.724C740.286 114.144 741.28 114.354 742.596 114.354C744.052 114.354 745.284 114.074 746.292 113.514C747.328 112.954 747.958 112.156 748.182 111.12C748.238 110.84 748.266 110.63 748.266 110.49C748.266 109.734 747.846 109.146 747.006 108.726C746.194 108.278 744.668 107.788 742.428 107.256C740.468 106.78 739.054 106.15 738.186 105.366C737.318 104.582 736.884 103.602 736.884 102.426C736.884 102.118 736.94 101.656 737.052 101.04C737.276 99.976 737.808 98.968 738.648 98.016C739.488 97.036 740.58 96.252 741.924 95.664C743.268 95.048 744.794 94.74 746.502 94.74C748.154 94.74 749.526 95.006 750.618 95.538C751.738 96.042 752.55 96.658 753.054 97.386C753.586 98.086 753.852 98.73 753.852 99.318C753.852 99.682 753.726 99.99 753.474 100.242C753.25 100.466 752.984 100.578 752.676 100.578H750.954C750.59 100.578 750.338 100.438 750.198 100.158C749.834 99.626 749.526 99.22 749.274 98.94C749.022 98.632 748.616 98.366 748.056 98.142C747.496 97.918 746.768 97.806 745.872 97.806C744.528 97.806 743.422 98.1 742.554 98.688C741.714 99.248 741.196 99.99 741 100.914C740.944 101.194 740.916 101.404 740.916 101.544C740.916 102.216 741.294 102.776 742.05 103.224C742.834 103.672 744.248 104.12 746.292 104.568C748.448 105.072 750.002 105.744 750.954 106.584C751.934 107.396 752.424 108.418 752.424 109.65C752.424 109.93 752.368 110.378 752.256 110.994C752.004 112.198 751.416 113.29 750.492 114.27C749.596 115.25 748.406 116.02 746.922 116.58C745.438 117.14 743.758 117.42 741.882 117.42Z" fill="url(#paint3_linear)"/>
<path d="M1056.6 66C1056.4 66 1056.23 65.94 1056.09 65.82C1055.97 65.68 1055.91 65.51 1055.91 65.31V45.72C1055.91 45.5 1055.97 45.33 1056.09 45.21C1056.23 45.07 1056.4 45 1056.6 45H1063.41C1066.43 45 1068.61 45.68 1069.95 47.04C1071.29 48.38 1071.99 50.41 1072.05 53.13C1072.07 53.71 1072.08 54.49 1072.08 55.47C1072.08 56.45 1072.07 57.24 1072.05 57.84C1071.99 59.74 1071.67 61.29 1071.09 62.49C1070.53 63.67 1069.64 64.55 1068.42 65.13C1067.2 65.71 1065.58 66 1063.56 66H1056.6ZM1063.41 63.45C1064.79 63.45 1065.88 63.26 1066.68 62.88C1067.5 62.5 1068.09 61.9 1068.45 61.08C1068.83 60.24 1069.04 59.12 1069.08 57.72C1069.12 56.52 1069.14 55.77 1069.14 55.47C1069.14 55.15 1069.12 54.41 1069.08 53.25C1069.04 51.27 1068.57 49.83 1067.67 48.93C1066.77 48.01 1065.3 47.55 1063.26 47.55H1058.85V63.45H1063.41ZM1075.75 47.49C1075.55 47.49 1075.38 47.43 1075.24 47.31C1075.12 47.17 1075.06 47 1075.06 46.8V45.18C1075.06 44.98 1075.12 44.81 1075.24 44.67C1075.38 44.53 1075.55 44.46 1075.75 44.46H1077.64C1077.84 44.46 1078.01 44.53 1078.15 44.67C1078.29 44.81 1078.36 44.98 1078.36 45.18V46.8C1078.36 47 1078.29 47.17 1078.15 47.31C1078.01 47.43 1077.84 47.49 1077.64 47.49H1075.75ZM1075.99 66C1075.79 66 1075.62 65.94 1075.48 65.82C1075.36 65.68 1075.3 65.51 1075.3 65.31V51.09C1075.3 50.89 1075.36 50.73 1075.48 50.61C1075.62 50.47 1075.79 50.4 1075.99 50.4H1077.43C1077.63 50.4 1077.79 50.47 1077.91 50.61C1078.05 50.73 1078.12 50.89 1078.12 51.09V65.31C1078.12 65.51 1078.05 65.68 1077.91 65.82C1077.79 65.94 1077.63 66 1077.43 66H1075.99ZM1087.07 66.3C1085.67 66.3 1084.49 66.08 1083.53 65.64C1082.59 65.18 1081.88 64.66 1081.4 64.08C1080.94 63.5 1080.71 63.02 1080.71 62.64C1080.71 62.44 1080.78 62.29 1080.92 62.19C1081.08 62.07 1081.24 62.01 1081.4 62.01H1082.75C1082.95 62.01 1083.13 62.11 1083.29 62.31C1083.77 62.87 1084.29 63.31 1084.85 63.63C1085.41 63.95 1086.16 64.11 1087.1 64.11C1088.14 64.11 1088.98 63.91 1089.62 63.51C1090.28 63.09 1090.61 62.52 1090.61 61.8C1090.61 61.32 1090.47 60.93 1090.19 60.63C1089.93 60.31 1089.47 60.04 1088.81 59.82C1088.17 59.58 1087.21 59.32 1085.93 59.04C1084.19 58.66 1082.95 58.11 1082.21 57.39C1081.49 56.67 1081.13 55.74 1081.13 54.6C1081.13 53.84 1081.35 53.12 1081.79 52.44C1082.25 51.74 1082.91 51.18 1083.77 50.76C1084.65 50.32 1085.7 50.1 1086.92 50.1C1088.2 50.1 1089.29 50.31 1090.19 50.73C1091.09 51.15 1091.76 51.65 1092.2 52.23C1092.66 52.79 1092.89 53.26 1092.89 53.64C1092.89 53.82 1092.82 53.97 1092.68 54.09C1092.56 54.21 1092.41 54.27 1092.23 54.27H1090.97C1090.73 54.27 1090.53 54.17 1090.37 53.97C1090.05 53.59 1089.77 53.3 1089.53 53.1C1089.31 52.88 1088.98 52.69 1088.54 52.53C1088.12 52.37 1087.58 52.29 1086.92 52.29C1085.96 52.29 1085.22 52.5 1084.7 52.92C1084.18 53.32 1083.92 53.85 1083.92 54.51C1083.92 54.93 1084.03 55.29 1084.25 55.59C1084.47 55.87 1084.89 56.13 1085.51 56.37C1086.15 56.61 1087.07 56.86 1088.27 57.12C1090.17 57.52 1091.51 58.1 1092.29 58.86C1093.09 59.6 1093.49 60.55 1093.49 61.71C1093.49 62.57 1093.24 63.35 1092.74 64.05C1092.24 64.75 1091.5 65.3 1090.52 65.7C1089.56 66.1 1088.41 66.3 1087.07 66.3ZM1102.36 66.3C1100.22 66.3 1098.54 65.7 1097.32 64.5C1096.12 63.28 1095.48 61.58 1095.4 59.4L1095.37 58.2L1095.4 57C1095.48 54.82 1096.12 53.13 1097.32 51.93C1098.54 50.71 1100.22 50.1 1102.36 50.1C1103.8 50.1 1105.02 50.36 1106.02 50.88C1107.02 51.4 1107.76 52.04 1108.24 52.8C1108.74 53.56 1109.01 54.32 1109.05 55.08C1109.07 55.28 1109.01 55.44 1108.87 55.56C1108.73 55.68 1108.56 55.74 1108.36 55.74H1106.92C1106.72 55.74 1106.57 55.7 1106.47 55.62C1106.37 55.54 1106.27 55.38 1106.17 55.14C1105.83 54.18 1105.35 53.5 1104.73 53.1C1104.11 52.68 1103.33 52.47 1102.39 52.47C1101.15 52.47 1100.16 52.86 1099.42 53.64C1098.7 54.4 1098.31 55.57 1098.25 57.15L1098.22 58.23L1098.25 59.25C1098.31 60.85 1098.7 62.03 1099.42 62.79C1100.14 63.55 1101.13 63.93 1102.39 63.93C1103.33 63.93 1104.11 63.73 1104.73 63.33C1105.35 62.91 1105.83 62.22 1106.17 61.26C1106.27 61.02 1106.37 60.86 1106.47 60.78C1106.57 60.68 1106.72 60.63 1106.92 60.63H1108.36C1108.56 60.63 1108.73 60.7 1108.87 60.84C1109.01 60.96 1109.07 61.12 1109.05 61.32C1109.01 62.06 1108.74 62.82 1108.24 63.6C1107.76 64.36 1107.02 65 1106.02 65.52C1105.04 66.04 1103.82 66.3 1102.36 66.3ZM1118.1 66.3C1115.9 66.3 1114.19 65.68 1112.97 64.44C1111.77 63.2 1111.13 61.55 1111.05 59.49L1111.02 58.2L1111.05 56.91C1111.13 54.87 1111.78 53.23 1113 51.99C1114.22 50.73 1115.92 50.1 1118.1 50.1C1120.28 50.1 1121.98 50.73 1123.2 51.99C1124.42 53.23 1125.07 54.87 1125.15 56.91C1125.17 57.13 1125.18 57.56 1125.18 58.2C1125.18 58.84 1125.17 59.27 1125.15 59.49C1125.07 61.55 1124.42 63.2 1123.2 64.44C1122 65.68 1120.3 66.3 1118.1 66.3ZM1118.1 63.99C1119.36 63.99 1120.35 63.59 1121.07 62.79C1121.81 61.99 1122.21 60.84 1122.27 59.34C1122.29 59.14 1122.3 58.76 1122.3 58.2C1122.3 57.64 1122.29 57.26 1122.27 57.06C1122.21 55.56 1121.81 54.41 1121.07 53.61C1120.35 52.81 1119.36 52.41 1118.1 52.41C1116.84 52.41 1115.84 52.81 1115.1 53.61C1114.36 54.41 1113.97 55.56 1113.93 57.06L1113.9 58.2L1113.93 59.34C1113.97 60.84 1114.36 61.99 1115.1 62.79C1115.84 63.59 1116.84 63.99 1118.1 63.99ZM1132.91 66C1132.39 66 1132.02 65.75 1131.8 65.25L1126.25 51.33L1126.19 51.03C1126.19 50.85 1126.25 50.7 1126.37 50.58C1126.49 50.46 1126.64 50.4 1126.82 50.4H1128.26C1128.6 50.4 1128.85 50.57 1129.01 50.91L1133.57 62.73L1138.13 50.91C1138.31 50.57 1138.55 50.4 1138.85 50.4H1140.32C1140.48 50.4 1140.62 50.46 1140.74 50.58C1140.88 50.7 1140.95 50.85 1140.95 51.03L1140.89 51.33L1135.31 65.25C1135.09 65.75 1134.72 66 1134.2 66H1132.91ZM1148.88 66.3C1146.82 66.3 1145.17 65.67 1143.93 64.41C1142.71 63.13 1142.04 61.39 1141.92 59.19L1141.89 58.17L1141.92 57.18C1142.06 55.02 1142.74 53.3 1143.96 52.02C1145.2 50.74 1146.83 50.1 1148.85 50.1C1151.07 50.1 1152.79 50.81 1154.01 52.23C1155.23 53.63 1155.84 55.53 1155.84 57.93V58.44C1155.84 58.64 1155.77 58.81 1155.63 58.95C1155.51 59.07 1155.35 59.13 1155.15 59.13H1144.77V59.4C1144.83 60.7 1145.22 61.81 1145.94 62.73C1146.68 63.63 1147.65 64.08 1148.85 64.08C1149.77 64.08 1150.52 63.9 1151.1 63.54C1151.7 63.16 1152.14 62.77 1152.42 62.37C1152.6 62.13 1152.73 61.99 1152.81 61.95C1152.91 61.89 1153.08 61.86 1153.32 61.86H1154.79C1154.97 61.86 1155.12 61.91 1155.24 62.01C1155.36 62.11 1155.42 62.25 1155.42 62.43C1155.42 62.87 1155.14 63.4 1154.58 64.02C1154.04 64.64 1153.27 65.18 1152.27 65.64C1151.29 66.08 1150.16 66.3 1148.88 66.3ZM1152.99 57.06V56.97C1152.99 55.59 1152.61 54.47 1151.85 53.61C1151.11 52.73 1150.11 52.29 1148.85 52.29C1147.59 52.29 1146.59 52.73 1145.85 53.61C1145.13 54.47 1144.77 55.59 1144.77 56.97V57.06H1152.99ZM1159.22 66C1159.02 66 1158.85 65.94 1158.71 65.82C1158.59 65.68 1158.53 65.51 1158.53 65.31V51.12C1158.53 50.92 1158.59 50.75 1158.71 50.61C1158.85 50.47 1159.02 50.4 1159.22 50.4H1160.6C1160.8 50.4 1160.97 50.47 1161.11 50.61C1161.25 50.75 1161.32 50.92 1161.32 51.12V52.44C1162.14 51.08 1163.54 50.4 1165.52 50.4H1166.69C1166.89 50.4 1167.05 50.47 1167.17 50.61C1167.31 50.73 1167.38 50.89 1167.38 51.09V52.32C1167.38 52.52 1167.31 52.68 1167.17 52.8C1167.05 52.92 1166.89 52.98 1166.69 52.98H1164.89C1163.81 52.98 1162.96 53.3 1162.34 53.94C1161.72 54.56 1161.41 55.41 1161.41 56.49V65.31C1161.41 65.51 1161.34 65.68 1161.2 65.82C1161.06 65.94 1160.89 66 1160.69 66H1159.22Z" fill="black"/>
<path d="M1034.83 116.42C1032.64 116.42 1030.79 116.112 1029.28 115.496C1027.77 114.88 1026.64 114.054 1025.88 113.018C1025.12 111.954 1024.75 110.778 1024.75 109.49C1024.75 109.098 1024.76 108.804 1024.79 108.608C1024.82 108.356 1024.91 108.146 1025.08 107.978C1025.25 107.81 1025.46 107.726 1025.71 107.726H1028.02C1028.53 107.726 1028.83 108.006 1028.95 108.566C1028.95 109.714 1029.45 110.722 1030.46 111.59C1031.47 112.43 1032.98 112.85 1034.99 112.85C1037.35 112.85 1039.22 112.43 1040.62 111.59C1042.02 110.75 1042.88 109.602 1043.18 108.146C1043.24 107.95 1043.27 107.67 1043.27 107.306C1043.27 106.578 1043 105.962 1042.47 105.458C1041.97 104.954 1041.22 104.506 1040.24 104.114C1039.26 103.722 1037.82 103.218 1035.92 102.602C1033.37 101.818 1031.51 100.908 1030.33 99.872C1029.16 98.808 1028.57 97.422 1028.57 95.714C1028.57 94.986 1028.64 94.328 1028.78 93.74C1029.28 91.444 1030.53 89.61 1032.52 88.238C1034.5 86.866 1037.08 86.18 1040.24 86.18C1042.2 86.18 1043.88 86.516 1045.28 87.188C1046.71 87.86 1047.79 88.714 1048.52 89.75C1049.25 90.786 1049.61 91.85 1049.61 92.942C1049.61 93.11 1049.58 93.39 1049.53 93.782C1049.41 94.342 1049.11 94.622 1048.6 94.622H1046.21C1045.65 94.622 1045.35 94.356 1045.33 93.824C1045.41 92.648 1044.95 91.682 1043.94 90.926C1042.96 90.142 1041.67 89.75 1040.08 89.75C1038.17 89.75 1036.56 90.114 1035.25 90.842C1033.96 91.57 1033.16 92.648 1032.85 94.076C1032.77 94.412 1032.73 94.734 1032.73 95.042C1032.73 96.078 1033.22 96.918 1034.2 97.562C1035.2 98.178 1036.97 98.864 1039.49 99.62C1042.32 100.46 1044.36 101.412 1045.62 102.476C1046.91 103.512 1047.55 104.898 1047.55 106.634C1047.55 107.082 1047.48 107.684 1047.34 108.44C1046.78 111.044 1045.42 113.032 1043.27 114.404C1041.14 115.748 1038.33 116.42 1034.83 116.42ZM1058.44 116.42C1055.8 116.42 1053.76 115.734 1052.3 114.362C1050.88 112.99 1050.16 111.17 1050.16 108.902C1050.16 108.202 1050.22 107.53 1050.33 106.886C1050.41 106.326 1050.53 105.696 1050.67 104.996C1050.83 104.296 1050.99 103.722 1051.13 103.274C1051.83 100.362 1053.16 98.052 1055.12 96.344C1057.08 94.608 1059.6 93.74 1062.68 93.74C1065.34 93.74 1067.38 94.426 1068.81 95.798C1070.27 97.17 1070.99 98.99 1070.99 101.258C1070.99 101.958 1070.94 102.63 1070.83 103.274C1070.66 104.226 1070.41 105.43 1070.07 106.886C1069.31 109.798 1067.96 112.122 1066 113.858C1064.06 115.566 1061.54 116.42 1058.44 116.42ZM1058.6 113.186C1060.4 113.186 1061.96 112.626 1063.31 111.506C1064.65 110.358 1065.58 108.748 1066.08 106.676C1066.33 105.668 1066.57 104.604 1066.79 103.484C1066.91 102.84 1066.96 102.196 1066.96 101.552C1066.96 100.068 1066.58 98.934 1065.83 98.15C1065.07 97.366 1063.97 96.974 1062.51 96.974C1060.72 96.974 1059.15 97.548 1057.81 98.696C1056.49 99.816 1055.58 101.412 1055.08 103.484C1054.82 104.352 1054.6 105.416 1054.4 106.676C1054.26 107.516 1054.19 108.202 1054.19 108.734C1054.19 110.19 1054.56 111.296 1055.29 112.052C1056.04 112.808 1057.15 113.186 1058.6 113.186ZM1073.15 116C1072.87 116 1072.64 115.916 1072.47 115.748C1072.33 115.552 1072.29 115.314 1072.35 115.034L1078.31 87.146C1078.37 86.866 1078.49 86.642 1078.69 86.474C1078.91 86.278 1079.17 86.18 1079.45 86.18H1081.46C1081.74 86.18 1081.95 86.264 1082.09 86.432C1082.2 86.572 1082.26 86.74 1082.26 86.936C1082.26 86.992 1082.25 87.062 1082.22 87.146L1076.3 115.034C1076.24 115.314 1076.1 115.552 1075.88 115.748C1075.68 115.916 1075.44 116 1075.16 116H1073.15ZM1089.66 116.42C1087.28 116.42 1085.49 115.846 1084.28 114.698C1083.11 113.522 1082.52 111.898 1082.52 109.826C1082.52 108.986 1082.63 108.034 1082.85 106.97L1085.37 95.126C1085.43 94.846 1085.57 94.622 1085.79 94.454C1086.02 94.258 1086.27 94.16 1086.55 94.16H1088.65C1088.93 94.16 1089.14 94.244 1089.28 94.412C1089.36 94.552 1089.41 94.706 1089.41 94.874C1089.41 94.958 1089.39 95.042 1089.36 95.126L1086.93 106.76C1086.7 107.88 1086.59 108.804 1086.59 109.532C1086.59 110.708 1086.9 111.59 1087.52 112.178C1088.16 112.738 1089.21 113.018 1090.67 113.018C1092.51 113.018 1094.11 112.472 1095.45 111.38C1096.83 110.26 1097.72 108.72 1098.14 106.76L1100.62 95.126C1100.68 94.846 1100.82 94.622 1101.04 94.454C1101.26 94.258 1101.52 94.16 1101.8 94.16H1103.85C1104.13 94.16 1104.34 94.244 1104.48 94.412C1104.6 94.552 1104.65 94.72 1104.65 94.916C1104.65 94.972 1104.64 95.042 1104.61 95.126L1100.37 115.034C1100.31 115.314 1100.17 115.552 1099.95 115.748C1099.75 115.916 1099.51 116 1099.23 116H1097.3C1097.02 116 1096.8 115.916 1096.63 115.748C1096.49 115.552 1096.45 115.314 1096.5 115.034L1096.88 113.186C1095.79 114.306 1094.74 115.132 1093.73 115.664C1092.75 116.168 1091.39 116.42 1089.66 116.42ZM1113.83 116C1111.76 116 1110.28 115.608 1109.38 114.824C1108.48 114.04 1108.04 112.892 1108.04 111.38C1108.04 110.596 1108.15 109.672 1108.37 108.608L1110.72 97.52H1107.45C1107.17 97.52 1106.96 97.422 1106.82 97.226C1106.71 97.114 1106.65 96.96 1106.65 96.764C1106.65 96.708 1106.66 96.638 1106.69 96.554L1106.99 95.126C1107.04 94.846 1107.18 94.622 1107.41 94.454C1107.63 94.258 1107.88 94.16 1108.16 94.16H1111.44L1112.95 87.146C1113.01 86.866 1113.13 86.642 1113.33 86.474C1113.55 86.278 1113.8 86.18 1114.08 86.18H1116.06C1116.34 86.18 1116.55 86.264 1116.69 86.432C1116.8 86.572 1116.86 86.74 1116.86 86.936C1116.86 86.992 1116.84 87.062 1116.81 87.146L1115.34 94.16H1120.55C1120.83 94.16 1121.04 94.244 1121.18 94.412C1121.29 94.552 1121.35 94.72 1121.35 94.916C1121.35 94.972 1121.34 95.042 1121.31 95.126L1121.01 96.554C1120.96 96.834 1120.82 97.072 1120.59 97.268C1120.37 97.436 1120.12 97.52 1119.84 97.52H1114.63L1112.32 108.314C1112.07 109.462 1111.94 110.26 1111.94 110.708C1111.94 111.324 1112.11 111.786 1112.45 112.094C1112.81 112.402 1113.43 112.556 1114.29 112.556H1117.07C1117.35 112.556 1117.56 112.64 1117.7 112.808C1117.78 112.948 1117.82 113.102 1117.82 113.27C1117.82 113.354 1117.81 113.438 1117.78 113.522L1117.49 115.034C1117.43 115.314 1117.29 115.552 1117.07 115.748C1116.87 115.916 1116.63 116 1116.35 116H1113.83ZM1126.17 90.086C1125.89 90.086 1125.67 90.002 1125.5 89.834C1125.36 89.638 1125.32 89.4 1125.37 89.12L1125.92 86.852C1125.97 86.572 1126.1 86.334 1126.3 86.138C1126.52 85.942 1126.77 85.844 1127.05 85.844H1129.66C1129.94 85.844 1130.16 85.942 1130.33 86.138C1130.47 86.278 1130.54 86.446 1130.54 86.642C1130.54 86.698 1130.52 86.768 1130.5 86.852L1129.99 89.12C1129.94 89.4 1129.8 89.638 1129.57 89.834C1129.35 90.002 1129.1 90.086 1128.82 90.086H1126.17ZM1121 116C1120.72 116 1120.5 115.916 1120.33 115.748C1120.19 115.552 1120.15 115.314 1120.21 115.034L1124.45 95.126C1124.5 94.846 1124.64 94.622 1124.87 94.454C1125.09 94.258 1125.34 94.16 1125.62 94.16H1127.64C1127.92 94.16 1128.13 94.244 1128.27 94.412C1128.35 94.552 1128.4 94.706 1128.4 94.874C1128.4 94.958 1128.38 95.042 1128.35 95.126L1124.15 115.034C1124.1 115.314 1123.96 115.552 1123.73 115.748C1123.54 115.916 1123.3 116 1123.02 116H1121ZM1138.02 116.42C1135.39 116.42 1133.35 115.734 1131.89 114.362C1130.46 112.99 1129.75 111.17 1129.75 108.902C1129.75 108.202 1129.8 107.53 1129.92 106.886C1130 106.326 1130.11 105.696 1130.25 104.996C1130.42 104.296 1130.57 103.722 1130.71 103.274C1131.41 100.362 1132.74 98.052 1134.7 96.344C1136.66 94.608 1139.18 93.74 1142.26 93.74C1144.92 93.74 1146.97 94.426 1148.4 95.798C1149.85 97.17 1150.58 98.99 1150.58 101.258C1150.58 101.958 1150.52 102.63 1150.41 103.274C1150.24 104.226 1149.99 105.43 1149.66 106.886C1148.9 109.798 1147.54 112.122 1145.58 113.858C1143.65 115.566 1141.13 116.42 1138.02 116.42ZM1138.19 113.186C1139.98 113.186 1141.55 112.626 1142.89 111.506C1144.24 110.358 1145.16 108.748 1145.67 106.676C1145.92 105.668 1146.16 104.604 1146.38 103.484C1146.49 102.84 1146.55 102.196 1146.55 101.552C1146.55 100.068 1146.17 98.934 1145.41 98.15C1144.66 97.366 1143.55 96.974 1142.1 96.974C1140.3 96.974 1138.74 97.548 1137.39 98.696C1136.08 99.816 1135.17 101.412 1134.66 103.484C1134.41 104.352 1134.19 105.416 1133.99 106.676C1133.85 107.516 1133.78 108.202 1133.78 108.734C1133.78 110.19 1134.14 111.296 1134.87 112.052C1135.63 112.808 1136.73 113.186 1138.19 113.186ZM1152.73 116C1152.45 116 1152.23 115.916 1152.06 115.748C1151.92 115.552 1151.88 115.314 1151.93 115.034L1156.18 95.126C1156.23 94.846 1156.37 94.622 1156.6 94.454C1156.82 94.258 1157.07 94.16 1157.35 94.16H1159.33C1159.61 94.16 1159.82 94.244 1159.96 94.412C1160.07 94.552 1160.12 94.72 1160.12 94.916C1160.12 94.972 1160.11 95.042 1160.08 95.126L1159.66 96.974C1160.59 95.994 1161.66 95.21 1162.9 94.622C1164.16 94.034 1165.53 93.74 1167.01 93.74C1169.45 93.74 1171.25 94.328 1172.43 95.504C1173.63 96.652 1174.24 98.262 1174.24 100.334C1174.24 101.174 1174.12 102.126 1173.9 103.19L1171.34 115.034C1171.28 115.314 1171.14 115.552 1170.92 115.748C1170.72 115.916 1170.48 116 1170.2 116H1168.1C1167.82 116 1167.6 115.916 1167.43 115.748C1167.29 115.552 1167.25 115.314 1167.31 115.034L1169.78 103.4C1170.01 102.28 1170.12 101.37 1170.12 100.67C1170.12 99.466 1169.8 98.584 1169.15 98.024C1168.51 97.436 1167.46 97.142 1166 97.142C1164.07 97.142 1162.43 97.702 1161.09 98.822C1159.75 99.914 1158.85 101.44 1158.4 103.4L1155.97 115.034C1155.91 115.314 1155.77 115.552 1155.55 115.748C1155.35 115.916 1155.11 116 1154.83 116H1152.73ZM1184 116.42C1182.15 116.42 1180.64 116.14 1179.46 115.58C1178.32 115.02 1177.48 114.362 1176.94 113.606C1176.44 112.85 1176.19 112.178 1176.19 111.59C1176.19 111.254 1176.31 110.974 1176.57 110.75C1176.82 110.526 1177.07 110.414 1177.32 110.414H1179.21C1179.38 110.414 1179.51 110.442 1179.59 110.498C1179.67 110.554 1179.77 110.666 1179.88 110.834C1180.44 111.646 1181.06 112.276 1181.73 112.724C1182.4 113.144 1183.4 113.354 1184.71 113.354C1186.17 113.354 1187.4 113.074 1188.41 112.514C1189.45 111.954 1190.08 111.156 1190.3 110.12C1190.36 109.84 1190.38 109.63 1190.38 109.49C1190.38 108.734 1189.96 108.146 1189.12 107.726C1188.31 107.278 1186.79 106.788 1184.55 106.256C1182.59 105.78 1181.17 105.15 1180.3 104.366C1179.44 103.582 1179 102.602 1179 101.426C1179 101.118 1179.06 100.656 1179.17 100.04C1179.39 98.976 1179.93 97.968 1180.77 97.016C1181.61 96.036 1182.7 95.252 1184.04 94.664C1185.39 94.048 1186.91 93.74 1188.62 93.74C1190.27 93.74 1191.64 94.006 1192.74 94.538C1193.86 95.042 1194.67 95.658 1195.17 96.386C1195.7 97.086 1195.97 97.73 1195.97 98.318C1195.97 98.682 1195.84 98.99 1195.59 99.242C1195.37 99.466 1195.1 99.578 1194.79 99.578H1193.07C1192.71 99.578 1192.46 99.438 1192.32 99.158C1191.95 98.626 1191.64 98.22 1191.39 97.94C1191.14 97.632 1190.73 97.366 1190.17 97.142C1189.61 96.918 1188.89 96.806 1187.99 96.806C1186.65 96.806 1185.54 97.1 1184.67 97.688C1183.83 98.248 1183.31 98.99 1183.12 99.914C1183.06 100.194 1183.03 100.404 1183.03 100.544C1183.03 101.216 1183.41 101.776 1184.17 102.224C1184.95 102.672 1186.37 103.12 1188.41 103.568C1190.57 104.072 1192.12 104.744 1193.07 105.584C1194.05 106.396 1194.54 107.418 1194.54 108.65C1194.54 108.93 1194.49 109.378 1194.37 109.994C1194.12 111.198 1193.53 112.29 1192.61 113.27C1191.71 114.25 1190.52 115.02 1189.04 115.58C1187.56 116.14 1185.88 116.42 1184 116.42Z" fill="url(#paint4_linear)"/>
<defs>
<linearGradient id="paint0_linear" x1="382.763" y1="67" x2="382.763" y2="89.2256" gradientUnits="userSpaceOnUse">
<stop stop-color="#54FBFB"/>
<stop offset="1" stop-color="#7910FF"/>
</linearGradient>
<linearGradient id="paint1_linear" x1="877.763" y1="67" x2="877.763" y2="89.2256" gradientUnits="userSpaceOnUse">
<stop stop-color="#54FBFB"/>
<stop offset="1" stop-color="#7910FF"/>
</linearGradient>
<linearGradient id="paint2_linear" x1="172.5" y1="28" x2="172.5" y2="116" gradientUnits="userSpaceOnUse">
<stop offset="0.635417" stop-color="#54FBFB"/>
<stop offset="1" stop-color="#7910FF"/>
</linearGradient>
<linearGradient id="paint3_linear" x1="641.5" y1="39" x2="641.5" y2="116" gradientUnits="userSpaceOnUse">
<stop offset="0.572917" stop-color="#54FBFB"/>
<stop offset="1" stop-color="#7910FF"/>
</linearGradient>
<linearGradient id="paint4_linear" x1="1110.5" y1="38" x2="1110.5" y2="116" gradientUnits="userSpaceOnUse">
<stop offset="0.604167" stop-color="#54FBFB"/>
<stop offset="1" stop-color="#7910FF"/>
</linearGradient>
</defs>
</svg>
