<svg width="336" height="92" viewBox="0 0 336 92" fill="none" xmlns="http://www.w3.org/2000/svg">
<path d="M67.5467 29.944C68.7414 30.1147 69.5521 30.4773 69.9788 31.032C70.4481 31.5867 70.6828 32.312 70.6828 33.208C70.6828 36.152 69.1041 37.5173 65.9468 37.304L63.7067 37.112C61.1894 36.8987 58.6721 36.728 56.1548 36.6C53.6801 36.472 51.0774 36.408 48.3467 36.408H45.4668C44.9548 42.7227 44.4214 48.4827 43.8667 53.688L54.8747 53.496C56.4534 53.496 57.4987 53.7733 58.0107 54.328C58.5654 54.8827 58.8428 55.6293 58.8428 56.568C58.8428 58.0187 58.4161 59.1707 57.5627 60.024C56.7094 60.8347 55.4934 61.24 53.9147 61.24H42.9707L42.5867 63.992C41.6907 71.032 39.7707 76.0453 36.8267 79.032C33.9254 82.0187 29.9147 83.512 24.7947 83.512C21.8934 83.512 19.2267 82.8933 16.7947 81.656C14.3627 80.376 12.5707 78.84 11.4187 77.048C10.9494 76.3227 10.7147 75.448 10.7147 74.424C10.7147 73.4 10.9494 72.504 11.4187 71.736C11.9307 70.968 12.5494 70.584 13.2747 70.584C13.7867 70.584 14.2774 70.7547 14.7467 71.096C15.2587 71.4373 15.8987 72.0987 16.6667 73.08C18.7147 75.768 21.2534 77.112 24.2827 77.112C26.7147 77.112 28.7414 76.1307 30.3627 74.168C32.0267 72.1627 33.0934 69.0267 33.5627 64.76L33.9467 61.24H30.8747C29.8934 61.24 29.0401 60.9627 28.3147 60.408C27.6321 59.8533 27.2907 59.064 27.2907 58.04C27.2907 56.7173 27.6321 55.7147 28.3147 55.032C28.9974 54.3067 30.0001 53.944 31.3227 53.944C32.5174 53.944 33.6907 53.9227 34.8427 53.88C35.3547 49.1867 35.9094 43.4907 36.5067 36.792C31.8987 37.2187 28.6561 37.9653 26.7787 39.032C24.9014 40.0987 23.9627 41.6773 23.9627 43.768C23.9627 45.2187 24.3894 46.6053 25.2427 47.928C25.4987 48.312 25.6267 48.696 25.6267 49.08C25.6267 49.848 25.2001 50.5307 24.3467 51.128C23.4934 51.6827 22.5334 51.96 21.4667 51.96C20.3147 51.96 19.3334 51.6187 18.5227 50.936C18.0107 50.5093 17.5201 49.6347 17.0507 48.312C16.5814 46.9893 16.3467 45.5173 16.3467 43.896C16.3467 38.6053 19.0561 34.7653 24.4747 32.376C29.9361 29.9867 37.8934 28.792 48.3467 28.792C55.6001 28.792 62.0001 29.176 67.5467 29.944ZM62.0372 83.32C60.4159 83.32 59.2639 82.4667 58.5812 80.76C57.9412 79.0533 57.6212 76.3227 57.6212 72.568C57.6212 67.0213 58.4106 61.752 59.9892 56.76C60.3732 55.5227 60.9919 54.6267 61.8452 54.072C62.7412 53.4747 63.9786 53.176 65.5573 53.176C66.4106 53.176 67.0079 53.2827 67.3492 53.496C67.6906 53.7093 67.8612 54.1147 67.8612 54.712C67.8612 55.3947 67.5412 56.9307 66.9012 59.32C66.4746 61.0267 66.1332 62.52 65.8772 63.8C65.6212 65.08 65.4079 66.6587 65.2373 68.536C66.6453 64.8667 68.2239 61.88 69.9733 59.576C71.7226 57.272 73.4293 55.6293 75.0933 54.648C76.7999 53.6667 78.3573 53.176 79.7653 53.176C82.5386 53.176 83.9253 54.5627 83.9253 57.336C83.9253 57.8907 83.7333 59.2347 83.3493 61.368C83.0079 63.0747 82.8373 64.1413 82.8373 64.568C82.8373 66.0613 83.3706 66.808 84.4373 66.808C85.6319 66.808 87.1679 65.8693 89.0452 63.992C89.5999 63.4373 90.1759 63.16 90.7733 63.16C91.3279 63.16 91.7546 63.416 92.0532 63.928C92.3946 64.3973 92.5653 65.0373 92.5653 65.848C92.5653 67.4267 92.1386 68.664 91.2853 69.56C90.0906 70.7973 88.6826 71.864 87.0613 72.76C85.4826 73.6133 83.7973 74.04 82.0053 74.04C79.7439 74.04 78.0159 73.464 76.8213 72.312C75.6693 71.16 75.0933 69.6027 75.0933 67.64C75.0933 67 75.1573 66.36 75.2852 65.72C75.3706 64.8667 75.4132 64.2907 75.4132 63.992C75.4132 63.3093 75.1786 62.968 74.7092 62.968C74.0693 62.968 73.2159 63.6933 72.1493 65.144C71.1253 66.552 70.1013 68.4293 69.0773 70.776C68.0533 73.1227 67.2213 75.5973 66.5813 78.2C66.1119 80.2053 65.5572 81.5707 64.9172 82.296C64.3199 82.9787 63.3599 83.32 62.0372 83.32ZM91.2263 83.32C89.3063 83.32 87.7276 82.4453 86.4903 80.696C85.2956 78.904 84.6983 76.6853 84.6983 74.04C84.6983 70.84 84.9116 67.9173 85.3383 65.272C85.7649 62.584 86.4689 59.7467 87.4503 56.76C87.8769 55.48 88.4743 54.5627 89.2423 54.008C90.0103 53.4533 91.2263 53.176 92.8903 53.176C93.8289 53.176 94.4689 53.3253 94.8103 53.624C95.1943 53.9227 95.3863 54.3707 95.3863 54.968C95.3863 55.3093 95.1516 56.4613 94.6823 58.424C94.2556 60.0027 93.9143 61.432 93.6583 62.712C92.8049 67.192 92.3783 70.1787 92.3783 71.672C92.3783 72.568 92.4849 73.208 92.6983 73.592C92.9116 73.9333 93.2529 74.104 93.7223 74.104C94.3623 74.104 95.1516 73.464 96.0903 72.184C97.0716 70.904 98.0956 68.9627 99.1623 66.36C100.272 63.7573 101.338 60.5573 102.362 56.76C102.704 55.48 103.216 54.5627 103.898 54.008C104.624 53.4533 105.69 53.176 107.098 53.176C108.08 53.176 108.762 53.304 109.146 53.56C109.53 53.7733 109.722 54.2 109.722 54.84C109.722 55.9067 109.189 58.8293 108.122 63.608C106.928 69.0693 106.33 72.44 106.33 73.72C106.33 74.5307 106.501 75.1707 106.842 75.64C107.184 76.0667 107.632 76.28 108.186 76.28C109.04 76.28 110.042 75.768 111.194 74.744C112.389 73.6773 113.968 71.9707 115.93 69.624C116.442 69.0267 117.018 68.728 117.658 68.728C118.213 68.728 118.64 68.984 118.938 69.496C119.28 70.008 119.45 70.712 119.45 71.608C119.45 73.3147 119.045 74.6373 118.234 75.576C116.4 77.8373 114.416 79.6933 112.282 81.144C110.192 82.5947 107.802 83.32 105.114 83.32C103.066 83.32 101.552 82.5307 100.57 80.952C99.6316 79.3733 99.1623 77.1547 99.1623 74.296C98.4369 77.1973 97.3489 79.4373 95.8983 81.016C94.4476 82.552 92.8903 83.32 91.2263 83.32ZM124.245 84.728C122.026 84.728 120.319 84.216 119.125 83.192C117.973 82.168 117.397 81.016 117.397 79.736C117.397 78.6267 117.802 77.6667 118.613 76.856C119.423 76.0453 120.618 75.64 122.197 75.64C122.751 75.64 123.391 75.704 124.117 75.832C124.885 75.9173 125.461 75.9813 125.845 76.024C125.802 74.9147 125.546 73.8693 125.077 72.888C124.65 71.9067 124.095 70.968 123.413 70.072C122.73 69.1333 122.09 68.3227 121.493 67.64C120.17 70.1573 118.847 72.248 117.525 73.912C116.245 75.576 114.837 77.1547 113.301 78.648C112.533 79.416 111.722 79.8 110.869 79.8C110.186 79.8 109.631 79.5653 109.205 79.096C108.778 78.584 108.565 77.9653 108.565 77.24C108.565 76.3867 108.863 75.5973 109.461 74.872L110.293 73.848C112.639 70.9467 114.41 68.5573 115.605 66.68C116.33 65.4427 117.183 63.8 118.165 61.752C119.146 59.6613 120.106 57.5067 121.045 55.288C121.855 53.4107 123.541 52.472 126.101 52.472C127.295 52.472 128.127 52.5787 128.597 52.792C129.066 53.0053 129.301 53.3467 129.301 53.816C129.301 54.072 129.215 54.4773 129.045 55.032C128.874 55.5867 128.639 56.1413 128.341 56.696C127.573 58.232 127.189 59.5333 127.189 60.6C127.189 61.24 127.402 61.944 127.829 62.712C128.298 63.48 129.002 64.44 129.941 65.592C131.306 67.384 132.33 68.92 133.013 70.2C133.738 71.4373 134.101 72.8027 134.101 74.296C134.101 74.7227 134.058 75.32 133.973 76.088C136.063 75.2773 138.517 73.1227 141.333 69.624C141.845 69.0267 142.421 68.728 143.061 68.728C143.615 68.728 144.042 68.984 144.341 69.496C144.682 70.008 144.853 70.712 144.853 71.608C144.853 73.2293 144.447 74.552 143.637 75.576C141.503 78.2213 139.455 80.0347 137.493 81.016C135.573 81.9547 133.183 82.4667 130.325 82.552C128.618 84.0027 126.591 84.728 124.245 84.728ZM166.277 68.728C166.832 68.728 167.259 68.984 167.557 69.496C167.899 70.008 168.069 70.712 168.069 71.608C168.069 73.3147 167.664 74.6373 166.853 75.576C165.019 77.8373 163.013 79.6933 160.837 81.144C158.661 82.5947 156.165 83.32 153.349 83.32C144.645 83.32 140.293 77.1973 140.293 64.952C140.293 63.0747 140.357 61.176 140.485 59.256H137.989C136.709 59.256 135.835 59.0213 135.365 58.552C134.939 58.0827 134.725 57.336 134.725 56.312C134.725 53.9227 135.685 52.728 137.605 52.728H141.253C141.979 48.0347 143.088 43.7467 144.581 39.864C146.075 35.9813 147.867 32.888 149.957 30.584C152.091 28.28 154.373 27.128 156.805 27.128C158.597 27.128 160.005 27.9173 161.029 29.496C162.053 31.0747 162.565 33.0587 162.565 35.448C162.565 42.0613 159.792 47.8213 154.245 52.728H161.413C162.096 52.728 162.587 52.8773 162.885 53.176C163.184 53.4747 163.333 54.0293 163.333 54.84C163.333 57.784 160.923 59.256 156.101 59.256H148.293C148.208 61.3893 148.165 63.0533 148.165 64.248C148.165 68.6853 148.677 71.8 149.701 73.592C150.768 75.384 152.432 76.28 154.693 76.28C156.528 76.28 158.149 75.7253 159.557 74.616C160.965 73.5067 162.629 71.8427 164.549 69.624C165.061 69.0267 165.637 68.728 166.277 68.728ZM155.077 33.272C154.437 33.272 153.712 34.0827 152.901 35.704C152.133 37.2827 151.387 39.5013 150.661 42.36C149.979 45.176 149.403 48.312 148.933 51.768C151.451 49.592 153.328 47.16 154.565 44.472C155.845 41.7413 156.485 39.2667 156.485 37.048C156.485 34.5307 156.016 33.272 155.077 33.272ZM165.482 83.32C163.861 83.32 162.709 82.4667 162.026 80.76C161.386 79.0533 161.066 76.3227 161.066 72.568C161.066 67.0213 161.856 61.752 163.434 56.76C163.818 55.5227 164.437 54.6267 165.29 54.072C166.186 53.4747 167.424 53.176 169.002 53.176C169.856 53.176 170.453 53.2827 170.794 53.496C171.136 53.7093 171.306 54.1147 171.306 54.712C171.306 55.3947 170.986 56.9307 170.346 59.32C169.92 61.0267 169.578 62.52 169.322 63.8C169.066 65.08 168.853 66.6587 168.682 68.536C170.09 64.8667 171.669 61.88 173.418 59.576C175.168 57.272 176.874 55.6293 178.538 54.648C180.245 53.6667 181.802 53.176 183.21 53.176C185.984 53.176 187.37 54.5627 187.37 57.336C187.37 57.8907 187.178 59.2347 186.794 61.368C186.453 63.0747 186.282 64.1413 186.282 64.568C186.282 66.0613 186.816 66.808 187.882 66.808C189.077 66.808 190.613 65.8693 192.49 63.992C193.045 63.4373 193.621 63.16 194.218 63.16C194.773 63.16 195.2 63.416 195.498 63.928C195.84 64.3973 196.01 65.0373 196.01 65.848C196.01 67.4267 195.584 68.664 194.73 69.56C193.536 70.7973 192.128 71.864 190.506 72.76C188.928 73.6133 187.242 74.04 185.45 74.04C183.189 74.04 181.461 73.464 180.266 72.312C179.114 71.16 178.538 69.6027 178.538 67.64C178.538 67 178.602 66.36 178.73 65.72C178.816 64.8667 178.858 64.2907 178.858 63.992C178.858 63.3093 178.624 62.968 178.154 62.968C177.514 62.968 176.661 63.6933 175.594 65.144C174.57 66.552 173.546 68.4293 172.522 70.776C171.498 73.1227 170.666 75.5973 170.026 78.2C169.557 80.2053 169.002 81.5707 168.362 82.296C167.765 82.9787 166.805 83.32 165.482 83.32ZM196.015 83.32C193.37 83.32 191.258 82.36 189.679 80.44C188.101 78.52 187.311 76.0027 187.311 72.888C187.311 69.4747 188.101 66.2533 189.679 63.224C191.258 60.152 193.349 57.6987 195.951 55.864C198.597 53.9867 201.391 53.048 204.335 53.048C205.274 53.048 205.893 53.24 206.191 53.624C206.533 53.9653 206.81 54.6053 207.023 55.544C207.919 55.3733 208.858 55.288 209.839 55.288C211.93 55.288 212.975 56.0347 212.975 57.528C212.975 58.424 212.655 60.5573 212.015 63.928C211.034 68.8347 210.543 72.248 210.543 74.168C210.543 74.808 210.693 75.32 210.991 75.704C211.333 76.088 211.759 76.28 212.271 76.28C213.082 76.28 214.063 75.768 215.215 74.744C216.367 73.6773 217.925 71.9707 219.887 69.624C220.399 69.0267 220.975 68.728 221.615 68.728C222.17 68.728 222.597 68.984 222.895 69.496C223.237 70.008 223.407 70.712 223.407 71.608C223.407 73.3147 223.002 74.6373 222.191 75.576C220.442 77.752 218.586 79.5867 216.623 81.08C214.661 82.5733 212.762 83.32 210.927 83.32C209.519 83.32 208.218 82.8507 207.023 81.912C205.871 80.9307 204.997 79.608 204.399 77.944C202.181 81.528 199.386 83.32 196.015 83.32ZM198.319 76.856C199.258 76.856 200.154 76.3013 201.007 75.192C201.861 74.0827 202.479 72.6107 202.863 70.776L205.231 59C203.439 59.0427 201.775 59.7253 200.239 61.048C198.746 62.328 197.551 64.0347 196.655 66.168C195.759 68.3013 195.311 70.5627 195.311 72.952C195.311 74.2747 195.567 75.256 196.079 75.896C196.634 76.536 197.381 76.856 198.319 76.856ZM244.83 68.728C245.384 68.728 245.811 68.984 246.11 69.496C246.451 70.008 246.622 70.712 246.622 71.608C246.622 73.3147 246.216 74.6373 245.406 75.576C243.571 77.8373 241.566 79.6933 239.39 81.144C237.214 82.5947 234.718 83.32 231.902 83.32C223.198 83.32 218.846 77.1973 218.846 64.952C218.846 63.0747 218.91 61.176 219.038 59.256H216.542C215.262 59.256 214.387 59.0213 213.918 58.552C213.491 58.0827 213.278 57.336 213.278 56.312C213.278 53.9227 214.238 52.728 216.158 52.728H219.806C220.531 48.0347 221.64 43.7467 223.134 39.864C224.627 35.9813 226.419 32.888 228.51 30.584C230.643 28.28 232.926 27.128 235.358 27.128C237.15 27.128 238.558 27.9173 239.582 29.496C240.606 31.0747 241.118 33.0587 241.118 35.448C241.118 42.0613 238.344 47.8213 232.798 52.728H239.966C240.648 52.728 241.139 52.8773 241.438 53.176C241.736 53.4747 241.886 54.0293 241.886 54.84C241.886 57.784 239.475 59.256 234.654 59.256H226.846C226.76 61.3893 226.718 63.0533 226.718 64.248C226.718 68.6853 227.23 71.8 228.254 73.592C229.32 75.384 230.984 76.28 233.246 76.28C235.08 76.28 236.702 75.7253 238.11 74.616C239.518 73.5067 241.182 71.8427 243.102 69.624C243.614 69.0267 244.19 68.728 244.83 68.728ZM233.63 33.272C232.99 33.272 232.264 34.0827 231.454 35.704C230.686 37.2827 229.939 39.5013 229.214 42.36C228.531 45.176 227.955 48.312 227.486 51.768C230.003 49.592 231.88 47.16 233.118 44.472C234.398 41.7413 235.038 39.2667 235.038 37.048C235.038 34.5307 234.568 33.272 233.63 33.272ZM247.875 48.952C246.083 48.952 244.739 48.5467 243.843 47.736C242.947 46.8827 242.499 45.7093 242.499 44.216C242.499 42.7227 243.075 41.4853 244.227 40.504C245.421 39.48 246.893 38.968 248.643 38.968C250.221 38.968 251.501 39.352 252.483 40.12C253.464 40.888 253.955 41.976 253.955 43.384C253.955 45.0907 253.4 46.456 252.291 47.48C251.181 48.4613 249.709 48.952 247.875 48.952ZM247.363 83.32C244.589 83.32 242.563 82.3387 241.283 80.376C240.045 78.4133 239.427 75.8107 239.427 72.568C239.427 70.648 239.661 68.1947 240.131 65.208C240.643 62.1787 241.283 59.3627 242.051 56.76C242.435 55.3947 242.947 54.456 243.587 53.944C244.227 53.432 245.251 53.176 246.659 53.176C248.835 53.176 249.923 53.9013 249.923 55.352C249.923 56.4187 249.517 58.8933 248.707 62.776C247.683 67.4693 247.171 70.648 247.171 72.312C247.171 73.592 247.341 74.5733 247.683 75.256C248.024 75.9387 248.6 76.28 249.411 76.28C250.179 76.28 251.139 75.7467 252.291 74.68C253.443 73.6133 254.979 71.928 256.899 69.624C257.411 69.0267 257.987 68.728 258.627 68.728C259.181 68.728 259.608 68.984 259.907 69.496C260.248 70.008 260.419 70.712 260.419 71.608C260.419 73.3147 260.013 74.6373 259.203 75.576C254.979 80.7387 251.032 83.32 247.363 83.32ZM285.961 63.352C286.515 63.352 286.942 63.6293 287.241 64.184C287.539 64.7387 287.689 65.4427 287.689 66.296C287.689 68.344 287.07 69.56 285.833 69.944C283.273 70.84 280.457 71.352 277.385 71.48C276.574 75.064 274.974 77.944 272.585 80.12C270.195 82.2533 267.486 83.32 264.457 83.32C261.897 83.32 259.699 82.7013 257.865 81.464C256.073 80.2267 254.707 78.584 253.769 76.536C252.83 74.488 252.361 72.2693 252.361 69.88C252.361 66.6373 252.979 63.7573 254.217 61.24C255.454 58.68 257.161 56.696 259.337 55.288C261.513 53.8373 263.923 53.112 266.569 53.112C269.811 53.112 272.414 54.2427 274.377 56.504C276.382 58.7227 277.555 61.4747 277.897 64.76C279.902 64.632 282.291 64.2053 285.065 63.48C285.406 63.3947 285.705 63.352 285.961 63.352ZM264.969 76.536C266.334 76.536 267.507 75.9813 268.489 74.872C269.513 73.7627 270.195 72.1627 270.537 70.072C269.214 69.176 268.19 68.0027 267.465 66.552C266.782 65.1013 266.441 63.5653 266.441 61.944C266.441 61.2613 266.505 60.5787 266.633 59.896H266.313C264.606 59.896 263.177 60.728 262.025 62.392C260.915 64.0133 260.361 66.3173 260.361 69.304C260.361 71.6507 260.809 73.4427 261.705 74.68C262.643 75.9173 263.731 76.536 264.969 76.536ZM284.82 83.32C283.198 83.32 282.046 82.4667 281.364 80.76C280.724 79.0533 280.404 76.3227 280.404 72.568C280.404 67.0213 281.193 61.752 282.772 56.76C283.156 55.5227 283.774 54.6267 284.628 54.072C285.524 53.4747 286.761 53.176 288.34 53.176C289.193 53.176 289.79 53.2827 290.132 53.496C290.473 53.7093 290.644 54.1147 290.644 54.712C290.644 55.3947 290.324 56.9307 289.684 59.32C289.257 61.0267 288.916 62.52 288.66 63.8C288.404 65.08 288.19 66.6587 288.02 68.536C289.428 64.8667 291.006 61.88 292.756 59.576C294.505 57.272 296.212 55.6293 297.876 54.648C299.582 53.6667 301.14 53.176 302.548 53.176C305.321 53.176 306.708 54.5627 306.708 57.336C306.708 59 306.238 62.008 305.3 66.36C304.489 70.072 304.084 72.5253 304.084 73.72C304.084 75.4267 304.702 76.28 305.94 76.28C306.793 76.28 307.796 75.768 308.948 74.744C310.142 73.6773 311.721 71.9707 313.684 69.624C314.196 69.0267 314.772 68.728 315.412 68.728C315.966 68.728 316.393 68.984 316.692 69.496C317.033 70.008 317.204 70.712 317.204 71.608C317.204 73.3147 316.798 74.6373 315.988 75.576C314.153 77.8373 312.169 79.6933 310.036 81.144C307.945 82.5947 305.556 83.32 302.868 83.32C300.692 83.32 299.049 82.7013 297.94 81.464C296.83 80.184 296.276 78.3493 296.276 75.96C296.276 74.7653 296.574 72.632 297.172 69.56C297.726 66.872 298.004 65.016 298.004 63.992C298.004 63.3093 297.769 62.968 297.3 62.968C296.745 62.968 295.956 63.6933 294.932 65.144C293.95 66.552 292.926 68.4293 291.86 70.776C290.836 73.1227 290.004 75.5973 289.364 78.2C288.894 80.2053 288.34 81.5707 287.7 82.296C287.102 82.9787 286.142 83.32 284.82 83.32ZM322.01 84.728C319.791 84.728 318.084 84.216 316.89 83.192C315.738 82.168 315.162 81.016 315.162 79.736C315.162 78.6267 315.567 77.6667 316.378 76.856C317.188 76.0453 318.383 75.64 319.962 75.64C320.516 75.64 321.156 75.704 321.882 75.832C322.65 75.9173 323.226 75.9813 323.61 76.024C323.567 74.9147 323.311 73.8693 322.842 72.888C322.415 71.9067 321.86 70.968 321.178 70.072C320.495 69.1333 319.855 68.3227 319.258 67.64C317.935 70.1573 316.612 72.248 315.29 73.912C314.01 75.576 312.602 77.1547 311.066 78.648C310.298 79.416 309.487 79.8 308.634 79.8C307.951 79.8 307.396 79.5653 306.97 79.096C306.543 78.584 306.33 77.9653 306.33 77.24C306.33 76.3867 306.628 75.5973 307.226 74.872L308.058 73.848C310.404 70.9467 312.175 68.5573 313.37 66.68C314.138 65.4427 314.906 63.9707 315.674 62.264C316.484 60.5573 317.53 58.232 318.81 55.288C319.62 53.4107 321.306 52.472 323.866 52.472C325.06 52.472 325.892 52.5787 326.362 52.792C326.831 53.0053 327.066 53.3467 327.066 53.816C327.066 54.072 326.98 54.4773 326.81 55.032C326.639 55.5867 326.404 56.1413 326.106 56.696C325.338 58.232 324.954 59.5333 324.954 60.6C324.954 61.24 325.167 61.944 325.594 62.712C326.063 63.48 326.767 64.44 327.706 65.592C329.071 67.384 330.095 68.92 330.778 70.2C331.503 71.4373 331.866 72.8027 331.866 74.296C331.866 76.088 331.439 77.7947 330.586 79.416C329.775 80.9947 328.623 82.2747 327.13 83.256C325.636 84.2373 323.93 84.728 322.01 84.728Z" fill="#6977FD"/>
</svg>
