<svg width="333" height="67" viewBox="0 0 333 67" fill="none" xmlns="http://www.w3.org/2000/svg">
<path d="M166.72 56.3661C166.057 57.0651 164.943 57.0651 164.28 56.3661L155.635 47.2511C154.619 46.1799 155.378 44.413 156.854 44.413H174.146C175.622 44.413 176.381 46.1799 175.365 47.2511L166.72 56.3661Z" fill="#3D3D3D"/>
<path d="M92.6738 26.1C91.4872 26.1 90.4138 25.8333 89.4538 25.3C88.5072 24.7667 87.7538 23.9867 87.1938 22.96C86.6338 21.92 86.3538 20.68 86.3538 19.24C86.3538 17.2133 86.7205 15.4267 87.4538 13.88C88.2005 12.3333 89.2072 11.14 90.4738 10.3C91.7538 9.46 93.1672 9.04 94.7138 9.04C95.9005 9.04 96.9672 9.30667 97.9138 9.84C98.8738 10.3733 99.6338 11.16 100.194 12.2C100.754 13.2267 101.034 14.46 101.034 15.9C101.034 17.9267 100.66 19.7133 99.9138 21.26C99.1805 22.8067 98.1738 24 96.8938 24.84C95.6272 25.68 94.2205 26.1 92.6738 26.1ZM92.8738 23.74C93.9138 23.74 94.8272 23.42 95.6138 22.78C96.4138 22.14 97.0272 21.2533 97.4538 20.12C97.8805 18.9733 98.0938 17.68 98.0938 16.24C98.0938 14.6533 97.7605 13.4533 97.0938 12.64C96.4272 11.8133 95.5672 11.4 94.5138 11.4C93.4872 11.4 92.5805 11.72 91.7938 12.36C91.0072 12.9867 90.3938 13.8733 89.9538 15.02C89.5138 16.1533 89.2938 17.4467 89.2938 18.9C89.2938 20.4867 89.6272 21.6933 90.2938 22.52C90.9605 23.3333 91.8205 23.74 92.8738 23.74ZM102.987 26.1C102.48 26.1 102.12 25.8333 101.907 25.3C101.707 24.7667 101.607 23.9133 101.607 22.74C101.607 21.0067 101.853 19.36 102.347 17.8C102.467 17.4133 102.66 17.1333 102.927 16.96C103.207 16.7733 103.593 16.68 104.087 16.68C104.353 16.68 104.54 16.7133 104.647 16.78C104.753 16.8467 104.807 16.9733 104.807 17.16C104.807 17.3733 104.707 17.8533 104.507 18.6C104.373 19.1333 104.267 19.6 104.187 20C104.107 20.4 104.04 20.8933 103.987 21.48C104.427 20.3333 104.92 19.4 105.467 18.68C106.013 17.96 106.547 17.4467 107.067 17.14C107.6 16.8333 108.087 16.68 108.527 16.68C108.953 16.68 109.273 16.7933 109.487 17.02C109.713 17.2333 109.827 17.5533 109.827 17.98C109.827 18.3267 109.753 18.98 109.607 19.94C109.473 20.7533 109.367 21.5267 109.287 22.26C109.207 22.98 109.167 23.7867 109.167 24.68C109.167 25.1867 109.06 25.5533 108.847 25.78C108.647 25.9933 108.313 26.1 107.847 26.1C107.407 26.1 107.087 25.9867 106.887 25.76C106.687 25.5333 106.587 25.1933 106.587 24.74C106.587 24.2067 106.68 23.3267 106.867 22.1C107.027 21.0333 107.107 20.3533 107.107 20.06C107.107 19.8467 107.033 19.74 106.887 19.74C106.713 19.74 106.467 19.9667 106.147 20.42C105.84 20.86 105.52 21.4467 105.187 22.18C104.867 22.9133 104.607 23.6867 104.407 24.5C104.26 25.1267 104.087 25.5533 103.887 25.78C103.7 25.9933 103.4 26.1 102.987 26.1ZM111.894 21.08C111.574 21.1067 111.314 21.0133 111.114 20.8C110.927 20.5867 110.834 20.2867 110.834 19.9C110.834 19.54 110.921 19.2733 111.094 19.1C111.281 18.9267 111.547 18.8267 111.894 18.8L115.994 18.4C116.327 18.3733 116.581 18.46 116.754 18.66C116.941 18.8467 117.034 19.1267 117.034 19.5C117.034 20.22 116.687 20.6133 115.994 20.68L111.894 21.08ZM132.789 9.4C133.202 9.48 133.509 9.62 133.709 9.82C133.922 10.02 134.029 10.2533 134.029 10.52C134.029 10.96 133.902 11.28 133.649 11.48C133.409 11.68 133.022 11.76 132.489 11.72C131.289 11.6267 130.349 11.5667 129.669 11.54C129.002 11.5 128.122 11.4733 127.029 11.46C126.536 13.9133 126.082 16.38 125.669 18.86C125.522 19.7667 125.369 20.82 125.209 22.02C125.049 23.2067 124.942 24.1667 124.889 24.9C124.862 25.2867 124.702 25.5867 124.409 25.8C124.116 26 123.762 26.1 123.349 26.1C122.909 26.1 122.569 25.9933 122.329 25.78C122.089 25.5667 121.969 25.2867 121.969 24.94C121.969 24.62 122.016 24.0933 122.109 23.36C122.216 22.6133 122.336 21.8333 122.469 21.02C122.616 20.2067 122.729 19.5 122.809 18.9C122.956 17.8867 123.122 16.88 123.309 15.88C123.496 14.88 123.682 13.9333 123.869 13.04C123.909 12.84 123.956 12.6133 124.009 12.36C124.062 12.0933 124.122 11.8 124.189 11.48C122.882 11.52 121.856 11.6267 121.109 11.8C120.362 11.9733 119.829 12.22 119.509 12.54C119.202 12.8467 119.049 13.2467 119.049 13.74C119.049 14.1933 119.182 14.6267 119.449 15.04C119.502 15.1333 119.529 15.2333 119.529 15.34C119.529 15.5933 119.376 15.8333 119.069 16.06C118.776 16.2733 118.469 16.38 118.149 16.38C117.922 16.38 117.736 16.3133 117.589 16.18C117.322 15.9533 117.102 15.6333 116.929 15.22C116.756 14.7933 116.669 14.3133 116.669 13.78C116.669 12.6467 117.036 11.74 117.769 11.06C118.516 10.3667 119.642 9.86 121.149 9.54C122.669 9.22 124.616 9.06 126.989 9.06C128.456 9.06 129.622 9.08667 130.489 9.14C131.369 9.19333 132.136 9.28 132.789 9.4ZM131.858 26.1C131.071 26.1 130.398 25.9067 129.838 25.52C129.291 25.12 128.878 24.6 128.598 23.96C128.318 23.32 128.178 22.6333 128.178 21.9C128.178 20.8867 128.364 19.9867 128.738 19.2C129.124 18.4 129.644 17.78 130.298 17.34C130.951 16.8867 131.684 16.66 132.498 16.66C133.284 16.66 133.958 16.86 134.518 17.26C135.078 17.6467 135.498 18.16 135.778 18.8C136.058 19.44 136.198 20.1267 136.198 20.86C136.198 21.8733 136.004 22.78 135.618 23.58C135.231 24.3667 134.704 24.9867 134.038 25.44C133.384 25.88 132.658 26.1 131.858 26.1ZM132.078 23.94C132.531 23.94 132.911 23.6933 133.218 23.2C133.538 22.7067 133.698 21.9867 133.698 21.04C133.698 20.3067 133.564 19.7533 133.298 19.38C133.031 19.0067 132.711 18.82 132.338 18.82C131.858 18.82 131.458 19.0667 131.138 19.56C130.831 20.04 130.678 20.76 130.678 21.72C130.678 22.48 130.811 23.04 131.078 23.4C131.344 23.76 131.678 23.94 132.078 23.94ZM158.413 9.42C158.786 9.47333 159.04 9.58667 159.173 9.76C159.32 9.93333 159.393 10.16 159.393 10.44C159.393 11.36 158.9 11.7867 157.913 11.72L157.213 11.66C156.426 11.5933 155.64 11.54 154.853 11.5C154.08 11.46 153.266 11.44 152.413 11.44H151.513C151.353 13.4133 151.186 15.2133 151.013 16.84L154.453 16.78C154.946 16.78 155.273 16.8667 155.433 17.04C155.606 17.2133 155.693 17.4467 155.693 17.74C155.693 18.1933 155.56 18.5533 155.293 18.82C155.026 19.0733 154.646 19.2 154.153 19.2H150.733L150.613 20.06C150.333 22.26 149.733 23.8267 148.813 24.76C147.906 25.6933 146.653 26.16 145.053 26.16C144.146 26.16 143.313 25.9667 142.553 25.58C141.793 25.18 141.233 24.7 140.873 24.14C140.726 23.9133 140.653 23.64 140.653 23.32C140.653 23 140.726 22.72 140.873 22.48C141.033 22.24 141.226 22.12 141.453 22.12C141.613 22.12 141.766 22.1733 141.913 22.28C142.073 22.3867 142.273 22.5933 142.513 22.9C143.153 23.74 143.946 24.16 144.893 24.16C145.653 24.16 146.286 23.8533 146.793 23.24C147.313 22.6133 147.646 21.6333 147.793 20.3L147.913 19.2H146.953C146.646 19.2 146.38 19.1133 146.153 18.94C145.94 18.7667 145.833 18.52 145.833 18.2C145.833 17.7867 145.94 17.4733 146.153 17.26C146.366 17.0333 146.68 16.92 147.093 16.92C147.466 16.92 147.833 16.9133 148.193 16.9C148.353 15.4333 148.526 13.6533 148.713 11.56C147.273 11.6933 146.26 11.9267 145.673 12.26C145.086 12.5933 144.793 13.0867 144.793 13.74C144.793 14.1933 144.926 14.6267 145.193 15.04C145.273 15.16 145.313 15.28 145.313 15.4C145.313 15.64 145.18 15.8533 144.913 16.04C144.646 16.2133 144.346 16.3 144.013 16.3C143.653 16.3 143.346 16.1933 143.093 15.98C142.933 15.8467 142.78 15.5733 142.633 15.16C142.486 14.7467 142.413 14.2867 142.413 13.78C142.413 12.1267 143.26 10.9267 144.953 10.18C146.66 9.43333 149.146 9.06 152.413 9.06C154.68 9.06 156.68 9.18 158.413 9.42ZM156.691 26.1C156.185 26.1 155.825 25.8333 155.611 25.3C155.411 24.7667 155.311 23.9133 155.311 22.74C155.311 21.0067 155.558 19.36 156.051 17.8C156.171 17.4133 156.365 17.1333 156.631 16.96C156.911 16.7733 157.298 16.68 157.791 16.68C158.058 16.68 158.245 16.7133 158.351 16.78C158.458 16.8467 158.511 16.9733 158.511 17.16C158.511 17.3733 158.411 17.8533 158.211 18.6C158.078 19.1333 157.971 19.6 157.891 20C157.811 20.4 157.745 20.8933 157.691 21.48C158.131 20.3333 158.625 19.4 159.171 18.68C159.718 17.96 160.251 17.4467 160.771 17.14C161.305 16.8333 161.791 16.68 162.231 16.68C163.098 16.68 163.531 17.1133 163.531 17.98C163.531 18.1533 163.471 18.5733 163.351 19.24C163.245 19.7733 163.191 20.1067 163.191 20.24C163.191 20.7067 163.358 20.94 163.691 20.94C164.065 20.94 164.545 20.6467 165.131 20.06C165.305 19.8867 165.485 19.8 165.671 19.8C165.845 19.8 165.978 19.88 166.071 20.04C166.178 20.1867 166.231 20.3867 166.231 20.64C166.231 21.1333 166.098 21.52 165.831 21.8C165.458 22.1867 165.018 22.52 164.511 22.8C164.018 23.0667 163.491 23.2 162.931 23.2C162.225 23.2 161.685 23.02 161.311 22.66C160.951 22.3 160.771 21.8133 160.771 21.2C160.771 21 160.791 20.8 160.831 20.6C160.858 20.3333 160.871 20.1533 160.871 20.06C160.871 19.8467 160.798 19.74 160.651 19.74C160.451 19.74 160.185 19.9667 159.851 20.42C159.531 20.86 159.211 21.4467 158.891 22.18C158.571 22.9133 158.311 23.6867 158.111 24.5C157.965 25.1267 157.791 25.5533 157.591 25.78C157.405 25.9933 157.105 26.1 156.691 26.1ZM165.813 26.1C165.213 26.1 164.72 25.8267 164.333 25.28C163.96 24.72 163.773 24.0267 163.773 23.2C163.773 22.2 163.84 21.2867 163.973 20.46C164.106 19.62 164.326 18.7333 164.633 17.8C164.766 17.4 164.953 17.1133 165.193 16.94C165.433 16.7667 165.813 16.68 166.333 16.68C166.626 16.68 166.826 16.7267 166.933 16.82C167.053 16.9133 167.113 17.0533 167.113 17.24C167.113 17.3467 167.04 17.7067 166.893 18.32C166.76 18.8133 166.653 19.26 166.573 19.66C166.306 21.06 166.173 21.9933 166.173 22.46C166.173 22.74 166.206 22.94 166.273 23.06C166.34 23.1667 166.446 23.22 166.593 23.22C166.793 23.22 167.04 23.02 167.333 22.62C167.64 22.22 167.96 21.6133 168.293 20.8C168.64 19.9867 168.973 18.9867 169.293 17.8C169.4 17.4 169.56 17.1133 169.773 16.94C170 16.7667 170.333 16.68 170.773 16.68C171.08 16.68 171.293 16.72 171.413 16.8C171.533 16.8667 171.593 17 171.593 17.2C171.593 17.5333 171.426 18.4467 171.093 19.94C170.72 21.6467 170.533 22.7 170.533 23.1C170.533 23.3533 170.586 23.5533 170.693 23.7C170.8 23.8333 170.94 23.9 171.113 23.9C171.38 23.9 171.693 23.74 172.053 23.42C172.426 23.0867 172.92 22.5533 173.533 21.82C173.693 21.6333 173.873 21.54 174.073 21.54C174.246 21.54 174.38 21.62 174.473 21.78C174.58 21.94 174.633 22.16 174.633 22.44C174.633 22.9733 174.506 23.3867 174.253 23.68C173.68 24.3867 173.06 24.9667 172.393 25.42C171.74 25.8733 170.993 26.1 170.153 26.1C169.513 26.1 169.04 25.8533 168.733 25.36C168.44 24.8667 168.293 24.1733 168.293 23.28C168.066 24.1867 167.726 24.8867 167.273 25.38C166.82 25.86 166.333 26.1 165.813 26.1ZM176.131 26.54C175.438 26.54 174.905 26.38 174.531 26.06C174.171 25.74 173.991 25.38 173.991 24.98C173.991 24.6333 174.118 24.3333 174.371 24.08C174.625 23.8267 174.998 23.7 175.491 23.7C175.665 23.7 175.865 23.72 176.091 23.76C176.331 23.7867 176.511 23.8067 176.631 23.82C176.618 23.4733 176.538 23.1467 176.391 22.84C176.258 22.5333 176.085 22.24 175.871 21.96C175.658 21.6667 175.458 21.4133 175.271 21.2C174.858 21.9867 174.445 22.64 174.031 23.16C173.631 23.68 173.191 24.1733 172.711 24.64C172.471 24.88 172.218 25 171.951 25C171.738 25 171.565 24.9267 171.431 24.78C171.298 24.62 171.231 24.4267 171.231 24.2C171.231 23.9333 171.325 23.6867 171.511 23.46L171.771 23.14C172.505 22.2333 173.058 21.4867 173.431 20.9C173.658 20.5133 173.925 20 174.231 19.36C174.538 18.7067 174.838 18.0333 175.131 17.34C175.385 16.7533 175.911 16.46 176.711 16.46C177.085 16.46 177.345 16.4933 177.491 16.56C177.638 16.6267 177.711 16.7333 177.711 16.88C177.711 16.96 177.685 17.0867 177.631 17.26C177.578 17.4333 177.505 17.6067 177.411 17.78C177.171 18.26 177.051 18.6667 177.051 19C177.051 19.2 177.118 19.42 177.251 19.66C177.398 19.9 177.618 20.2 177.911 20.56C178.338 21.12 178.658 21.6 178.871 22C179.098 22.3867 179.211 22.8133 179.211 23.28C179.211 23.4133 179.198 23.6 179.171 23.84C179.825 23.5867 180.591 22.9133 181.471 21.82C181.631 21.6333 181.811 21.54 182.011 21.54C182.185 21.54 182.318 21.62 182.411 21.78C182.518 21.94 182.571 22.16 182.571 22.44C182.571 22.9467 182.445 23.36 182.191 23.68C181.525 24.5067 180.885 25.0733 180.271 25.38C179.671 25.6733 178.925 25.8333 178.031 25.86C177.498 26.3133 176.865 26.54 176.131 26.54ZM189.266 21.54C189.44 21.54 189.573 21.62 189.666 21.78C189.773 21.94 189.826 22.16 189.826 22.44C189.826 22.9733 189.7 23.3867 189.446 23.68C188.873 24.3867 188.246 24.9667 187.566 25.42C186.886 25.8733 186.106 26.1 185.226 26.1C182.506 26.1 181.146 24.1867 181.146 20.36C181.146 19.7733 181.166 19.18 181.206 18.58H180.426C180.026 18.58 179.753 18.5067 179.606 18.36C179.473 18.2133 179.406 17.98 179.406 17.66C179.406 16.9133 179.706 16.54 180.306 16.54H181.446C181.673 15.0733 182.02 13.7333 182.486 12.52C182.953 11.3067 183.513 10.34 184.166 9.62C184.833 8.9 185.546 8.54 186.306 8.54C186.866 8.54 187.306 8.78667 187.626 9.28C187.946 9.77333 188.106 10.3933 188.106 11.14C188.106 13.2067 187.24 15.0067 185.506 16.54H187.746C187.96 16.54 188.113 16.5867 188.206 16.68C188.3 16.7733 188.346 16.9467 188.346 17.2C188.346 18.12 187.593 18.58 186.086 18.58H183.646C183.62 19.2467 183.606 19.7667 183.606 20.14C183.606 21.5267 183.766 22.5 184.086 23.06C184.42 23.62 184.94 23.9 185.646 23.9C186.22 23.9 186.726 23.7267 187.166 23.38C187.606 23.0333 188.126 22.5133 188.726 21.82C188.886 21.6333 189.066 21.54 189.266 21.54ZM185.766 10.46C185.566 10.46 185.34 10.7133 185.086 11.22C184.846 11.7133 184.613 12.4067 184.386 13.3C184.173 14.18 183.993 15.16 183.846 16.24C184.633 15.56 185.22 14.8 185.606 13.96C186.006 13.1067 186.206 12.3333 186.206 11.64C186.206 10.8533 186.06 10.46 185.766 10.46ZM189.018 26.1C188.511 26.1 188.151 25.8333 187.938 25.3C187.738 24.7667 187.638 23.9133 187.638 22.74C187.638 21.0067 187.885 19.36 188.378 17.8C188.498 17.4133 188.691 17.1333 188.958 16.96C189.238 16.7733 189.625 16.68 190.118 16.68C190.385 16.68 190.571 16.7133 190.678 16.78C190.785 16.8467 190.838 16.9733 190.838 17.16C190.838 17.3733 190.738 17.8533 190.538 18.6C190.405 19.1333 190.298 19.6 190.218 20C190.138 20.4 190.071 20.8933 190.018 21.48C190.458 20.3333 190.951 19.4 191.498 18.68C192.045 17.96 192.578 17.4467 193.098 17.14C193.631 16.8333 194.118 16.68 194.558 16.68C195.425 16.68 195.858 17.1133 195.858 17.98C195.858 18.1533 195.798 18.5733 195.678 19.24C195.571 19.7733 195.518 20.1067 195.518 20.24C195.518 20.7067 195.685 20.94 196.018 20.94C196.391 20.94 196.871 20.6467 197.458 20.06C197.631 19.8867 197.811 19.8 197.998 19.8C198.171 19.8 198.305 19.88 198.398 20.04C198.505 20.1867 198.558 20.3867 198.558 20.64C198.558 21.1333 198.425 21.52 198.158 21.8C197.785 22.1867 197.345 22.52 196.838 22.8C196.345 23.0667 195.818 23.2 195.258 23.2C194.551 23.2 194.011 23.02 193.638 22.66C193.278 22.3 193.098 21.8133 193.098 21.2C193.098 21 193.118 20.8 193.158 20.6C193.185 20.3333 193.198 20.1533 193.198 20.06C193.198 19.8467 193.125 19.74 192.978 19.74C192.778 19.74 192.511 19.9667 192.178 20.42C191.858 20.86 191.538 21.4467 191.218 22.18C190.898 22.9133 190.638 23.6867 190.438 24.5C190.291 25.1267 190.118 25.5533 189.918 25.78C189.731 25.9933 189.431 26.1 189.018 26.1ZM198.559 26.1C197.733 26.1 197.073 25.8 196.579 25.2C196.086 24.6 195.839 23.8133 195.839 22.84C195.839 21.7733 196.086 20.7667 196.579 19.82C197.073 18.86 197.726 18.0933 198.539 17.52C199.366 16.9333 200.239 16.64 201.159 16.64C201.453 16.64 201.646 16.7 201.739 16.82C201.846 16.9267 201.933 17.1267 201.999 17.42C202.279 17.3667 202.573 17.34 202.879 17.34C203.533 17.34 203.859 17.5733 203.859 18.04C203.859 18.32 203.759 18.9867 203.559 20.04C203.253 21.5733 203.099 22.64 203.099 23.24C203.099 23.44 203.146 23.6 203.239 23.72C203.346 23.84 203.479 23.9 203.639 23.9C203.893 23.9 204.199 23.74 204.559 23.42C204.919 23.0867 205.406 22.5533 206.019 21.82C206.179 21.6333 206.359 21.54 206.559 21.54C206.733 21.54 206.866 21.62 206.959 21.78C207.066 21.94 207.119 22.16 207.119 22.44C207.119 22.9733 206.993 23.3867 206.739 23.68C206.193 24.36 205.613 24.9333 204.999 25.4C204.386 25.8667 203.793 26.1 203.219 26.1C202.779 26.1 202.373 25.9533 201.999 25.66C201.639 25.3533 201.366 24.94 201.179 24.42C200.486 25.54 199.613 26.1 198.559 26.1ZM199.279 24.08C199.573 24.08 199.853 23.9067 200.119 23.56C200.386 23.2133 200.579 22.7533 200.699 22.18L201.439 18.5C200.879 18.5133 200.359 18.7267 199.879 19.14C199.413 19.54 199.039 20.0733 198.759 20.74C198.479 21.4067 198.339 22.1133 198.339 22.86C198.339 23.2733 198.419 23.58 198.579 23.78C198.753 23.98 198.986 24.08 199.279 24.08ZM213.814 21.54C213.987 21.54 214.121 21.62 214.214 21.78C214.321 21.94 214.374 22.16 214.374 22.44C214.374 22.9733 214.247 23.3867 213.994 23.68C213.421 24.3867 212.794 24.9667 212.114 25.42C211.434 25.8733 210.654 26.1 209.774 26.1C207.054 26.1 205.694 24.1867 205.694 20.36C205.694 19.7733 205.714 19.18 205.754 18.58H204.974C204.574 18.58 204.301 18.5067 204.154 18.36C204.021 18.2133 203.954 17.98 203.954 17.66C203.954 16.9133 204.254 16.54 204.854 16.54H205.994C206.221 15.0733 206.567 13.7333 207.034 12.52C207.501 11.3067 208.061 10.34 208.714 9.62C209.381 8.9 210.094 8.54 210.854 8.54C211.414 8.54 211.854 8.78667 212.174 9.28C212.494 9.77333 212.654 10.3933 212.654 11.14C212.654 13.2067 211.787 15.0067 210.054 16.54H212.294C212.507 16.54 212.661 16.5867 212.754 16.68C212.847 16.7733 212.894 16.9467 212.894 17.2C212.894 18.12 212.141 18.58 210.634 18.58H208.194C208.167 19.2467 208.154 19.7667 208.154 20.14C208.154 21.5267 208.314 22.5 208.634 23.06C208.967 23.62 209.487 23.9 210.194 23.9C210.767 23.9 211.274 23.7267 211.714 23.38C212.154 23.0333 212.674 22.5133 213.274 21.82C213.434 21.6333 213.614 21.54 213.814 21.54ZM210.314 10.46C210.114 10.46 209.887 10.7133 209.634 11.22C209.394 11.7133 209.161 12.4067 208.934 13.3C208.721 14.18 208.541 15.16 208.394 16.24C209.181 15.56 209.767 14.8 210.154 13.96C210.554 13.1067 210.754 12.3333 210.754 11.64C210.754 10.8533 210.607 10.46 210.314 10.46ZM214.766 15.36C214.206 15.36 213.786 15.2333 213.506 14.98C213.226 14.7133 213.086 14.3467 213.086 13.88C213.086 13.4133 213.266 13.0267 213.626 12.72C213.999 12.4 214.459 12.24 215.006 12.24C215.499 12.24 215.899 12.36 216.206 12.6C216.512 12.84 216.666 13.18 216.666 13.62C216.666 14.1533 216.492 14.58 216.146 14.9C215.799 15.2067 215.339 15.36 214.766 15.36ZM214.606 26.1C213.739 26.1 213.106 25.7933 212.706 25.18C212.319 24.5667 212.126 23.7533 212.126 22.74C212.126 22.14 212.199 21.3733 212.346 20.44C212.506 19.4933 212.706 18.6133 212.946 17.8C213.066 17.3733 213.226 17.08 213.426 16.92C213.626 16.76 213.946 16.68 214.386 16.68C215.066 16.68 215.406 16.9067 215.406 17.36C215.406 17.6933 215.279 18.4667 215.026 19.68C214.706 21.1467 214.546 22.14 214.546 22.66C214.546 23.06 214.599 23.3667 214.706 23.58C214.812 23.7933 214.992 23.9 215.246 23.9C215.486 23.9 215.786 23.7333 216.146 23.4C216.506 23.0667 216.986 22.54 217.586 21.82C217.746 21.6333 217.926 21.54 218.126 21.54C218.299 21.54 218.432 21.62 218.526 21.78C218.632 21.94 218.686 22.16 218.686 22.44C218.686 22.9733 218.559 23.3867 218.306 23.68C216.986 25.2933 215.752 26.1 214.606 26.1ZM226.667 19.86C226.841 19.86 226.974 19.9467 227.067 20.12C227.161 20.2933 227.207 20.5133 227.207 20.78C227.207 21.42 227.014 21.8 226.627 21.92C225.827 22.2 224.947 22.36 223.987 22.4C223.734 23.52 223.234 24.42 222.487 25.1C221.741 25.7667 220.894 26.1 219.947 26.1C219.147 26.1 218.461 25.9067 217.887 25.52C217.327 25.1333 216.901 24.62 216.607 23.98C216.314 23.34 216.167 22.6467 216.167 21.9C216.167 20.8867 216.361 19.9867 216.747 19.2C217.134 18.4 217.667 17.78 218.347 17.34C219.027 16.8867 219.781 16.66 220.607 16.66C221.621 16.66 222.434 17.0133 223.047 17.72C223.674 18.4133 224.041 19.2733 224.147 20.3C224.774 20.26 225.521 20.1267 226.387 19.9C226.494 19.8733 226.587 19.86 226.667 19.86ZM220.107 23.98C220.534 23.98 220.901 23.8067 221.207 23.46C221.527 23.1133 221.741 22.6133 221.847 21.96C221.434 21.68 221.114 21.3133 220.887 20.86C220.674 20.4067 220.567 19.9267 220.567 19.42C220.567 19.2067 220.587 18.9933 220.627 18.78H220.527C219.994 18.78 219.547 19.04 219.187 19.56C218.841 20.0667 218.667 20.7867 218.667 21.72C218.667 22.4533 218.807 23.0133 219.087 23.4C219.381 23.7867 219.721 23.98 220.107 23.98ZM226.311 26.1C225.804 26.1 225.444 25.8333 225.231 25.3C225.031 24.7667 224.931 23.9133 224.931 22.74C224.931 21.0067 225.178 19.36 225.671 17.8C225.791 17.4133 225.984 17.1333 226.251 16.96C226.531 16.7733 226.918 16.68 227.411 16.68C227.678 16.68 227.864 16.7133 227.971 16.78C228.078 16.8467 228.131 16.9733 228.131 17.16C228.131 17.3733 228.031 17.8533 227.831 18.6C227.698 19.1333 227.591 19.6 227.511 20C227.431 20.4 227.364 20.8933 227.311 21.48C227.751 20.3333 228.244 19.4 228.791 18.68C229.338 17.96 229.871 17.4467 230.391 17.14C230.924 16.8333 231.411 16.68 231.851 16.68C232.718 16.68 233.151 17.1133 233.151 17.98C233.151 18.5 233.004 19.44 232.711 20.8C232.458 21.96 232.331 22.7267 232.331 23.1C232.331 23.6333 232.524 23.9 232.911 23.9C233.178 23.9 233.491 23.74 233.851 23.42C234.224 23.0867 234.718 22.5533 235.331 21.82C235.491 21.6333 235.671 21.54 235.871 21.54C236.044 21.54 236.178 21.62 236.271 21.78C236.378 21.94 236.431 22.16 236.431 22.44C236.431 22.9733 236.304 23.3867 236.051 23.68C235.478 24.3867 234.858 24.9667 234.191 25.42C233.538 25.8733 232.791 26.1 231.951 26.1C231.271 26.1 230.758 25.9067 230.411 25.52C230.064 25.12 229.891 24.5467 229.891 23.8C229.891 23.4267 229.984 22.76 230.171 21.8C230.344 20.96 230.431 20.38 230.431 20.06C230.431 19.8467 230.358 19.74 230.211 19.74C230.038 19.74 229.791 19.9667 229.471 20.42C229.164 20.86 228.844 21.4467 228.511 22.18C228.191 22.9133 227.931 23.6867 227.731 24.5C227.584 25.1267 227.411 25.5533 227.211 25.78C227.024 25.9933 226.724 26.1 226.311 26.1ZM237.933 26.54C237.239 26.54 236.706 26.38 236.333 26.06C235.973 25.74 235.793 25.38 235.793 24.98C235.793 24.6333 235.919 24.3333 236.173 24.08C236.426 23.8267 236.799 23.7 237.293 23.7C237.466 23.7 237.666 23.72 237.893 23.76C238.133 23.7867 238.313 23.8067 238.433 23.82C238.419 23.4733 238.339 23.1467 238.193 22.84C238.059 22.5333 237.886 22.24 237.673 21.96C237.459 21.6667 237.259 21.4133 237.073 21.2C236.659 21.9867 236.246 22.64 235.833 23.16C235.433 23.68 234.993 24.1733 234.513 24.64C234.273 24.88 234.019 25 233.753 25C233.539 25 233.366 24.9267 233.233 24.78C233.099 24.62 233.033 24.4267 233.033 24.2C233.033 23.9333 233.126 23.6867 233.313 23.46L233.573 23.14C234.306 22.2333 234.859 21.4867 235.233 20.9C235.473 20.5133 235.713 20.0533 235.953 19.52C236.206 18.9867 236.533 18.26 236.933 17.34C237.186 16.7533 237.713 16.46 238.513 16.46C238.886 16.46 239.146 16.4933 239.293 16.56C239.439 16.6267 239.513 16.7333 239.513 16.88C239.513 16.96 239.486 17.0867 239.433 17.26C239.379 17.4333 239.306 17.6067 239.213 17.78C238.973 18.26 238.853 18.6667 238.853 19C238.853 19.2 238.919 19.42 239.053 19.66C239.199 19.9 239.419 20.2 239.713 20.56C240.139 21.12 240.459 21.6 240.673 22C240.899 22.3867 241.013 22.8133 241.013 23.28C241.013 23.84 240.879 24.3733 240.613 24.88C240.359 25.3733 239.999 25.7733 239.533 26.08C239.066 26.3867 238.533 26.54 237.933 26.54ZM244.329 21.32C244.063 21.32 243.843 21.26 243.669 21.14C243.496 21.02 243.409 20.8333 243.409 20.58L243.429 20.42C243.656 18.9267 243.963 17.2267 244.349 15.32C244.736 13.4133 245.096 11.7667 245.429 10.38C245.643 9.52667 246.223 9.1 247.169 9.1C248.023 9.1 248.449 9.37333 248.449 9.92C248.449 10.04 248.429 10.1733 248.389 10.32C248.043 11.7333 247.583 13.4467 247.009 15.46C246.436 17.46 245.889 19.2 245.369 20.68C245.223 21.1067 244.876 21.32 244.329 21.32ZM243.569 26.1C242.983 26.1 242.536 25.94 242.229 25.62C241.936 25.3 241.789 24.88 241.789 24.36C241.789 23.76 241.956 23.28 242.289 22.92C242.636 22.56 243.116 22.38 243.729 22.38C244.316 22.38 244.756 22.5267 245.049 22.82C245.356 23.1 245.509 23.52 245.509 24.08C245.509 24.6933 245.336 25.1867 244.989 25.56C244.643 25.92 244.169 26.1 243.569 26.1Z" fill="#3D3D3D"/>
</svg>
