<svg width="331" height="93" viewBox="0 0 331 93" fill="none" xmlns="http://www.w3.org/2000/svg">
<path d="M61.768 29.944C62.9627 30.1147 63.7733 30.4773 64.2 31.032C64.6693 31.5867 64.904 32.312 64.904 33.208C64.904 36.152 63.3253 37.5173 60.168 37.304L57.928 37.112C55.4107 36.8987 52.8933 36.728 50.376 36.6C47.9013 36.472 45.2987 36.408 42.568 36.408H39.688C39.176 42.7227 38.6427 48.4827 38.088 53.688L49.096 53.496C50.6747 53.496 51.72 53.7733 52.232 54.328C52.7867 54.8827 53.064 55.6293 53.064 56.568C53.064 58.0187 52.6373 59.1707 51.784 60.024C50.9307 60.8347 49.7147 61.24 48.136 61.24H37.192L36.808 63.992C35.912 71.032 33.992 76.0453 31.048 79.032C28.1467 82.0187 24.136 83.512 19.016 83.512C16.1147 83.512 13.448 82.8933 11.016 81.656C8.584 80.376 6.792 78.84 5.64 77.048C5.17067 76.3227 4.936 75.448 4.936 74.424C4.936 73.4 5.17067 72.504 5.64 71.736C6.152 70.968 6.77067 70.584 7.496 70.584C8.008 70.584 8.49867 70.7547 8.968 71.096C9.48 71.4373 10.12 72.0987 10.888 73.08C12.936 75.768 15.4747 77.112 18.504 77.112C20.936 77.112 22.9627 76.1307 24.584 74.168C26.248 72.1627 27.3147 69.0267 27.784 64.76L28.168 61.24H25.096C24.1147 61.24 23.2613 60.9627 22.536 60.408C21.8533 59.8533 21.512 59.064 21.512 58.04C21.512 56.7173 21.8533 55.7147 22.536 55.032C23.2187 54.3067 24.2213 53.944 25.544 53.944C26.7387 53.944 27.912 53.9227 29.064 53.88C29.576 49.1867 30.1307 43.4907 30.728 36.792C26.12 37.2187 22.8773 37.9653 21 39.032C19.1227 40.0987 18.184 41.6773 18.184 43.768C18.184 45.2187 18.6107 46.6053 19.464 47.928C19.72 48.312 19.848 48.696 19.848 49.08C19.848 49.848 19.4213 50.5307 18.568 51.128C17.7147 51.6827 16.7547 51.96 15.688 51.96C14.536 51.96 13.5547 51.6187 12.744 50.936C12.232 50.5093 11.7413 49.6347 11.272 48.312C10.8027 46.9893 10.568 45.5173 10.568 43.896C10.568 38.6053 13.2773 34.7653 18.696 32.376C24.1573 29.9867 32.1147 28.792 42.568 28.792C49.8213 28.792 56.2213 29.176 61.768 29.944ZM56.2585 83.32C54.6372 83.32 53.4852 82.4667 52.8025 80.76C52.1625 79.0533 51.8425 76.3227 51.8425 72.568C51.8425 67.0213 52.6318 61.752 54.2105 56.76C54.5945 55.5227 55.2132 54.6267 56.0665 54.072C56.9625 53.4747 58.1998 53.176 59.7785 53.176C60.6318 53.176 61.2292 53.2827 61.5705 53.496C61.9118 53.7093 62.0825 54.1147 62.0825 54.712C62.0825 55.3947 61.7625 56.9307 61.1225 59.32C60.6958 61.0267 60.3545 62.52 60.0985 63.8C59.8425 65.08 59.6292 66.6587 59.4585 68.536C60.8665 64.8667 62.4452 61.88 64.1945 59.576C65.9438 57.272 67.6505 55.6293 69.3145 54.648C71.0212 53.6667 72.5785 53.176 73.9865 53.176C76.7598 53.176 78.1465 54.5627 78.1465 57.336C78.1465 57.8907 77.9545 59.2347 77.5705 61.368C77.2292 63.0747 77.0585 64.1413 77.0585 64.568C77.0585 66.0613 77.5918 66.808 78.6585 66.808C79.8532 66.808 81.3892 65.8693 83.2665 63.992C83.8212 63.4373 84.3972 63.16 84.9945 63.16C85.5492 63.16 85.9758 63.416 86.2745 63.928C86.6158 64.3973 86.7865 65.0373 86.7865 65.848C86.7865 67.4267 86.3598 68.664 85.5065 69.56C84.3118 70.7973 82.9038 71.864 81.2825 72.76C79.7038 73.6133 78.0185 74.04 76.2265 74.04C73.9652 74.04 72.2372 73.464 71.0425 72.312C69.8905 71.16 69.3145 69.6027 69.3145 67.64C69.3145 67 69.3785 66.36 69.5065 65.72C69.5918 64.8667 69.6345 64.2907 69.6345 63.992C69.6345 63.3093 69.3998 62.968 68.9305 62.968C68.2905 62.968 67.4372 63.6933 66.3705 65.144C65.3465 66.552 64.3225 68.4293 63.2985 70.776C62.2745 73.1227 61.4425 75.5973 60.8025 78.2C60.3332 80.2053 59.7785 81.5707 59.1385 82.296C58.5412 82.9787 57.5812 83.32 56.2585 83.32ZM85.4475 83.32C83.5275 83.32 81.9488 82.4453 80.7115 80.696C79.5168 78.904 78.9195 76.6853 78.9195 74.04C78.9195 70.84 79.1328 67.9173 79.5595 65.272C79.9862 62.584 80.6902 59.7467 81.6715 56.76C82.0982 55.48 82.6955 54.5627 83.4635 54.008C84.2315 53.4533 85.4475 53.176 87.1115 53.176C88.0502 53.176 88.6902 53.3253 89.0315 53.624C89.4155 53.9227 89.6075 54.3707 89.6075 54.968C89.6075 55.3093 89.3728 56.4613 88.9035 58.424C88.4768 60.0027 88.1355 61.432 87.8795 62.712C87.0262 67.192 86.5995 70.1787 86.5995 71.672C86.5995 72.568 86.7062 73.208 86.9195 73.592C87.1328 73.9333 87.4742 74.104 87.9435 74.104C88.5835 74.104 89.3728 73.464 90.3115 72.184C91.2928 70.904 92.3168 68.9627 93.3835 66.36C94.4928 63.7573 95.5595 60.5573 96.5835 56.76C96.9248 55.48 97.4368 54.5627 98.1195 54.008C98.8448 53.4533 99.9115 53.176 101.32 53.176C102.301 53.176 102.984 53.304 103.368 53.56C103.752 53.7733 103.944 54.2 103.944 54.84C103.944 55.9067 103.41 58.8293 102.344 63.608C101.149 69.0693 100.552 72.44 100.552 73.72C100.552 74.5307 100.722 75.1707 101.064 75.64C101.405 76.0667 101.853 76.28 102.408 76.28C103.261 76.28 104.264 75.768 105.416 74.744C106.61 73.6773 108.189 71.9707 110.152 69.624C110.664 69.0267 111.24 68.728 111.88 68.728C112.434 68.728 112.861 68.984 113.16 69.496C113.501 70.008 113.672 70.712 113.672 71.608C113.672 73.3147 113.266 74.6373 112.456 75.576C110.621 77.8373 108.637 79.6933 106.504 81.144C104.413 82.5947 102.024 83.32 99.3355 83.32C97.2875 83.32 95.7728 82.5307 94.7915 80.952C93.8528 79.3733 93.3835 77.1547 93.3835 74.296C92.6582 77.1973 91.5702 79.4373 90.1195 81.016C88.6688 82.552 87.1115 83.32 85.4475 83.32ZM118.466 84.728C116.247 84.728 114.541 84.216 113.346 83.192C112.194 82.168 111.618 81.016 111.618 79.736C111.618 78.6267 112.023 77.6667 112.834 76.856C113.645 76.0453 114.839 75.64 116.418 75.64C116.973 75.64 117.613 75.704 118.338 75.832C119.106 75.9173 119.682 75.9813 120.066 76.024C120.023 74.9147 119.767 73.8693 119.298 72.888C118.871 71.9067 118.317 70.968 117.634 70.072C116.951 69.1333 116.311 68.3227 115.714 67.64C114.391 70.1573 113.069 72.248 111.746 73.912C110.466 75.576 109.058 77.1547 107.522 78.648C106.754 79.416 105.943 79.8 105.09 79.8C104.407 79.8 103.853 79.5653 103.426 79.096C102.999 78.584 102.786 77.9653 102.786 77.24C102.786 76.3867 103.085 75.5973 103.682 74.872L104.514 73.848C106.861 70.9467 108.631 68.5573 109.826 66.68C110.551 65.4427 111.405 63.8 112.386 61.752C113.367 59.6613 114.327 57.5067 115.266 55.288C116.077 53.4107 117.762 52.472 120.322 52.472C121.517 52.472 122.349 52.5787 122.818 52.792C123.287 53.0053 123.522 53.3467 123.522 53.816C123.522 54.072 123.437 54.4773 123.266 55.032C123.095 55.5867 122.861 56.1413 122.562 56.696C121.794 58.232 121.41 59.5333 121.41 60.6C121.41 61.24 121.623 61.944 122.05 62.712C122.519 63.48 123.223 64.44 124.162 65.592C125.527 67.384 126.551 68.92 127.234 70.2C127.959 71.4373 128.322 72.8027 128.322 74.296C128.322 74.7227 128.279 75.32 128.194 76.088C130.285 75.2773 132.738 73.1227 135.554 69.624C136.066 69.0267 136.642 68.728 137.282 68.728C137.837 68.728 138.263 68.984 138.562 69.496C138.903 70.008 139.074 70.712 139.074 71.608C139.074 73.2293 138.669 74.552 137.858 75.576C135.725 78.2213 133.677 80.0347 131.714 81.016C129.794 81.9547 127.405 82.4667 124.546 82.552C122.839 84.0027 120.813 84.728 118.466 84.728ZM160.499 68.728C161.053 68.728 161.48 68.984 161.778 69.496C162.12 70.008 162.291 70.712 162.291 71.608C162.291 73.3147 161.885 74.6373 161.075 75.576C159.24 77.8373 157.235 79.6933 155.059 81.144C152.883 82.5947 150.387 83.32 147.571 83.32C138.867 83.32 134.515 77.1973 134.515 64.952C134.515 63.0747 134.579 61.176 134.707 59.256H132.21C130.93 59.256 130.056 59.0213 129.586 58.552C129.16 58.0827 128.946 57.336 128.946 56.312C128.946 53.9227 129.906 52.728 131.826 52.728H135.475C136.2 48.0347 137.309 43.7467 138.802 39.864C140.296 35.9813 142.088 32.888 144.179 30.584C146.312 28.28 148.595 27.128 151.027 27.128C152.819 27.128 154.227 27.9173 155.251 29.496C156.275 31.0747 156.787 33.0587 156.787 35.448C156.787 42.0613 154.013 47.8213 148.467 52.728H155.635C156.317 52.728 156.808 52.8773 157.107 53.176C157.405 53.4747 157.555 54.0293 157.555 54.84C157.555 57.784 155.144 59.256 150.323 59.256H142.515C142.429 61.3893 142.387 63.0533 142.387 64.248C142.387 68.6853 142.899 71.8 143.923 73.592C144.989 75.384 146.653 76.28 148.915 76.28C150.749 76.28 152.371 75.7253 153.779 74.616C155.187 73.5067 156.851 71.8427 158.771 69.624C159.283 69.0267 159.859 68.728 160.499 68.728ZM149.299 33.272C148.659 33.272 147.933 34.0827 147.123 35.704C146.355 37.2827 145.608 39.5013 144.882 42.36C144.2 45.176 143.624 48.312 143.155 51.768C145.672 49.592 147.549 47.16 148.787 44.472C150.067 41.7413 150.707 39.2667 150.707 37.048C150.707 34.5307 150.237 33.272 149.299 33.272ZM159.703 83.32C158.082 83.32 156.93 82.4667 156.247 80.76C155.607 79.0533 155.287 76.3227 155.287 72.568C155.287 67.0213 156.077 61.752 157.655 56.76C158.039 55.5227 158.658 54.6267 159.511 54.072C160.407 53.4747 161.645 53.176 163.223 53.176C164.077 53.176 164.674 53.2827 165.015 53.496C165.357 53.7093 165.527 54.1147 165.527 54.712C165.527 55.3947 165.207 56.9307 164.567 59.32C164.141 61.0267 163.799 62.52 163.543 63.8C163.287 65.08 163.074 66.6587 162.903 68.536C164.311 64.8667 165.89 61.88 167.639 59.576C169.389 57.272 171.095 55.6293 172.759 54.648C174.466 53.6667 176.023 53.176 177.431 53.176C180.205 53.176 181.591 54.5627 181.591 57.336C181.591 57.8907 181.399 59.2347 181.015 61.368C180.674 63.0747 180.503 64.1413 180.503 64.568C180.503 66.0613 181.037 66.808 182.103 66.808C183.298 66.808 184.834 65.8693 186.711 63.992C187.266 63.4373 187.842 63.16 188.439 63.16C188.994 63.16 189.421 63.416 189.719 63.928C190.061 64.3973 190.231 65.0373 190.231 65.848C190.231 67.4267 189.805 68.664 188.951 69.56C187.757 70.7973 186.349 71.864 184.727 72.76C183.149 73.6133 181.463 74.04 179.671 74.04C177.41 74.04 175.682 73.464 174.487 72.312C173.335 71.16 172.759 69.6027 172.759 67.64C172.759 67 172.823 66.36 172.951 65.72C173.037 64.8667 173.079 64.2907 173.079 63.992C173.079 63.3093 172.845 62.968 172.375 62.968C171.735 62.968 170.882 63.6933 169.815 65.144C168.791 66.552 167.767 68.4293 166.743 70.776C165.719 73.1227 164.887 75.5973 164.247 78.2C163.778 80.2053 163.223 81.5707 162.583 82.296C161.986 82.9787 161.026 83.32 159.703 83.32ZM190.236 83.32C187.591 83.32 185.479 82.36 183.9 80.44C182.322 78.52 181.532 76.0027 181.532 72.888C181.532 69.4747 182.322 66.2533 183.9 63.224C185.479 60.152 187.57 57.6987 190.172 55.864C192.818 53.9867 195.612 53.048 198.556 53.048C199.495 53.048 200.114 53.24 200.412 53.624C200.754 53.9653 201.031 54.6053 201.244 55.544C202.14 55.3733 203.079 55.288 204.06 55.288C206.151 55.288 207.196 56.0347 207.196 57.528C207.196 58.424 206.876 60.5573 206.236 63.928C205.255 68.8347 204.764 72.248 204.764 74.168C204.764 74.808 204.914 75.32 205.212 75.704C205.554 76.088 205.98 76.28 206.492 76.28C207.303 76.28 208.284 75.768 209.436 74.744C210.588 73.6773 212.146 71.9707 214.108 69.624C214.62 69.0267 215.196 68.728 215.836 68.728C216.391 68.728 216.818 68.984 217.116 69.496C217.458 70.008 217.628 70.712 217.628 71.608C217.628 73.3147 217.223 74.6373 216.412 75.576C214.663 77.752 212.807 79.5867 210.844 81.08C208.882 82.5733 206.983 83.32 205.148 83.32C203.74 83.32 202.439 82.8507 201.244 81.912C200.092 80.9307 199.218 79.608 198.62 77.944C196.402 81.528 193.607 83.32 190.236 83.32ZM192.54 76.856C193.479 76.856 194.375 76.3013 195.228 75.192C196.082 74.0827 196.7 72.6107 197.084 70.776L199.452 59C197.66 59.0427 195.996 59.7253 194.46 61.048C192.967 62.328 191.772 64.0347 190.876 66.168C189.98 68.3013 189.532 70.5627 189.532 72.952C189.532 74.2747 189.788 75.256 190.3 75.896C190.855 76.536 191.602 76.856 192.54 76.856ZM239.051 68.728C239.606 68.728 240.032 68.984 240.331 69.496C240.672 70.008 240.843 70.712 240.843 71.608C240.843 73.3147 240.438 74.6373 239.627 75.576C237.792 77.8373 235.787 79.6933 233.611 81.144C231.435 82.5947 228.939 83.32 226.123 83.32C217.419 83.32 213.067 77.1973 213.067 64.952C213.067 63.0747 213.131 61.176 213.259 59.256H210.763C209.483 59.256 208.608 59.0213 208.139 58.552C207.712 58.0827 207.499 57.336 207.499 56.312C207.499 53.9227 208.459 52.728 210.379 52.728H214.027C214.752 48.0347 215.862 43.7467 217.355 39.864C218.848 35.9813 220.64 32.888 222.731 30.584C224.864 28.28 227.147 27.128 229.579 27.128C231.371 27.128 232.779 27.9173 233.803 29.496C234.827 31.0747 235.339 33.0587 235.339 35.448C235.339 42.0613 232.566 47.8213 227.019 52.728H234.187C234.87 52.728 235.36 52.8773 235.659 53.176C235.958 53.4747 236.107 54.0293 236.107 54.84C236.107 57.784 233.696 59.256 228.875 59.256H221.067C220.982 61.3893 220.939 63.0533 220.939 64.248C220.939 68.6853 221.451 71.8 222.475 73.592C223.542 75.384 225.206 76.28 227.467 76.28C229.302 76.28 230.923 75.7253 232.331 74.616C233.739 73.5067 235.403 71.8427 237.323 69.624C237.835 69.0267 238.411 68.728 239.051 68.728ZM227.851 33.272C227.211 33.272 226.486 34.0827 225.675 35.704C224.907 37.2827 224.16 39.5013 223.435 42.36C222.752 45.176 222.176 48.312 221.707 51.768C224.224 49.592 226.102 47.16 227.339 44.472C228.619 41.7413 229.259 39.2667 229.259 37.048C229.259 34.5307 228.79 33.272 227.851 33.272ZM242.096 48.952C240.304 48.952 238.96 48.5467 238.064 47.736C237.168 46.8827 236.72 45.7093 236.72 44.216C236.72 42.7227 237.296 41.4853 238.448 40.504C239.643 39.48 241.115 38.968 242.864 38.968C244.443 38.968 245.723 39.352 246.704 40.12C247.685 40.888 248.176 41.976 248.176 43.384C248.176 45.0907 247.621 46.456 246.512 47.48C245.403 48.4613 243.931 48.952 242.096 48.952ZM241.584 83.32C238.811 83.32 236.784 82.3387 235.504 80.376C234.267 78.4133 233.648 75.8107 233.648 72.568C233.648 70.648 233.883 68.1947 234.352 65.208C234.864 62.1787 235.504 59.3627 236.272 56.76C236.656 55.3947 237.168 54.456 237.808 53.944C238.448 53.432 239.472 53.176 240.88 53.176C243.056 53.176 244.144 53.9013 244.144 55.352C244.144 56.4187 243.739 58.8933 242.928 62.776C241.904 67.4693 241.392 70.648 241.392 72.312C241.392 73.592 241.563 74.5733 241.904 75.256C242.245 75.9387 242.821 76.28 243.632 76.28C244.4 76.28 245.36 75.7467 246.512 74.68C247.664 73.6133 249.2 71.928 251.12 69.624C251.632 69.0267 252.208 68.728 252.848 68.728C253.403 68.728 253.829 68.984 254.128 69.496C254.469 70.008 254.64 70.712 254.64 71.608C254.64 73.3147 254.235 74.6373 253.424 75.576C249.2 80.7387 245.253 83.32 241.584 83.32ZM280.182 63.352C280.737 63.352 281.163 63.6293 281.462 64.184C281.761 64.7387 281.91 65.4427 281.91 66.296C281.91 68.344 281.291 69.56 280.054 69.944C277.494 70.84 274.678 71.352 271.606 71.48C270.795 75.064 269.195 77.944 266.806 80.12C264.417 82.2533 261.707 83.32 258.678 83.32C256.118 83.32 253.921 82.7013 252.086 81.464C250.294 80.2267 248.929 78.584 247.99 76.536C247.051 74.488 246.582 72.2693 246.582 69.88C246.582 66.6373 247.201 63.7573 248.438 61.24C249.675 58.68 251.382 56.696 253.558 55.288C255.734 53.8373 258.145 53.112 260.79 53.112C264.033 53.112 266.635 54.2427 268.598 56.504C270.603 58.7227 271.777 61.4747 272.118 64.76C274.123 64.632 276.513 64.2053 279.286 63.48C279.627 63.3947 279.926 63.352 280.182 63.352ZM259.19 76.536C260.555 76.536 261.729 75.9813 262.71 74.872C263.734 73.7627 264.417 72.1627 264.758 70.072C263.435 69.176 262.411 68.0027 261.686 66.552C261.003 65.1013 260.662 63.5653 260.662 61.944C260.662 61.2613 260.726 60.5787 260.854 59.896H260.534C258.827 59.896 257.398 60.728 256.246 62.392C255.137 64.0133 254.582 66.3173 254.582 69.304C254.582 71.6507 255.03 73.4427 255.926 74.68C256.865 75.9173 257.953 76.536 259.19 76.536ZM279.041 83.32C277.42 83.32 276.268 82.4667 275.585 80.76C274.945 79.0533 274.625 76.3227 274.625 72.568C274.625 67.0213 275.414 61.752 276.993 56.76C277.377 55.5227 277.996 54.6267 278.849 54.072C279.745 53.4747 280.982 53.176 282.561 53.176C283.414 53.176 284.012 53.2827 284.353 53.496C284.694 53.7093 284.865 54.1147 284.865 54.712C284.865 55.3947 284.545 56.9307 283.905 59.32C283.478 61.0267 283.137 62.52 282.881 63.8C282.625 65.08 282.412 66.6587 282.241 68.536C283.649 64.8667 285.228 61.88 286.977 59.576C288.726 57.272 290.433 55.6293 292.097 54.648C293.804 53.6667 295.361 53.176 296.769 53.176C299.542 53.176 300.929 54.5627 300.929 57.336C300.929 59 300.46 62.008 299.521 66.36C298.71 70.072 298.305 72.5253 298.305 73.72C298.305 75.4267 298.924 76.28 300.161 76.28C301.014 76.28 302.017 75.768 303.169 74.744C304.364 73.6773 305.942 71.9707 307.905 69.624C308.417 69.0267 308.993 68.728 309.633 68.728C310.188 68.728 310.614 68.984 310.913 69.496C311.254 70.008 311.425 70.712 311.425 71.608C311.425 73.3147 311.02 74.6373 310.209 75.576C308.374 77.8373 306.39 79.6933 304.257 81.144C302.166 82.5947 299.777 83.32 297.089 83.32C294.913 83.32 293.27 82.7013 292.161 81.464C291.052 80.184 290.497 78.3493 290.497 75.96C290.497 74.7653 290.796 72.632 291.393 69.56C291.948 66.872 292.225 65.016 292.225 63.992C292.225 63.3093 291.99 62.968 291.521 62.968C290.966 62.968 290.177 63.6933 289.153 65.144C288.172 66.552 287.148 68.4293 286.081 70.776C285.057 73.1227 284.225 75.5973 283.585 78.2C283.116 80.2053 282.561 81.5707 281.921 82.296C281.324 82.9787 280.364 83.32 279.041 83.32ZM316.231 84.728C314.012 84.728 312.306 84.216 311.111 83.192C309.959 82.168 309.383 81.016 309.383 79.736C309.383 78.6267 309.788 77.6667 310.599 76.856C311.41 76.0453 312.604 75.64 314.183 75.64C314.738 75.64 315.378 75.704 316.103 75.832C316.871 75.9173 317.447 75.9813 317.831 76.024C317.788 74.9147 317.532 73.8693 317.063 72.888C316.636 71.9067 316.082 70.968 315.399 70.072C314.716 69.1333 314.076 68.3227 313.479 67.64C312.156 70.1573 310.834 72.248 309.511 73.912C308.231 75.576 306.823 77.1547 305.287 78.648C304.519 79.416 303.708 79.8 302.855 79.8C302.172 79.8 301.618 79.5653 301.191 79.096C300.764 78.584 300.551 77.9653 300.551 77.24C300.551 76.3867 300.85 75.5973 301.447 74.872L302.279 73.848C304.626 70.9467 306.396 68.5573 307.591 66.68C308.359 65.4427 309.127 63.9707 309.895 62.264C310.706 60.5573 311.751 58.232 313.031 55.288C313.842 53.4107 315.527 52.472 318.087 52.472C319.282 52.472 320.114 52.5787 320.583 52.792C321.052 53.0053 321.287 53.3467 321.287 53.816C321.287 54.072 321.202 54.4773 321.031 55.032C320.86 55.5867 320.626 56.1413 320.327 56.696C319.559 58.232 319.175 59.5333 319.175 60.6C319.175 61.24 319.388 61.944 319.815 62.712C320.284 63.48 320.988 64.44 321.927 65.592C323.292 67.384 324.316 68.92 324.999 70.2C325.724 71.4373 326.087 72.8027 326.087 74.296C326.087 76.088 325.66 77.7947 324.807 79.416C323.996 80.9947 322.844 82.2747 321.351 83.256C319.858 84.2373 318.151 84.728 316.231 84.728Z" fill="url(#paint0_linear)"/>
<defs>
<linearGradient id="paint0_linear" x1="168" y1="0" x2="168" y2="74" gradientUnits="userSpaceOnUse">
<stop stop-color="#54FBFB"/>
<stop offset="1" stop-color="#7910FF"/>
</linearGradient>
</defs>
</svg>
