<svg width="59" height="74" viewBox="0 0 59 74" fill="none" xmlns="http://www.w3.org/2000/svg">
<path d="M52.4092 57.418C52.4092 57.7806 52.2053 58.1129 51.7974 58.4151C51.3895 58.7172 50.7625 58.9665 49.9165 59.1629C49.0705 59.3593 48.2019 59.5406 47.3106 59.7067C46.4192 59.8729 45.2786 60.0013 43.8888 60.092C42.4989 60.1826 41.2903 60.2506 40.2631 60.2959C39.2358 60.3412 37.9139 60.379 36.2974 60.4092C34.681 60.4394 33.4573 60.4545 32.6264 60.4545H25.7828L22.1118 60.4092L18.1462 60.2959L14.5204 60.092L11.0987 59.7067L8.49268 59.1629L6.61184 58.4151L6 57.418C6.06043 54.7591 7.72222 52.41 10.9854 50.3705C14.2485 48.331 18.3879 46.9789 23.4035 46.3142V44.8186C21.8323 44.1237 20.4727 43.1417 19.3245 41.8727C18.1764 40.6037 17.2699 39.1157 16.6052 37.4086C15.9405 35.7014 15.4571 33.8735 15.1549 31.9247C14.8528 29.9758 14.7017 27.8684 14.7017 25.6023C14.7017 23.6686 15.0794 21.9464 15.8348 20.4357C16.5901 18.9249 17.6325 17.7088 18.962 16.7873C20.2914 15.8657 21.8172 15.1708 23.5394 14.7025C25.2616 14.2342 27.15 14 29.2046 14C31.2592 14 33.1476 14.2342 34.8698 14.7025C36.592 15.1708 38.1178 15.8657 39.4473 16.7873C40.7767 17.7088 41.8191 18.9249 42.5745 20.4357C43.3298 21.9464 43.7075 23.6686 43.7075 25.6023C43.7075 36.1773 40.8069 42.613 35.0058 44.9093V46.3142C40.0213 46.9789 44.1607 48.331 47.4239 50.3705C50.687 52.41 52.3488 54.7591 52.4092 57.418Z" fill="url(#paint0_linear)"/>
<defs>
<linearGradient id="paint0_linear" x1="39.5" y1="16.5" x2="12" y2="60" gradientUnits="userSpaceOnUse">
<stop stop-color="#54FBFB"/>
<stop offset="0.0001" stop-color="#54FAFB"/>
<stop offset="1" stop-color="#7910FF"/>
</linearGradient>
</defs>
</svg>
