<svg width="129" height="137" viewBox="0 0 129 137" fill="none" xmlns="http://www.w3.org/2000/svg">
<g clip-path="url(#clip0)">
<path d="M102.011 32.2204C103.695 32.461 104.838 32.9721 105.439 33.7539C106.101 34.5357 106.431 35.558 106.431 36.8209C106.431 40.9703 104.206 42.8946 99.7563 42.594L96.5992 42.3233C93.0511 42.0227 89.5031 41.7821 85.955 41.6017C82.4671 41.4213 78.7988 41.3311 74.9501 41.3311H70.8909C70.1692 50.2313 69.4175 58.3497 68.6358 65.6863L84.1509 65.4157C86.376 65.4157 87.8493 65.8066 88.571 66.5884C89.3527 67.3701 89.7436 68.4225 89.7436 69.7455C89.7436 71.7902 89.1423 73.4138 87.9395 74.6166C86.7368 75.7592 85.0229 76.3305 82.7979 76.3305H67.3729L66.8317 80.2092C65.5688 90.1317 62.8627 97.1978 58.7132 101.407C54.624 105.617 48.9712 107.722 41.7548 107.722C37.6655 107.722 33.907 106.85 30.4792 105.106C27.0515 103.302 24.5257 101.137 22.902 98.611C22.2405 97.5887 21.9098 96.3559 21.9098 94.9126C21.9098 93.4693 22.2405 92.2065 22.902 91.124C23.6237 90.0415 24.4957 89.5003 25.518 89.5003C26.2396 89.5003 26.9312 89.7409 27.5927 90.222C28.3143 90.703 29.2164 91.6352 30.2988 93.0183C33.1854 96.8069 36.7635 98.7012 41.0332 98.7012C44.4609 98.7012 47.3174 97.318 49.6026 94.5518C51.9479 91.7254 53.4513 87.3053 54.1128 81.2917L54.654 76.3305H50.3242C48.9411 76.3305 47.7384 75.9396 46.716 75.1578C45.7539 74.376 45.2728 73.2635 45.2728 71.8202C45.2728 69.956 45.7539 68.5428 46.716 67.5806C47.6782 66.5583 49.0914 66.0471 50.9557 66.0471C52.6395 66.0471 54.2932 66.0171 55.9169 65.9569C56.6385 59.3419 57.4203 51.3137 58.2622 41.8723C51.7675 42.4737 47.1971 43.5261 44.5511 45.0295C41.9051 46.5329 40.5821 48.7579 40.5821 51.7046C40.5821 53.7492 41.1835 55.7037 42.3862 57.5679C42.747 58.1091 42.9275 58.6504 42.9275 59.1916C42.9275 60.274 42.3261 61.2362 41.1234 62.0781C39.9206 62.8599 38.5676 63.2508 37.0642 63.2508C35.4405 63.2508 34.0573 62.7697 32.9148 61.8075C32.1931 61.2062 31.5015 59.9734 30.84 58.1091C30.1785 56.2449 29.8478 54.1702 29.8478 51.885C29.8478 44.4281 33.6665 39.0158 41.3038 35.6482C49.0012 32.2806 60.2167 30.5967 74.9501 30.5967C85.1733 30.5967 94.1937 31.138 102.011 32.2204Z" fill="url(#paint0_linear)"/>
</g>
<defs>
<linearGradient id="paint0_linear" x1="65" y1="-10" x2="65" y2="120" gradientUnits="userSpaceOnUse">
<stop stop-color="#54FBFB"/>
<stop offset="1" stop-color="#7910FF"/>
</linearGradient>
<clipPath id="clip0">
<rect width="129" height="137" fill="white"/>
</clipPath>
</defs>
</svg>
