<svg width="256" height="103" viewBox="0 0 256 103" fill="none" xmlns="http://www.w3.org/2000/svg">
<path d="M63.517 44.856C63.517 48.4827 62.5783 51.8107 60.701 54.84C58.8237 57.8693 56.093 60.344 52.509 62.264C48.925 64.184 44.6583 65.3147 39.709 65.656L36.957 81.08C35.8903 87.0107 32.989 89.976 28.253 89.976C25.6503 89.976 23.2397 89.208 21.021 87.672C18.845 86.136 17.0957 83.7893 15.773 80.632C14.4503 77.4747 13.789 73.592 13.789 68.984C13.789 60.3227 15.1757 52.984 17.949 46.968C20.765 40.9093 24.5197 36.3867 29.213 33.4C33.949 30.3707 39.1543 28.856 44.829 28.856C48.8397 28.856 52.2317 29.56 55.005 30.968C57.821 32.376 59.933 34.296 61.341 36.728C62.7917 39.1173 63.517 41.8267 63.517 44.856ZM40.861 59.064C49.6077 57.9547 53.981 53.4107 53.981 45.432C53.981 42.616 53.0423 40.3333 51.165 38.584C49.3303 36.792 46.4717 35.896 42.589 35.896C38.1943 35.896 34.3543 37.2827 31.069 40.056C27.8263 42.8293 25.309 46.6907 23.517 51.64C21.7677 56.5467 20.893 62.1573 20.893 68.472C20.893 71.1173 21.149 73.464 21.661 75.512C22.2157 77.56 22.8983 79.16 23.709 80.312C24.5623 81.4213 25.373 81.976 26.141 81.976C27.2077 81.976 28.0183 80.504 28.573 77.56L30.685 65.464C29.021 65.208 28.2957 65.1013 28.509 65.144C27.229 64.9307 26.397 64.5467 26.013 63.992C25.629 63.3947 25.437 62.648 25.437 61.752C25.437 60.8133 25.693 60.0667 26.205 59.512C26.7597 58.9573 27.5063 58.68 28.445 58.68C28.8717 58.68 29.1917 58.7013 29.405 58.744C30.429 58.9147 31.2183 59.0213 31.773 59.064C32.3277 55.736 33.117 51.2773 34.141 45.688C34.397 44.2373 34.973 43.2133 35.869 42.616C36.8077 41.976 37.8957 41.656 39.133 41.656C40.541 41.656 41.5437 41.9333 42.141 42.488C42.781 43 43.101 43.832 43.101 44.984C43.101 45.6667 43.0583 46.2213 42.973 46.648L40.861 59.064ZM64.2285 83.32C62.6072 83.32 61.4552 82.4667 60.7725 80.76C60.1325 79.0533 59.8125 76.3227 59.8125 72.568C59.8125 67.0213 60.6018 61.752 62.1805 56.76C62.5645 55.5227 63.1832 54.6267 64.0365 54.072C64.9325 53.4747 66.1698 53.176 67.7485 53.176C68.6018 53.176 69.1992 53.2827 69.5405 53.496C69.8818 53.7093 70.0525 54.1147 70.0525 54.712C70.0525 55.3947 69.7325 56.9307 69.0925 59.32C68.6658 61.0267 68.3245 62.52 68.0685 63.8C67.8125 65.08 67.5992 66.6587 67.4285 68.536C68.8365 64.8667 70.4152 61.88 72.1645 59.576C73.9138 57.272 75.6205 55.6293 77.2845 54.648C78.9912 53.6667 80.5485 53.176 81.9565 53.176C84.7298 53.176 86.1165 54.5627 86.1165 57.336C86.1165 57.8907 85.9245 59.2347 85.5405 61.368C85.1992 63.0747 85.0285 64.1413 85.0285 64.568C85.0285 66.0613 85.5618 66.808 86.6285 66.808C87.8232 66.808 89.3592 65.8693 91.2365 63.992C91.7912 63.4373 92.3672 63.16 92.9645 63.16C93.5192 63.16 93.9458 63.416 94.2445 63.928C94.5858 64.3973 94.7565 65.0373 94.7565 65.848C94.7565 67.4267 94.3298 68.664 93.4765 69.56C92.2818 70.7973 90.8738 71.864 89.2525 72.76C87.6738 73.6133 85.9885 74.04 84.1965 74.04C81.9352 74.04 80.2072 73.464 79.0125 72.312C77.8605 71.16 77.2845 69.6027 77.2845 67.64C77.2845 67 77.3485 66.36 77.4765 65.72C77.5618 64.8667 77.6045 64.2907 77.6045 63.992C77.6045 63.3093 77.3698 62.968 76.9005 62.968C76.2605 62.968 75.4072 63.6933 74.3405 65.144C73.3165 66.552 72.2925 68.4293 71.2685 70.776C70.2445 73.1227 69.4125 75.5973 68.7725 78.2C68.3032 80.2053 67.7485 81.5707 67.1085 82.296C66.5112 82.9787 65.5512 83.32 64.2285 83.32ZM119.53 63.352C120.084 63.352 120.511 63.6293 120.81 64.184C121.108 64.7387 121.258 65.4427 121.258 66.296C121.258 68.344 120.639 69.56 119.402 69.944C116.842 70.84 114.026 71.352 110.954 71.48C110.143 75.064 108.543 77.944 106.154 80.12C103.764 82.2533 101.055 83.32 98.0255 83.32C95.4655 83.32 93.2682 82.7013 91.4335 81.464C89.6415 80.2267 88.2762 78.584 87.3375 76.536C86.3988 74.488 85.9295 72.2693 85.9295 69.88C85.9295 66.6373 86.5482 63.7573 87.7855 61.24C89.0228 58.68 90.7295 56.696 92.9055 55.288C95.0815 53.8373 97.4922 53.112 100.138 53.112C103.38 53.112 105.983 54.2427 107.946 56.504C109.951 58.7227 111.124 61.4747 111.466 64.76C113.471 64.632 115.86 64.2053 118.634 63.48C118.975 63.3947 119.274 63.352 119.53 63.352ZM98.5375 76.536C99.9028 76.536 101.076 75.9813 102.058 74.872C103.082 73.7627 103.764 72.1627 104.106 70.072C102.783 69.176 101.759 68.0027 101.034 66.552C100.351 65.1013 100.01 63.5653 100.01 61.944C100.01 61.2613 100.074 60.5787 100.202 59.896H99.8815C98.1748 59.896 96.7455 60.728 95.5935 62.392C94.4842 64.0133 93.9295 66.3173 93.9295 69.304C93.9295 71.6507 94.3775 73.4427 95.2735 74.68C96.2122 75.9173 97.3002 76.536 98.5375 76.536ZM147.893 63.352C148.447 63.352 148.874 63.6293 149.173 64.184C149.471 64.7387 149.621 65.4427 149.621 66.296C149.621 67.3627 149.471 68.1947 149.173 68.792C148.874 69.3467 148.405 69.7307 147.764 69.944C145.204 70.84 142.388 71.352 139.316 71.48C138.463 75.0213 136.842 77.88 134.452 80.056C132.106 82.232 129.503 83.32 126.644 83.32C122.335 83.32 119.199 81.6773 117.236 78.392C115.274 75.1067 114.292 70.3493 114.292 64.12C114.292 58.616 114.975 52.6427 116.34 46.2C117.706 39.7147 119.69 34.2107 122.292 29.688C124.938 25.1227 128.074 22.84 131.701 22.84C133.663 22.84 135.242 23.6933 136.437 25.4C137.631 27.064 138.229 29.24 138.229 31.928C138.229 35.4267 137.567 38.904 136.245 42.36C134.922 45.816 132.725 49.4427 129.653 53.24C132.511 53.4533 134.837 54.648 136.628 56.824C138.42 58.9573 139.487 61.6027 139.829 64.76C141.834 64.632 144.223 64.2053 146.997 63.48C147.253 63.3947 147.551 63.352 147.893 63.352ZM130.229 29.176C129.375 29.176 128.436 30.456 127.413 33.016C126.431 35.5333 125.514 38.968 124.66 43.32C123.807 47.672 123.167 52.4293 122.74 57.592C125.557 52.4293 127.797 47.8853 129.461 43.96C131.167 39.992 132.021 36.472 132.021 33.4C132.021 32.0347 131.85 30.9893 131.508 30.264C131.21 29.5387 130.783 29.176 130.229 29.176ZM126.9 76.536C128.223 76.536 129.397 75.9813 130.42 74.872C131.445 73.7627 132.127 72.1627 132.469 70.072C131.146 69.176 130.122 68.0027 129.396 66.552C128.714 65.1013 128.372 63.5653 128.372 61.944C128.372 61.3467 128.458 60.536 128.628 59.512H128.437C126.687 59.512 125.215 60.3867 124.021 62.136C122.868 63.8427 122.292 66.1467 122.292 69.048C122.292 71.48 122.74 73.336 123.636 74.616C124.575 75.896 125.663 76.536 126.9 76.536ZM166.431 68.728C166.985 68.728 167.412 68.984 167.711 69.496C168.052 70.008 168.223 70.712 168.223 71.608C168.223 73.3147 167.817 74.6373 167.007 75.576C165.172 77.8373 163.167 79.6933 160.991 81.144C158.857 82.5947 156.425 83.32 153.695 83.32C149.94 83.32 147.145 81.6133 145.311 78.2C143.519 74.7867 142.623 70.3707 142.623 64.952C142.623 59.7467 143.284 53.816 144.607 47.16C145.972 40.504 147.956 34.7867 150.559 30.008C153.204 25.2293 156.34 22.84 159.967 22.84C162.015 22.84 163.615 23.8 164.767 25.72C165.961 27.5973 166.559 30.3067 166.559 33.848C166.559 38.9253 165.151 44.8133 162.335 51.512C159.519 58.2107 155.7 64.8453 150.879 71.416C151.177 73.1653 151.668 74.424 152.351 75.192C153.033 75.9173 153.929 76.28 155.039 76.28C156.788 76.28 158.324 75.7893 159.647 74.808C160.969 73.784 162.655 72.056 164.703 69.624C165.215 69.0267 165.791 68.728 166.431 68.728ZM158.559 29.176C157.577 29.176 156.468 30.9467 155.231 34.488C153.993 38.0293 152.905 42.424 151.967 47.672C151.028 52.92 150.516 57.9547 150.431 62.776C153.46 57.784 155.871 52.792 157.663 47.8C159.455 42.7653 160.351 38.1787 160.351 34.04C160.351 30.7973 159.753 29.176 158.559 29.176ZM189.673 68.728C190.228 68.728 190.655 68.984 190.953 69.496C191.295 70.008 191.465 70.712 191.465 71.608C191.465 73.3147 191.06 74.6373 190.249 75.576C188.671 77.496 186.431 79.2667 183.529 80.888C180.671 82.5093 177.599 83.32 174.313 83.32C169.833 83.32 166.356 82.104 163.881 79.672C161.407 77.24 160.169 73.912 160.169 69.688C160.169 66.744 160.788 64.0133 162.025 61.496C163.263 58.936 164.969 56.9093 167.145 55.416C169.364 53.9227 171.86 53.176 174.633 53.176C177.108 53.176 179.092 53.9227 180.585 55.416C182.079 56.8667 182.825 58.8507 182.825 61.368C182.825 64.312 181.759 66.8507 179.625 68.984C177.535 71.0747 173.972 72.7387 168.937 73.976C170.004 75.9387 172.031 76.92 175.017 76.92C176.937 76.92 179.113 76.2587 181.545 74.936C184.02 73.5707 186.153 71.8 187.945 69.624C188.457 69.0267 189.033 68.728 189.673 68.728ZM173.545 59.448C171.967 59.448 170.623 60.3653 169.513 62.2C168.447 64.0347 167.913 66.2533 167.913 68.856V68.984C170.431 68.3867 172.415 67.4907 173.865 66.296C175.316 65.1013 176.041 63.7147 176.041 62.136C176.041 61.3253 175.807 60.6853 175.337 60.216C174.911 59.704 174.313 59.448 173.545 59.448ZM188.878 83.32C187.257 83.32 186.105 82.4667 185.422 80.76C184.782 79.0533 184.462 76.3227 184.462 72.568C184.462 67.0213 185.252 61.752 186.83 56.76C187.214 55.5227 187.833 54.6267 188.686 54.072C189.582 53.4747 190.82 53.176 192.398 53.176C193.252 53.176 193.849 53.2827 194.19 53.496C194.532 53.7093 194.702 54.1147 194.702 54.712C194.702 55.3947 194.382 56.9307 193.742 59.32C193.316 61.0267 192.974 62.52 192.718 63.8C192.462 65.0373 192.249 66.5947 192.078 68.472C193.23 65.144 194.596 62.328 196.174 60.024C197.796 57.72 199.438 56.0133 201.102 54.904C202.809 53.752 204.409 53.176 205.902 53.176C207.396 53.176 208.441 53.5173 209.038 54.2C209.678 54.8827 209.998 55.928 209.998 57.336C209.998 58.7013 209.593 61.176 208.782 64.76C208.441 66.296 208.206 67.448 208.078 68.216C210.212 62.968 212.58 59.1493 215.182 56.76C217.785 54.3707 220.217 53.176 222.479 53.176C225.252 53.176 226.639 54.5627 226.639 57.336C226.639 59 226.169 62.008 225.23 66.36C224.42 70.072 224.014 72.5253 224.014 73.72C224.014 75.4267 224.633 76.28 225.87 76.28C226.724 76.28 227.726 75.768 228.878 74.744C230.073 73.6773 231.652 71.9707 233.614 69.624C234.126 69.0267 234.702 68.728 235.342 68.728C235.897 68.728 236.324 68.984 236.623 69.496C236.964 70.008 237.134 70.712 237.134 71.608C237.134 73.3147 236.729 74.6373 235.918 75.576C234.084 77.8373 232.1 79.6933 229.966 81.144C227.876 82.5947 225.486 83.32 222.799 83.32C220.623 83.32 218.98 82.7013 217.87 81.464C216.761 80.184 216.206 78.3493 216.206 75.96C216.206 74.7653 216.505 72.632 217.102 69.56C217.657 66.872 217.934 65.016 217.934 63.992C217.934 63.3093 217.7 62.968 217.23 62.968C216.676 62.968 215.886 63.6933 214.862 65.144C213.838 66.552 212.814 68.4293 211.79 70.776C210.766 73.1227 209.934 75.5973 209.294 78.2C208.825 80.248 208.27 81.6133 207.63 82.296C207.033 82.9787 206.052 83.32 204.686 83.32C203.278 83.32 202.212 82.6587 201.486 81.336C200.804 79.9707 200.462 78.328 200.462 76.408C200.462 74.7867 200.676 72.44 201.102 69.368C201.444 66.6373 201.614 64.8453 201.614 63.992C201.614 63.3093 201.38 62.968 200.91 62.968C200.27 62.968 199.46 63.736 198.478 65.272C197.497 66.808 196.537 68.7707 195.598 71.16C194.702 73.5493 193.977 75.896 193.422 78.2C192.953 80.2053 192.398 81.5707 191.758 82.296C191.161 82.9787 190.201 83.32 188.878 83.32ZM241.943 84.728C239.725 84.728 238.018 84.216 236.823 83.192C235.671 82.168 235.095 81.016 235.095 79.736C235.095 78.6267 235.501 77.6667 236.311 76.856C237.122 76.0453 238.317 75.64 239.895 75.64C240.45 75.64 241.09 75.704 241.815 75.832C242.583 75.9173 243.159 75.9813 243.543 76.024C243.501 74.9147 243.245 73.8693 242.775 72.888C242.349 71.9067 241.794 70.968 241.111 70.072C240.429 69.1333 239.789 68.3227 239.191 67.64C237.869 70.1573 236.546 72.248 235.223 73.912C233.943 75.576 232.535 77.1547 230.999 78.648C230.231 79.416 229.421 79.8 228.567 79.8C227.885 79.8 227.33 79.5653 226.903 79.096C226.477 78.584 226.263 77.9653 226.263 77.24C226.263 76.3867 226.562 75.5973 227.159 74.872L227.991 73.848C230.338 70.9467 232.109 68.5573 233.303 66.68C234.071 65.4427 234.839 63.9707 235.607 62.264C236.418 60.5573 237.463 58.232 238.743 55.288C239.554 53.4107 241.239 52.472 243.799 52.472C244.994 52.472 245.826 52.5787 246.295 52.792C246.765 53.0053 247 53.3467 247 53.816C247 54.072 246.914 54.4773 246.743 55.032C246.573 55.5867 246.338 56.1413 246.039 56.696C245.271 58.232 244.887 59.5333 244.887 60.6C244.887 61.24 245.101 61.944 245.528 62.712C245.997 63.48 246.701 64.44 247.639 65.592C249.005 67.384 250.029 68.92 250.712 70.2C251.437 71.4373 251.799 72.8027 251.799 74.296C251.799 76.088 251.373 77.7947 250.52 79.416C249.709 80.9947 248.557 82.2747 247.063 83.256C245.57 84.2373 243.863 84.728 241.943 84.728Z" fill="#6977FD"/>
</svg>
