<svg width="250" height="103" viewBox="0 0 250 103" fill="none" xmlns="http://www.w3.org/2000/svg">
<path d="M57.672 44.856C57.672 48.4827 56.7333 51.8107 54.856 54.84C52.9787 57.8693 50.248 60.344 46.664 62.264C43.08 64.184 38.8133 65.3147 33.864 65.656L31.112 81.08C30.0453 87.0107 27.144 89.976 22.408 89.976C19.8053 89.976 17.3947 89.208 15.176 87.672C13 86.136 11.2507 83.7893 9.928 80.632C8.60533 77.4747 7.944 73.592 7.944 68.984C7.944 60.3227 9.33067 52.984 12.104 46.968C14.92 40.9093 18.6747 36.3867 23.368 33.4C28.104 30.3707 33.3093 28.856 38.984 28.856C42.9947 28.856 46.3867 29.56 49.16 30.968C51.976 32.376 54.088 34.296 55.496 36.728C56.9467 39.1173 57.672 41.8267 57.672 44.856ZM35.016 59.064C43.7627 57.9547 48.136 53.4107 48.136 45.432C48.136 42.616 47.1973 40.3333 45.32 38.584C43.4853 36.792 40.6267 35.896 36.744 35.896C32.3493 35.896 28.5093 37.2827 25.224 40.056C21.9813 42.8293 19.464 46.6907 17.672 51.64C15.9227 56.5467 15.048 62.1573 15.048 68.472C15.048 71.1173 15.304 73.464 15.816 75.512C16.3707 77.56 17.0533 79.16 17.864 80.312C18.7173 81.4213 19.528 81.976 20.296 81.976C21.3627 81.976 22.1733 80.504 22.728 77.56L24.84 65.464C23.176 65.208 22.4507 65.1013 22.664 65.144C21.384 64.9307 20.552 64.5467 20.168 63.992C19.784 63.3947 19.592 62.648 19.592 61.752C19.592 60.8133 19.848 60.0667 20.36 59.512C20.9147 58.9573 21.6613 58.68 22.6 58.68C23.0267 58.68 23.3467 58.7013 23.56 58.744C24.584 58.9147 25.3733 59.0213 25.928 59.064C26.4827 55.736 27.272 51.2773 28.296 45.688C28.552 44.2373 29.128 43.2133 30.024 42.616C30.9627 41.976 32.0507 41.656 33.288 41.656C34.696 41.656 35.6987 41.9333 36.296 42.488C36.936 43 37.256 43.832 37.256 44.984C37.256 45.6667 37.2133 46.2213 37.128 46.648L35.016 59.064ZM58.3835 83.32C56.7622 83.32 55.6102 82.4667 54.9275 80.76C54.2875 79.0533 53.9675 76.3227 53.9675 72.568C53.9675 67.0213 54.7568 61.752 56.3355 56.76C56.7195 55.5227 57.3382 54.6267 58.1915 54.072C59.0875 53.4747 60.3248 53.176 61.9035 53.176C62.7568 53.176 63.3542 53.2827 63.6955 53.496C64.0368 53.7093 64.2075 54.1147 64.2075 54.712C64.2075 55.3947 63.8875 56.9307 63.2475 59.32C62.8208 61.0267 62.4795 62.52 62.2235 63.8C61.9675 65.08 61.7542 66.6587 61.5835 68.536C62.9915 64.8667 64.5702 61.88 66.3195 59.576C68.0688 57.272 69.7755 55.6293 71.4395 54.648C73.1462 53.6667 74.7035 53.176 76.1115 53.176C78.8848 53.176 80.2715 54.5627 80.2715 57.336C80.2715 57.8907 80.0795 59.2347 79.6955 61.368C79.3542 63.0747 79.1835 64.1413 79.1835 64.568C79.1835 66.0613 79.7168 66.808 80.7835 66.808C81.9782 66.808 83.5142 65.8693 85.3915 63.992C85.9462 63.4373 86.5222 63.16 87.1195 63.16C87.6742 63.16 88.1008 63.416 88.3995 63.928C88.7408 64.3973 88.9115 65.0373 88.9115 65.848C88.9115 67.4267 88.4848 68.664 87.6315 69.56C86.4368 70.7973 85.0288 71.864 83.4075 72.76C81.8288 73.6133 80.1435 74.04 78.3515 74.04C76.0902 74.04 74.3622 73.464 73.1675 72.312C72.0155 71.16 71.4395 69.6027 71.4395 67.64C71.4395 67 71.5035 66.36 71.6315 65.72C71.7168 64.8667 71.7595 64.2907 71.7595 63.992C71.7595 63.3093 71.5248 62.968 71.0555 62.968C70.4155 62.968 69.5622 63.6933 68.4955 65.144C67.4715 66.552 66.4475 68.4293 65.4235 70.776C64.3995 73.1227 63.5675 75.5973 62.9275 78.2C62.4582 80.2053 61.9035 81.5707 61.2635 82.296C60.6662 82.9787 59.7062 83.32 58.3835 83.32ZM113.685 63.352C114.239 63.352 114.666 63.6293 114.965 64.184C115.263 64.7387 115.413 65.4427 115.413 66.296C115.413 68.344 114.794 69.56 113.557 69.944C110.997 70.84 108.181 71.352 105.109 71.48C104.298 75.064 102.698 77.944 100.309 80.12C97.9192 82.2533 95.2098 83.32 92.1805 83.32C89.6205 83.32 87.4232 82.7013 85.5885 81.464C83.7965 80.2267 82.4312 78.584 81.4925 76.536C80.5538 74.488 80.0845 72.2693 80.0845 69.88C80.0845 66.6373 80.7032 63.7573 81.9405 61.24C83.1778 58.68 84.8845 56.696 87.0605 55.288C89.2365 53.8373 91.6472 53.112 94.2925 53.112C97.5352 53.112 100.138 54.2427 102.101 56.504C104.106 58.7227 105.279 61.4747 105.621 64.76C107.626 64.632 110.015 64.2053 112.789 63.48C113.13 63.3947 113.429 63.352 113.685 63.352ZM92.6925 76.536C94.0578 76.536 95.2312 75.9813 96.2125 74.872C97.2365 73.7627 97.9192 72.1627 98.2605 70.072C96.9378 69.176 95.9138 68.0027 95.1885 66.552C94.5058 65.1013 94.1645 63.5653 94.1645 61.944C94.1645 61.2613 94.2285 60.5787 94.3565 59.896H94.0365C92.3298 59.896 90.9005 60.728 89.7485 62.392C88.6392 64.0133 88.0845 66.3173 88.0845 69.304C88.0845 71.6507 88.5325 73.4427 89.4285 74.68C90.3672 75.9173 91.4552 76.536 92.6925 76.536ZM142.048 63.352C142.602 63.352 143.029 63.6293 143.327 64.184C143.626 64.7387 143.776 65.4427 143.776 66.296C143.776 67.3627 143.626 68.1947 143.327 68.792C143.029 69.3467 142.56 69.7307 141.919 69.944C139.359 70.84 136.543 71.352 133.471 71.48C132.618 75.0213 130.997 77.88 128.607 80.056C126.261 82.232 123.658 83.32 120.799 83.32C116.49 83.32 113.354 81.6773 111.391 78.392C109.429 75.1067 108.447 70.3493 108.447 64.12C108.447 58.616 109.13 52.6427 110.495 46.2C111.861 39.7147 113.845 34.2107 116.447 29.688C119.093 25.1227 122.229 22.84 125.855 22.84C127.818 22.84 129.397 23.6933 130.591 25.4C131.786 27.064 132.383 29.24 132.383 31.928C132.383 35.4267 131.722 38.904 130.399 42.36C129.077 45.816 126.879 49.4427 123.807 53.24C126.666 53.4533 128.991 54.648 130.783 56.824C132.575 58.9573 133.642 61.6027 133.983 64.76C135.989 64.632 138.378 64.2053 141.152 63.48C141.407 63.3947 141.706 63.352 142.048 63.352ZM124.383 29.176C123.53 29.176 122.591 30.456 121.567 33.016C120.586 35.5333 119.669 38.968 118.815 43.32C117.962 47.672 117.322 52.4293 116.895 57.592C119.711 52.4293 121.951 47.8853 123.615 43.96C125.322 39.992 126.175 36.472 126.175 33.4C126.175 32.0347 126.005 30.9893 125.663 30.264C125.365 29.5387 124.938 29.176 124.383 29.176ZM121.055 76.536C122.378 76.536 123.551 75.9813 124.575 74.872C125.599 73.7627 126.282 72.1627 126.623 70.072C125.301 69.176 124.277 68.0027 123.551 66.552C122.869 65.1013 122.527 63.5653 122.527 61.944C122.527 61.3467 122.613 60.536 122.783 59.512H122.591C120.842 59.512 119.37 60.3867 118.175 62.136C117.023 63.8427 116.447 66.1467 116.447 69.048C116.447 71.48 116.895 73.336 117.791 74.616C118.73 75.896 119.818 76.536 121.055 76.536ZM160.586 68.728C161.14 68.728 161.567 68.984 161.866 69.496C162.207 70.008 162.378 70.712 162.378 71.608C162.378 73.3147 161.972 74.6373 161.162 75.576C159.327 77.8373 157.322 79.6933 155.146 81.144C153.012 82.5947 150.58 83.32 147.85 83.32C144.095 83.32 141.3 81.6133 139.466 78.2C137.674 74.7867 136.778 70.3707 136.778 64.952C136.778 59.7467 137.439 53.816 138.762 47.16C140.127 40.504 142.111 34.7867 144.714 30.008C147.359 25.2293 150.495 22.84 154.122 22.84C156.17 22.84 157.77 23.8 158.922 25.72C160.116 27.5973 160.714 30.3067 160.714 33.848C160.714 38.9253 159.306 44.8133 156.49 51.512C153.674 58.2107 149.855 64.8453 145.034 71.416C145.332 73.1653 145.823 74.424 146.506 75.192C147.188 75.9173 148.084 76.28 149.194 76.28C150.943 76.28 152.479 75.7893 153.802 74.808C155.124 73.784 156.81 72.056 158.858 69.624C159.37 69.0267 159.946 68.728 160.586 68.728ZM152.714 29.176C151.732 29.176 150.623 30.9467 149.386 34.488C148.148 38.0293 147.06 42.424 146.122 47.672C145.183 52.92 144.671 57.9547 144.586 62.776C147.615 57.784 150.026 52.792 151.818 47.8C153.61 42.7653 154.506 38.1787 154.506 34.04C154.506 30.7973 153.908 29.176 152.714 29.176ZM183.828 68.728C184.383 68.728 184.81 68.984 185.108 69.496C185.45 70.008 185.62 70.712 185.62 71.608C185.62 73.3147 185.215 74.6373 184.404 75.576C182.826 77.496 180.586 79.2667 177.684 80.888C174.826 82.5093 171.754 83.32 168.468 83.32C163.988 83.32 160.511 82.104 158.036 79.672C155.562 77.24 154.324 73.912 154.324 69.688C154.324 66.744 154.943 64.0133 156.18 61.496C157.418 58.936 159.124 56.9093 161.3 55.416C163.519 53.9227 166.015 53.176 168.788 53.176C171.263 53.176 173.247 53.9227 174.74 55.416C176.234 56.8667 176.98 58.8507 176.98 61.368C176.98 64.312 175.914 66.8507 173.78 68.984C171.69 71.0747 168.127 72.7387 163.092 73.976C164.159 75.9387 166.186 76.92 169.172 76.92C171.092 76.92 173.268 76.2587 175.7 74.936C178.175 73.5707 180.308 71.8 182.1 69.624C182.612 69.0267 183.188 68.728 183.828 68.728ZM167.7 59.448C166.122 59.448 164.778 60.3653 163.668 62.2C162.602 64.0347 162.068 66.2533 162.068 68.856V68.984C164.586 68.3867 166.57 67.4907 168.02 66.296C169.471 65.1013 170.196 63.7147 170.196 62.136C170.196 61.3253 169.962 60.6853 169.492 60.216C169.066 59.704 168.468 59.448 167.7 59.448ZM183.033 83.32C181.412 83.32 180.26 82.4667 179.577 80.76C178.937 79.0533 178.617 76.3227 178.617 72.568C178.617 67.0213 179.407 61.752 180.985 56.76C181.369 55.5227 181.988 54.6267 182.841 54.072C183.737 53.4747 184.975 53.176 186.553 53.176C187.407 53.176 188.004 53.2827 188.345 53.496C188.687 53.7093 188.857 54.1147 188.857 54.712C188.857 55.3947 188.537 56.9307 187.897 59.32C187.471 61.0267 187.129 62.52 186.873 63.8C186.617 65.0373 186.404 66.5947 186.233 68.472C187.385 65.144 188.751 62.328 190.329 60.024C191.951 57.72 193.593 56.0133 195.257 54.904C196.964 53.752 198.564 53.176 200.057 53.176C201.551 53.176 202.596 53.5173 203.193 54.2C203.833 54.8827 204.153 55.928 204.153 57.336C204.153 58.7013 203.748 61.176 202.937 64.76C202.596 66.296 202.361 67.448 202.233 68.216C204.367 62.968 206.735 59.1493 209.337 56.76C211.94 54.3707 214.372 53.176 216.633 53.176C219.407 53.176 220.793 54.5627 220.793 57.336C220.793 59 220.324 62.008 219.385 66.36C218.575 70.072 218.169 72.5253 218.169 73.72C218.169 75.4267 218.788 76.28 220.025 76.28C220.879 76.28 221.881 75.768 223.033 74.744C224.228 73.6773 225.807 71.9707 227.769 69.624C228.281 69.0267 228.857 68.728 229.497 68.728C230.052 68.728 230.479 68.984 230.778 69.496C231.119 70.008 231.289 70.712 231.289 71.608C231.289 73.3147 230.884 74.6373 230.073 75.576C228.239 77.8373 226.255 79.6933 224.121 81.144C222.031 82.5947 219.641 83.32 216.953 83.32C214.777 83.32 213.135 82.7013 212.025 81.464C210.916 80.184 210.361 78.3493 210.361 75.96C210.361 74.7653 210.66 72.632 211.257 69.56C211.812 66.872 212.089 65.016 212.089 63.992C212.089 63.3093 211.855 62.968 211.385 62.968C210.831 62.968 210.041 63.6933 209.017 65.144C207.993 66.552 206.969 68.4293 205.945 70.776C204.921 73.1227 204.089 75.5973 203.449 78.2C202.98 80.248 202.425 81.6133 201.785 82.296C201.188 82.9787 200.207 83.32 198.841 83.32C197.433 83.32 196.367 82.6587 195.641 81.336C194.959 79.9707 194.617 78.328 194.617 76.408C194.617 74.7867 194.831 72.44 195.257 69.368C195.599 66.6373 195.769 64.8453 195.769 63.992C195.769 63.3093 195.535 62.968 195.065 62.968C194.425 62.968 193.615 63.736 192.633 65.272C191.652 66.808 190.692 68.7707 189.753 71.16C188.857 73.5493 188.132 75.896 187.577 78.2C187.108 80.2053 186.553 81.5707 185.913 82.296C185.316 82.9787 184.356 83.32 183.033 83.32ZM236.098 84.728C233.88 84.728 232.173 84.216 230.978 83.192C229.826 82.168 229.25 81.016 229.25 79.736C229.25 78.6267 229.656 77.6667 230.466 76.856C231.277 76.0453 232.472 75.64 234.05 75.64C234.605 75.64 235.245 75.704 235.97 75.832C236.738 75.9173 237.314 75.9813 237.698 76.024C237.656 74.9147 237.4 73.8693 236.93 72.888C236.504 71.9067 235.949 70.968 235.266 70.072C234.584 69.1333 233.944 68.3227 233.346 67.64C232.024 70.1573 230.701 72.248 229.378 73.912C228.098 75.576 226.69 77.1547 225.154 78.648C224.386 79.416 223.576 79.8 222.722 79.8C222.04 79.8 221.485 79.5653 221.058 79.096C220.632 78.584 220.418 77.9653 220.418 77.24C220.418 76.3867 220.717 75.5973 221.314 74.872L222.146 73.848C224.493 70.9467 226.264 68.5573 227.458 66.68C228.226 65.4427 228.994 63.9707 229.762 62.264C230.573 60.5573 231.618 58.232 232.898 55.288C233.709 53.4107 235.394 52.472 237.954 52.472C239.149 52.472 239.981 52.5787 240.45 52.792C240.92 53.0053 241.154 53.3467 241.154 53.816C241.154 54.072 241.069 54.4773 240.898 55.032C240.728 55.5867 240.493 56.1413 240.194 56.696C239.426 58.232 239.042 59.5333 239.042 60.6C239.042 61.24 239.256 61.944 239.682 62.712C240.152 63.48 240.856 64.44 241.794 65.592C243.16 67.384 244.184 68.92 244.866 70.2C245.592 71.4373 245.954 72.8027 245.954 74.296C245.954 76.088 245.528 77.7947 244.674 79.416C243.864 80.9947 242.712 82.2747 241.218 83.256C239.725 84.2373 238.018 84.728 236.098 84.728Z" fill="url(#paint0_linear)"/>
<defs>
<linearGradient id="paint0_linear" x1="127.5" y1="0" x2="127.5" y2="74" gradientUnits="userSpaceOnUse">
<stop stop-color="#54FBFB"/>
<stop offset="1" stop-color="#7910FF"/>
</linearGradient>
</defs>
</svg>
