<svg width="333" height="58" viewBox="0 0 333 58" fill="none" xmlns="http://www.w3.org/2000/svg">
<path d="M166.72 56.3661C166.057 57.0651 164.943 57.0651 164.28 56.3661L155.635 47.2511C154.619 46.1799 155.378 44.413 156.854 44.413H174.146C175.622 44.413 176.381 46.1799 175.365 47.2511L166.72 56.3661Z" fill="#3D3D3D"/>
<path d="M67.581 26.16C65.8077 26.16 64.3877 25.8267 63.321 25.16C62.2543 24.48 61.721 23.4467 61.721 22.06C61.721 21.3267 61.8477 20.7667 62.101 20.38C62.3543 19.9933 62.7277 19.8 63.221 19.8C63.581 19.8 63.8743 19.8933 64.101 20.08C64.3277 20.2667 64.441 20.5067 64.441 20.8C64.441 21.0667 64.421 21.3 64.381 21.5C64.381 21.5533 64.3677 21.6467 64.341 21.78C64.3277 21.9133 64.321 22.0533 64.321 22.2C64.321 22.8 64.621 23.2467 65.221 23.54C65.8343 23.8333 66.6877 23.98 67.781 23.98C68.9143 23.98 69.801 23.78 70.441 23.38C71.081 22.9667 71.401 22.3933 71.401 21.66C71.401 21.2067 71.2543 20.82 70.961 20.5C70.6677 20.1667 70.301 19.8933 69.861 19.68C69.421 19.4533 68.801 19.18 68.001 18.86C66.9743 18.46 66.1343 18.08 65.481 17.72C64.841 17.36 64.2877 16.8733 63.821 16.26C63.3677 15.6333 63.141 14.86 63.141 13.94C63.141 12.98 63.3943 12.1267 63.901 11.38C64.421 10.6333 65.161 10.0533 66.121 9.64C67.0943 9.22667 68.2343 9.02 69.541 9.02C70.5143 9.02 71.4077 9.16667 72.221 9.46C73.0343 9.74 73.681 10.1733 74.161 10.76C74.6543 11.3467 74.901 12.0667 74.901 12.92C74.901 13.76 74.7743 14.3933 74.521 14.82C74.2677 15.2467 73.8943 15.46 73.401 15.46C73.0543 15.46 72.761 15.3533 72.521 15.14C72.2943 14.9267 72.181 14.6733 72.181 14.38C72.181 14.1267 72.201 13.8933 72.241 13.68C72.281 13.28 72.301 13.0267 72.301 12.92C72.301 12.36 72.0277 11.9333 71.481 11.64C70.9343 11.3467 70.2543 11.2 69.441 11.2C68.2943 11.2 67.4143 11.4133 66.801 11.84C66.201 12.2533 65.901 12.84 65.901 13.6C65.901 14.1067 66.0543 14.54 66.361 14.9C66.681 15.26 67.0743 15.56 67.541 15.8C68.0077 16.04 68.661 16.3267 69.501 16.66C70.5143 17.0733 71.3277 17.4467 71.941 17.78C72.5543 18.1133 73.0743 18.5667 73.501 19.14C73.941 19.7133 74.161 20.42 74.161 21.26C74.161 22.8333 73.561 24.0467 72.361 24.9C71.1743 25.74 69.581 26.16 67.581 26.16ZM79.0882 26.1C77.7815 26.1 76.7615 25.7333 76.0282 25C75.3082 24.2533 74.9482 23.2733 74.9482 22.06C74.9482 20.98 75.1615 20.0333 75.5882 19.22C76.0149 18.4067 76.5682 17.78 77.2482 17.34C77.9282 16.9 78.6415 16.68 79.3882 16.68C80.1215 16.68 80.6882 16.9 81.0882 17.34C81.5015 17.7667 81.7082 18.32 81.7082 19C81.7082 19.56 81.5815 20.0333 81.3282 20.42C81.0882 20.8067 80.7682 21 80.3682 21C80.1149 21 79.9082 20.94 79.7482 20.82C79.6015 20.7 79.5282 20.5333 79.5282 20.32C79.5282 20.2267 79.5415 20.12 79.5682 20C79.5949 19.88 79.6149 19.7933 79.6282 19.74C79.6949 19.54 79.7282 19.3533 79.7282 19.18C79.7282 19.0067 79.6815 18.8733 79.5882 18.78C79.5082 18.6867 79.3882 18.64 79.2282 18.64C78.9215 18.64 78.6349 18.78 78.3682 19.06C78.1015 19.3267 77.8882 19.6933 77.7282 20.16C77.5682 20.6267 77.4882 21.14 77.4882 21.7C77.4882 23.2467 78.1615 24.02 79.5082 24.02C80.0549 24.02 80.6415 23.84 81.2682 23.48C81.9082 23.1067 82.5349 22.5533 83.1482 21.82C83.3082 21.6333 83.4882 21.54 83.6882 21.54C83.8615 21.54 83.9949 21.62 84.0882 21.78C84.1949 21.94 84.2482 22.16 84.2482 22.44C84.2482 22.9467 84.1215 23.36 83.8682 23.68C83.2415 24.4533 82.4882 25.0533 81.6082 25.48C80.7415 25.8933 79.9015 26.1 79.0882 26.1ZM83.4515 26.1C82.9448 26.1 82.5848 25.8333 82.3715 25.3C82.1715 24.7667 82.0715 23.9133 82.0715 22.74C82.0715 21.0067 82.3182 19.36 82.8115 17.8C82.9315 17.4133 83.1248 17.1333 83.3915 16.96C83.6715 16.7733 84.0582 16.68 84.5515 16.68C84.8182 16.68 85.0048 16.7133 85.1115 16.78C85.2182 16.8467 85.2715 16.9733 85.2715 17.16C85.2715 17.3733 85.1715 17.8533 84.9715 18.6C84.8382 19.1333 84.7315 19.6 84.6515 20C84.5715 20.4 84.5048 20.8933 84.4515 21.48C84.8915 20.3333 85.3848 19.4 85.9315 18.68C86.4782 17.96 87.0115 17.4467 87.5315 17.14C88.0648 16.8333 88.5515 16.68 88.9915 16.68C89.8582 16.68 90.2915 17.1133 90.2915 17.98C90.2915 18.1533 90.2315 18.5733 90.1115 19.24C90.0048 19.7733 89.9515 20.1067 89.9515 20.24C89.9515 20.7067 90.1182 20.94 90.4515 20.94C90.8248 20.94 91.3048 20.6467 91.8915 20.06C92.0648 19.8867 92.2448 19.8 92.4315 19.8C92.6048 19.8 92.7382 19.88 92.8315 20.04C92.9382 20.1867 92.9915 20.3867 92.9915 20.64C92.9915 21.1333 92.8582 21.52 92.5915 21.8C92.2182 22.1867 91.7782 22.52 91.2715 22.8C90.7782 23.0667 90.2515 23.2 89.6915 23.2C88.9848 23.2 88.4448 23.02 88.0715 22.66C87.7115 22.3 87.5315 21.8133 87.5315 21.2C87.5315 21 87.5515 20.8 87.5915 20.6C87.6182 20.3333 87.6315 20.1533 87.6315 20.06C87.6315 19.8467 87.5582 19.74 87.4115 19.74C87.2115 19.74 86.9448 19.9667 86.6115 20.42C86.2915 20.86 85.9715 21.4467 85.6515 22.18C85.3315 22.9133 85.0715 23.6867 84.8715 24.5C84.7248 25.1267 84.5515 25.5533 84.3515 25.78C84.1648 25.9933 83.8648 26.1 83.4515 26.1ZM100.733 19.86C100.906 19.86 101.04 19.9467 101.133 20.12C101.226 20.2933 101.273 20.5133 101.273 20.78C101.273 21.42 101.08 21.8 100.693 21.92C99.893 22.2 99.013 22.36 98.053 22.4C97.7997 23.52 97.2997 24.42 96.553 25.1C95.8064 25.7667 94.9597 26.1 94.013 26.1C93.213 26.1 92.5264 25.9067 91.953 25.52C91.393 25.1333 90.9664 24.62 90.673 23.98C90.3797 23.34 90.233 22.6467 90.233 21.9C90.233 20.8867 90.4264 19.9867 90.813 19.2C91.1997 18.4 91.733 17.78 92.413 17.34C93.093 16.8867 93.8464 16.66 94.673 16.66C95.6864 16.66 96.4997 17.0133 97.113 17.72C97.7397 18.4133 98.1064 19.2733 98.213 20.3C98.8397 20.26 99.5864 20.1267 100.453 19.9C100.56 19.8733 100.653 19.86 100.733 19.86ZM94.173 23.98C94.5997 23.98 94.9664 23.8067 95.273 23.46C95.593 23.1133 95.8064 22.6133 95.913 21.96C95.4997 21.68 95.1797 21.3133 94.953 20.86C94.7397 20.4067 94.633 19.9267 94.633 19.42C94.633 19.2067 94.653 18.9933 94.693 18.78H94.593C94.0597 18.78 93.613 19.04 93.253 19.56C92.9064 20.0667 92.733 20.7867 92.733 21.72C92.733 22.4533 92.873 23.0133 93.153 23.4C93.4464 23.7867 93.7864 23.98 94.173 23.98ZM106.536 21.54C106.71 21.54 106.843 21.62 106.936 21.78C107.043 21.94 107.096 22.16 107.096 22.44C107.096 22.9733 106.97 23.3867 106.716 23.68C106.143 24.3867 105.516 24.9667 104.836 25.42C104.17 25.8733 103.41 26.1 102.556 26.1C101.383 26.1 100.51 25.5667 99.9365 24.5C99.3765 23.4333 99.0965 22.0533 99.0965 20.36C99.0965 18.7333 99.3031 16.88 99.7165 14.8C100.143 12.72 100.763 10.9333 101.576 9.44C102.403 7.94667 103.383 7.2 104.516 7.2C105.156 7.2 105.656 7.5 106.016 8.1C106.39 8.68667 106.576 9.53333 106.576 10.64C106.576 12.2267 106.136 14.0667 105.256 16.16C104.376 18.2533 103.183 20.3267 101.676 22.38C101.77 22.9267 101.923 23.32 102.136 23.56C102.35 23.7867 102.63 23.9 102.976 23.9C103.523 23.9 104.003 23.7467 104.416 23.44C104.83 23.12 105.356 22.58 105.996 21.82C106.156 21.6333 106.336 21.54 106.536 21.54ZM104.076 9.18C103.77 9.18 103.423 9.73333 103.036 10.84C102.65 11.9467 102.31 13.32 102.016 14.96C101.723 16.6 101.563 18.1733 101.536 19.68C102.483 18.12 103.236 16.56 103.796 15C104.356 13.4267 104.636 11.9933 104.636 10.7C104.636 9.68667 104.45 9.18 104.076 9.18ZM110.66 23.18C110.807 23.0467 110.953 22.98 111.1 22.98C111.26 22.98 111.387 23.0733 111.48 23.26C111.587 23.4333 111.64 23.6467 111.64 23.9C111.64 24.46 111.44 24.9067 111.04 25.24C110.347 25.8133 109.56 26.1 108.68 26.1C107.413 26.1 106.487 25.5733 105.9 24.52C105.313 23.4533 105.02 22.0667 105.02 20.36C105.02 18.7333 105.227 16.88 105.64 14.8C106.067 12.72 106.687 10.9333 107.5 9.44C108.327 7.94667 109.307 7.2 110.44 7.2C111.08 7.2 111.58 7.5 111.94 8.1C112.313 8.68667 112.5 9.53333 112.5 10.64C112.5 12.2267 112.06 14.0667 111.18 16.16C110.313 18.2533 109.127 20.32 107.62 22.36C107.713 22.9067 107.88 23.3 108.12 23.54C108.36 23.78 108.687 23.9 109.1 23.9C109.327 23.9 109.58 23.8333 109.86 23.7C110.153 23.5667 110.42 23.3933 110.66 23.18ZM110 9.18C109.693 9.18 109.347 9.73333 108.96 10.84C108.573 11.9467 108.233 13.32 107.94 14.96C107.647 16.6 107.487 18.1733 107.46 19.68C108.407 18.12 109.16 16.56 109.72 15C110.28 13.4267 110.56 11.9933 110.56 10.7C110.56 9.68667 110.373 9.18 110 9.18ZM127.696 21.54C127.87 21.54 128.003 21.62 128.096 21.78C128.203 21.94 128.256 22.16 128.256 22.44C128.256 22.9733 128.13 23.3867 127.876 23.68C127.33 24.3467 126.73 24.92 126.076 25.4C125.423 25.8667 124.776 26.1 124.136 26.1C123.123 26.1 122.35 25.5067 121.816 24.32C121.256 25.0267 120.763 25.5 120.336 25.74C119.923 25.98 119.436 26.1 118.876 26.1C118.063 26.1 117.39 25.8 116.856 25.2C116.336 24.5867 116.076 23.7933 116.076 22.82C116.076 21.7533 116.303 20.7667 116.756 19.86C117.21 18.94 117.83 18.1933 118.616 17.62C119.416 17.0333 120.31 16.6867 121.296 16.58C121.55 13.9933 122.03 11.7867 122.736 9.96C123.456 8.12 124.396 7.2 125.556 7.2C126.13 7.2 126.603 7.46 126.976 7.98C127.363 8.5 127.556 9.28667 127.556 10.34C127.556 11.8333 127.19 13.58 126.456 15.58C125.723 17.58 124.743 19.6333 123.516 21.74C123.57 22.5133 123.683 23.0667 123.856 23.4C124.043 23.7333 124.276 23.9 124.556 23.9C124.916 23.9 125.283 23.74 125.656 23.42C126.03 23.1 126.53 22.5667 127.156 21.82C127.316 21.6333 127.496 21.54 127.696 21.54ZM125.336 9.16C125.083 9.16 124.83 9.61333 124.576 10.52C124.323 11.4133 124.103 12.5867 123.916 14.04C123.743 15.4933 123.616 17.0133 123.536 18.6C125.03 15.3467 125.776 12.7333 125.776 10.76C125.776 10.2533 125.73 9.86 125.636 9.58C125.556 9.3 125.456 9.16 125.336 9.16ZM119.576 24.08C119.83 24.08 120.083 23.98 120.336 23.78C120.59 23.5667 120.91 23.18 121.296 22.62C121.163 21.9 121.096 21.0933 121.096 20.2C121.096 19.88 121.11 19.36 121.136 18.64C120.403 18.8667 119.79 19.36 119.296 20.12C118.816 20.8667 118.576 21.7 118.576 22.62C118.576 23.5933 118.91 24.08 119.576 24.08ZM136.229 19.86C136.402 19.86 136.536 19.9467 136.629 20.12C136.722 20.2933 136.769 20.5133 136.769 20.78C136.769 21.42 136.576 21.8 136.189 21.92C135.389 22.2 134.509 22.36 133.549 22.4C133.296 23.52 132.796 24.42 132.049 25.1C131.302 25.7667 130.456 26.1 129.509 26.1C128.709 26.1 128.022 25.9067 127.449 25.52C126.889 25.1333 126.462 24.62 126.169 23.98C125.876 23.34 125.729 22.6467 125.729 21.9C125.729 20.8867 125.922 19.9867 126.309 19.2C126.696 18.4 127.229 17.78 127.909 17.34C128.589 16.8867 129.342 16.66 130.169 16.66C131.182 16.66 131.996 17.0133 132.609 17.72C133.236 18.4133 133.602 19.2733 133.709 20.3C134.336 20.26 135.082 20.1267 135.949 19.9C136.056 19.8733 136.149 19.86 136.229 19.86ZM129.669 23.98C130.096 23.98 130.462 23.8067 130.769 23.46C131.089 23.1133 131.302 22.6133 131.409 21.96C130.996 21.68 130.676 21.3133 130.449 20.86C130.236 20.4067 130.129 19.9267 130.129 19.42C130.129 19.2067 130.149 18.9933 130.189 18.78H130.089C129.556 18.78 129.109 19.04 128.749 19.56C128.402 20.0667 128.229 20.7867 128.229 21.72C128.229 22.4533 128.369 23.0133 128.649 23.4C128.942 23.7867 129.282 23.98 129.669 23.98ZM149.568 19.92C149.608 19.9067 149.675 19.9 149.768 19.9C149.968 19.9 150.121 19.9667 150.228 20.1C150.335 20.2333 150.388 20.4133 150.388 20.64C150.388 21.0533 150.308 21.38 150.148 21.62C149.988 21.8467 149.748 22.0133 149.428 22.12C148.815 22.32 148.161 22.42 147.468 22.42C146.881 22.42 146.328 22.34 145.808 22.18C145.421 22.8067 144.995 23.4533 144.528 24.12C143.995 24.88 143.535 25.4 143.148 25.68C142.775 25.96 142.348 26.1 141.868 26.1C141.335 26.1 140.928 25.8933 140.648 25.48C140.381 25.0667 140.215 24.3867 140.148 23.44L140.048 21.98C139.635 23.1 139.261 23.9533 138.928 24.54C138.608 25.1267 138.281 25.5333 137.948 25.76C137.628 25.9867 137.248 26.1 136.808 26.1C136.261 26.1 135.828 25.8867 135.508 25.46C135.201 25.0333 135.008 24.36 134.928 23.44C134.768 21.5733 134.688 19.94 134.688 18.54V17.84C134.701 17.4 134.821 17.0933 135.048 16.92C135.275 16.7467 135.615 16.66 136.068 16.66C136.415 16.66 136.668 16.74 136.828 16.9C137.001 17.0467 137.088 17.3 137.088 17.66C137.088 19.1933 137.181 21.1867 137.368 23.64C138.275 21.7333 139.108 19.7467 139.868 17.68C140.015 17.28 140.188 17.0133 140.388 16.88C140.601 16.7333 140.855 16.66 141.148 16.66C141.508 16.66 141.755 16.7333 141.888 16.88C142.035 17.0267 142.108 17.2867 142.108 17.66C142.108 19.1933 142.201 21.1867 142.388 23.64C143.188 22.4533 143.788 21.5067 144.188 20.8C143.988 20.4133 143.888 19.9533 143.888 19.42C143.888 18.9667 143.988 18.5267 144.188 18.1C144.388 17.6733 144.661 17.3267 145.008 17.06C145.355 16.7933 145.748 16.66 146.188 16.66C146.575 16.66 146.888 16.8 147.128 17.08C147.368 17.3467 147.488 17.74 147.488 18.26C147.488 18.86 147.328 19.5467 147.008 20.32C147.515 20.2933 148.188 20.1933 149.028 20.02L149.568 19.92ZM149.472 26.1C148.965 26.1 148.605 25.8333 148.392 25.3C148.192 24.7667 148.092 23.9133 148.092 22.74C148.092 21.0067 148.338 19.36 148.832 17.8C148.952 17.4133 149.145 17.1333 149.412 16.96C149.692 16.7733 150.078 16.68 150.572 16.68C150.838 16.68 151.025 16.7133 151.132 16.78C151.238 16.8467 151.292 16.9733 151.292 17.16C151.292 17.3733 151.192 17.8533 150.992 18.6C150.858 19.1333 150.752 19.6 150.672 20C150.592 20.4 150.525 20.8933 150.472 21.48C150.912 20.3333 151.405 19.4 151.952 18.68C152.498 17.96 153.032 17.4467 153.552 17.14C154.085 16.8333 154.572 16.68 155.012 16.68C155.438 16.68 155.758 16.7933 155.972 17.02C156.198 17.2333 156.312 17.5533 156.312 17.98C156.312 18.3267 156.238 18.98 156.092 19.94C155.958 20.7533 155.852 21.5267 155.772 22.26C155.692 22.98 155.652 23.7867 155.652 24.68C155.652 25.1867 155.545 25.5533 155.332 25.78C155.132 25.9933 154.798 26.1 154.332 26.1C153.892 26.1 153.572 25.9867 153.372 25.76C153.172 25.5333 153.072 25.1933 153.072 24.74C153.072 24.2067 153.165 23.3267 153.352 22.1C153.512 21.0333 153.592 20.3533 153.592 20.06C153.592 19.8467 153.518 19.74 153.372 19.74C153.198 19.74 152.952 19.9667 152.632 20.42C152.325 20.86 152.005 21.4467 151.672 22.18C151.352 22.9133 151.092 23.6867 150.892 24.5C150.745 25.1267 150.572 25.5533 150.372 25.78C150.185 25.9933 149.885 26.1 149.472 26.1ZM170.752 21.54C170.926 21.54 171.059 21.62 171.152 21.78C171.259 21.94 171.312 22.16 171.312 22.44C171.312 22.9733 171.186 23.3867 170.932 23.68C170.359 24.3867 169.732 24.9667 169.052 25.42C168.372 25.8733 167.592 26.1 166.712 26.1C163.992 26.1 162.632 24.1867 162.632 20.36C162.632 19.7733 162.652 19.18 162.692 18.58H161.912C161.512 18.58 161.239 18.5067 161.092 18.36C160.959 18.2133 160.892 17.98 160.892 17.66C160.892 16.9133 161.192 16.54 161.792 16.54H162.932C163.159 15.0733 163.506 13.7333 163.972 12.52C164.439 11.3067 164.999 10.34 165.652 9.62C166.319 8.9 167.032 8.54 167.792 8.54C168.352 8.54 168.792 8.78667 169.112 9.28C169.432 9.77333 169.592 10.3933 169.592 11.14C169.592 13.2067 168.726 15.0067 166.992 16.54H169.232C169.446 16.54 169.599 16.5867 169.692 16.68C169.786 16.7733 169.832 16.9467 169.832 17.2C169.832 18.12 169.079 18.58 167.572 18.58H165.132C165.106 19.2467 165.092 19.7667 165.092 20.14C165.092 21.5267 165.252 22.5 165.572 23.06C165.906 23.62 166.426 23.9 167.132 23.9C167.706 23.9 168.212 23.7267 168.652 23.38C169.092 23.0333 169.612 22.5133 170.212 21.82C170.372 21.6333 170.552 21.54 170.752 21.54ZM167.252 10.46C167.052 10.46 166.826 10.7133 166.572 11.22C166.332 11.7133 166.099 12.4067 165.872 13.3C165.659 14.18 165.479 15.16 165.332 16.24C166.119 15.56 166.706 14.8 167.092 13.96C167.492 13.1067 167.692 12.3333 167.692 11.64C167.692 10.8533 167.546 10.46 167.252 10.46ZM172.464 26.1C171.677 26.1 171.004 25.9067 170.444 25.52C169.897 25.12 169.484 24.6 169.204 23.96C168.924 23.32 168.784 22.6333 168.784 21.9C168.784 20.8867 168.97 19.9867 169.344 19.2C169.73 18.4 170.25 17.78 170.904 17.34C171.557 16.8867 172.29 16.66 173.104 16.66C173.89 16.66 174.564 16.86 175.124 17.26C175.684 17.6467 176.104 18.16 176.384 18.8C176.664 19.44 176.804 20.1267 176.804 20.86C176.804 21.8733 176.61 22.78 176.224 23.58C175.837 24.3667 175.31 24.9867 174.644 25.44C173.99 25.88 173.264 26.1 172.464 26.1ZM172.684 23.94C173.137 23.94 173.517 23.6933 173.824 23.2C174.144 22.7067 174.304 21.9867 174.304 21.04C174.304 20.3067 174.17 19.7533 173.904 19.38C173.637 19.0067 173.317 18.82 172.944 18.82C172.464 18.82 172.064 19.0667 171.744 19.56C171.437 20.04 171.284 20.76 171.284 21.72C171.284 22.48 171.417 23.04 171.684 23.4C171.95 23.76 172.284 23.94 172.684 23.94ZM189.819 21.54C189.993 21.54 190.126 21.62 190.219 21.78C190.326 21.94 190.379 22.16 190.379 22.44C190.379 22.9733 190.253 23.3867 189.999 23.68C189.426 24.3867 188.799 24.9667 188.119 25.42C187.453 25.8733 186.693 26.1 185.839 26.1C184.666 26.1 183.793 25.5667 183.219 24.5C182.659 23.4333 182.379 22.0533 182.379 20.36C182.379 18.7333 182.586 16.88 182.999 14.8C183.426 12.72 184.046 10.9333 184.859 9.44C185.686 7.94667 186.666 7.2 187.799 7.2C188.439 7.2 188.939 7.5 189.299 8.1C189.673 8.68667 189.859 9.53333 189.859 10.64C189.859 12.2267 189.419 14.0667 188.539 16.16C187.659 18.2533 186.466 20.3267 184.959 22.38C185.053 22.9267 185.206 23.32 185.419 23.56C185.633 23.7867 185.913 23.9 186.259 23.9C186.806 23.9 187.286 23.7467 187.699 23.44C188.113 23.12 188.639 22.58 189.279 21.82C189.439 21.6333 189.619 21.54 189.819 21.54ZM187.359 9.18C187.053 9.18 186.706 9.73333 186.319 10.84C185.933 11.9467 185.593 13.32 185.299 14.96C185.006 16.6 184.846 18.1733 184.819 19.68C185.766 18.12 186.519 16.56 187.079 15C187.639 13.4267 187.919 11.9933 187.919 10.7C187.919 9.68667 187.733 9.18 187.359 9.18ZM197.083 21.54C197.256 21.54 197.389 21.62 197.483 21.78C197.589 21.94 197.643 22.16 197.643 22.44C197.643 22.9733 197.516 23.3867 197.263 23.68C196.769 24.28 196.069 24.8333 195.163 25.34C194.269 25.8467 193.309 26.1 192.283 26.1C190.883 26.1 189.796 25.72 189.023 24.96C188.249 24.2 187.863 23.16 187.863 21.84C187.863 20.92 188.056 20.0667 188.443 19.28C188.829 18.48 189.363 17.8467 190.043 17.38C190.736 16.9133 191.516 16.68 192.383 16.68C193.156 16.68 193.776 16.9133 194.243 17.38C194.709 17.8333 194.943 18.4533 194.943 19.24C194.943 20.16 194.609 20.9533 193.943 21.62C193.289 22.2733 192.176 22.7933 190.603 23.18C190.936 23.7933 191.569 24.1 192.503 24.1C193.103 24.1 193.783 23.8933 194.543 23.48C195.316 23.0533 195.983 22.5 196.543 21.82C196.703 21.6333 196.883 21.54 197.083 21.54ZM192.043 18.64C191.549 18.64 191.129 18.9267 190.783 19.5C190.449 20.0733 190.283 20.7667 190.283 21.58V21.62C191.069 21.4333 191.689 21.1533 192.143 20.78C192.596 20.4067 192.823 19.9733 192.823 19.48C192.823 19.2267 192.749 19.0267 192.603 18.88C192.469 18.72 192.283 18.64 192.043 18.64ZM197.777 26.1C196.95 26.1 196.29 25.8 195.797 25.2C195.303 24.6 195.057 23.8133 195.057 22.84C195.057 21.7733 195.303 20.7667 195.797 19.82C196.29 18.86 196.943 18.0933 197.757 17.52C198.583 16.9333 199.457 16.64 200.377 16.64C200.67 16.64 200.863 16.7 200.957 16.82C201.063 16.9267 201.15 17.1267 201.217 17.42C201.497 17.3667 201.79 17.34 202.097 17.34C202.75 17.34 203.077 17.5733 203.077 18.04C203.077 18.32 202.977 18.9867 202.777 20.04C202.47 21.5733 202.317 22.64 202.317 23.24C202.317 23.44 202.363 23.6 202.457 23.72C202.563 23.84 202.697 23.9 202.857 23.9C203.11 23.9 203.417 23.74 203.777 23.42C204.137 23.0867 204.623 22.5533 205.237 21.82C205.397 21.6333 205.577 21.54 205.777 21.54C205.95 21.54 206.083 21.62 206.177 21.78C206.283 21.94 206.337 22.16 206.337 22.44C206.337 22.9733 206.21 23.3867 205.957 23.68C205.41 24.36 204.83 24.9333 204.217 25.4C203.603 25.8667 203.01 26.1 202.437 26.1C201.997 26.1 201.59 25.9533 201.217 25.66C200.857 25.3533 200.583 24.94 200.397 24.42C199.703 25.54 198.83 26.1 197.777 26.1ZM198.497 24.08C198.79 24.08 199.07 23.9067 199.337 23.56C199.603 23.2133 199.797 22.7533 199.917 22.18L200.657 18.5C200.097 18.5133 199.577 18.7267 199.097 19.14C198.63 19.54 198.257 20.0733 197.977 20.74C197.697 21.4067 197.557 22.1133 197.557 22.86C197.557 23.2733 197.637 23.58 197.797 23.78C197.97 23.98 198.203 24.08 198.497 24.08ZM205.531 26.1C205.025 26.1 204.665 25.8333 204.451 25.3C204.251 24.7667 204.151 23.9133 204.151 22.74C204.151 21.0067 204.398 19.36 204.891 17.8C205.011 17.4133 205.205 17.1333 205.471 16.96C205.751 16.7733 206.138 16.68 206.631 16.68C206.898 16.68 207.085 16.7133 207.191 16.78C207.298 16.8467 207.351 16.9733 207.351 17.16C207.351 17.3733 207.251 17.8533 207.051 18.6C206.918 19.1333 206.811 19.6 206.731 20C206.651 20.4 206.585 20.8933 206.531 21.48C206.971 20.3333 207.465 19.4 208.011 18.68C208.558 17.96 209.091 17.4467 209.611 17.14C210.145 16.8333 210.631 16.68 211.071 16.68C211.938 16.68 212.371 17.1133 212.371 17.98C212.371 18.1533 212.311 18.5733 212.191 19.24C212.085 19.7733 212.031 20.1067 212.031 20.24C212.031 20.7067 212.198 20.94 212.531 20.94C212.905 20.94 213.385 20.6467 213.971 20.06C214.145 19.8867 214.325 19.8 214.511 19.8C214.685 19.8 214.818 19.88 214.911 20.04C215.018 20.1867 215.071 20.3867 215.071 20.64C215.071 21.1333 214.938 21.52 214.671 21.8C214.298 22.1867 213.858 22.52 213.351 22.8C212.858 23.0667 212.331 23.2 211.771 23.2C211.065 23.2 210.525 23.02 210.151 22.66C209.791 22.3 209.611 21.8133 209.611 21.2C209.611 21 209.631 20.8 209.671 20.6C209.698 20.3333 209.711 20.1533 209.711 20.06C209.711 19.8467 209.638 19.74 209.491 19.74C209.291 19.74 209.025 19.9667 208.691 20.42C208.371 20.86 208.051 21.4467 207.731 22.18C207.411 22.9133 207.151 23.6867 206.951 24.5C206.805 25.1267 206.631 25.5533 206.431 25.78C206.245 25.9933 205.945 26.1 205.531 26.1ZM214.033 26.1C213.526 26.1 213.166 25.8333 212.953 25.3C212.753 24.7667 212.653 23.9133 212.653 22.74C212.653 21.0067 212.899 19.36 213.393 17.8C213.513 17.4133 213.706 17.1333 213.973 16.96C214.253 16.7733 214.639 16.68 215.133 16.68C215.399 16.68 215.586 16.7133 215.693 16.78C215.799 16.8467 215.853 16.9733 215.853 17.16C215.853 17.3733 215.753 17.8533 215.553 18.6C215.419 19.1333 215.313 19.6 215.233 20C215.153 20.4 215.086 20.8933 215.033 21.48C215.473 20.3333 215.966 19.4 216.513 18.68C217.059 17.96 217.593 17.4467 218.113 17.14C218.646 16.8333 219.133 16.68 219.573 16.68C219.999 16.68 220.319 16.7933 220.533 17.02C220.759 17.2333 220.873 17.5533 220.873 17.98C220.873 18.3267 220.799 18.98 220.653 19.94C220.519 20.7533 220.413 21.5267 220.333 22.26C220.253 22.98 220.213 23.7867 220.213 24.68C220.213 25.1867 220.106 25.5533 219.893 25.78C219.693 25.9933 219.359 26.1 218.893 26.1C218.453 26.1 218.133 25.9867 217.933 25.76C217.733 25.5333 217.633 25.1933 217.633 24.74C217.633 24.2067 217.726 23.3267 217.913 22.1C218.073 21.0333 218.153 20.3533 218.153 20.06C218.153 19.8467 218.079 19.74 217.933 19.74C217.759 19.74 217.513 19.9667 217.193 20.42C216.886 20.86 216.566 21.4467 216.233 22.18C215.913 22.9133 215.653 23.6867 215.453 24.5C215.306 25.1267 215.133 25.5533 214.933 25.78C214.746 25.9933 214.446 26.1 214.033 26.1ZM227.813 26.1C227.307 26.1 226.947 25.8333 226.733 25.3C226.533 24.7667 226.433 23.9133 226.433 22.74C226.433 21.0067 226.68 19.36 227.173 17.8C227.293 17.4133 227.487 17.1333 227.753 16.96C228.033 16.7733 228.42 16.68 228.913 16.68C229.18 16.68 229.367 16.7133 229.473 16.78C229.58 16.8467 229.633 16.9733 229.633 17.16C229.633 17.3733 229.533 17.8533 229.333 18.6C229.2 19.1333 229.093 19.6 229.013 20C228.933 20.3867 228.867 20.8733 228.813 21.46C229.173 20.42 229.6 19.54 230.093 18.82C230.6 18.1 231.113 17.5667 231.633 17.22C232.167 16.86 232.667 16.68 233.133 16.68C233.6 16.68 233.927 16.7867 234.113 17C234.313 17.2133 234.413 17.54 234.413 17.98C234.413 18.4067 234.287 19.18 234.033 20.3C233.927 20.78 233.853 21.14 233.813 21.38C234.48 19.74 235.22 18.5467 236.033 17.8C236.847 17.0533 237.607 16.68 238.313 16.68C239.18 16.68 239.613 17.1133 239.613 17.98C239.613 18.5 239.467 19.44 239.173 20.8C238.92 21.96 238.793 22.7267 238.793 23.1C238.793 23.6333 238.987 23.9 239.373 23.9C239.64 23.9 239.953 23.74 240.313 23.42C240.687 23.0867 241.18 22.5533 241.793 21.82C241.953 21.6333 242.133 21.54 242.333 21.54C242.507 21.54 242.64 21.62 242.733 21.78C242.84 21.94 242.893 22.16 242.893 22.44C242.893 22.9733 242.767 23.3867 242.513 23.68C241.94 24.3867 241.32 24.9667 240.653 25.42C240 25.8733 239.253 26.1 238.413 26.1C237.733 26.1 237.22 25.9067 236.873 25.52C236.527 25.12 236.353 24.5467 236.353 23.8C236.353 23.4267 236.447 22.76 236.633 21.8C236.807 20.96 236.893 20.38 236.893 20.06C236.893 19.8467 236.82 19.74 236.673 19.74C236.5 19.74 236.253 19.9667 235.933 20.42C235.613 20.86 235.293 21.4467 234.973 22.18C234.653 22.9133 234.393 23.6867 234.193 24.5C234.047 25.14 233.873 25.5667 233.673 25.78C233.487 25.9933 233.18 26.1 232.753 26.1C232.313 26.1 231.98 25.8933 231.753 25.48C231.54 25.0533 231.433 24.54 231.433 23.94C231.433 23.4333 231.5 22.7 231.633 21.74C231.74 20.8867 231.793 20.3267 231.793 20.06C231.793 19.8467 231.72 19.74 231.573 19.74C231.373 19.74 231.12 19.98 230.813 20.46C230.507 20.94 230.207 21.5533 229.913 22.3C229.633 23.0467 229.407 23.78 229.233 24.5C229.087 25.1267 228.913 25.5533 228.713 25.78C228.527 25.9933 228.227 26.1 227.813 26.1ZM250.876 19.86C251.049 19.86 251.183 19.9467 251.276 20.12C251.369 20.2933 251.416 20.5133 251.416 20.78C251.416 21.42 251.223 21.8 250.836 21.92C250.036 22.2 249.156 22.36 248.196 22.4C247.943 23.52 247.443 24.42 246.696 25.1C245.949 25.7667 245.103 26.1 244.156 26.1C243.356 26.1 242.669 25.9067 242.096 25.52C241.536 25.1333 241.109 24.62 240.816 23.98C240.523 23.34 240.376 22.6467 240.376 21.9C240.376 20.8867 240.569 19.9867 240.956 19.2C241.343 18.4 241.876 17.78 242.556 17.34C243.236 16.8867 243.989 16.66 244.816 16.66C245.829 16.66 246.643 17.0133 247.256 17.72C247.883 18.4133 248.249 19.2733 248.356 20.3C248.983 20.26 249.729 20.1267 250.596 19.9C250.703 19.8733 250.796 19.86 250.876 19.86ZM244.316 23.98C244.743 23.98 245.109 23.8067 245.416 23.46C245.736 23.1133 245.949 22.6133 246.056 21.96C245.643 21.68 245.323 21.3133 245.096 20.86C244.883 20.4067 244.776 19.9267 244.776 19.42C244.776 19.2067 244.796 18.9933 244.836 18.78H244.736C244.203 18.78 243.756 19.04 243.396 19.56C243.049 20.0667 242.876 20.7867 242.876 21.72C242.876 22.4533 243.016 23.0133 243.296 23.4C243.589 23.7867 243.929 23.98 244.316 23.98ZM250.519 26.1C250.013 26.1 249.653 25.8333 249.439 25.3C249.239 24.7667 249.139 23.9133 249.139 22.74C249.139 21.0067 249.386 19.36 249.879 17.8C249.999 17.4133 250.193 17.1333 250.459 16.96C250.739 16.7733 251.126 16.68 251.619 16.68C251.886 16.68 252.073 16.7133 252.179 16.78C252.286 16.8467 252.339 16.9733 252.339 17.16C252.339 17.3733 252.239 17.8533 252.039 18.6C251.906 19.1333 251.799 19.6 251.719 20C251.639 20.4 251.573 20.8933 251.519 21.48C251.959 20.3333 252.453 19.4 252.999 18.68C253.546 17.96 254.079 17.4467 254.599 17.14C255.133 16.8333 255.619 16.68 256.059 16.68C256.926 16.68 257.359 17.1133 257.359 17.98C257.359 18.1533 257.299 18.5733 257.179 19.24C257.073 19.7733 257.019 20.1067 257.019 20.24C257.019 20.7067 257.186 20.94 257.519 20.94C257.893 20.94 258.373 20.6467 258.959 20.06C259.133 19.8867 259.313 19.8 259.499 19.8C259.673 19.8 259.806 19.88 259.899 20.04C260.006 20.1867 260.059 20.3867 260.059 20.64C260.059 21.1333 259.926 21.52 259.659 21.8C259.286 22.1867 258.846 22.52 258.339 22.8C257.846 23.0667 257.319 23.2 256.759 23.2C256.053 23.2 255.513 23.02 255.139 22.66C254.779 22.3 254.599 21.8133 254.599 21.2C254.599 21 254.619 20.8 254.659 20.6C254.686 20.3333 254.699 20.1533 254.699 20.06C254.699 19.8467 254.626 19.74 254.479 19.74C254.279 19.74 254.013 19.9667 253.679 20.42C253.359 20.86 253.039 21.4467 252.719 22.18C252.399 22.9133 252.139 23.6867 251.939 24.5C251.793 25.1267 251.619 25.5533 251.419 25.78C251.233 25.9933 250.933 26.1 250.519 26.1ZM264.761 22.14C264.934 22.14 265.068 22.22 265.161 22.38C265.268 22.54 265.321 22.76 265.321 23.04C265.321 23.52 265.208 23.9333 264.981 24.28C264.608 24.8533 264.114 25.3 263.501 25.62C262.901 25.94 262.181 26.1 261.341 26.1C260.061 26.1 259.068 25.72 258.361 24.96C257.654 24.1867 257.301 23.1467 257.301 21.84C257.301 20.92 257.494 20.0667 257.881 19.28C258.268 18.48 258.801 17.8467 259.481 17.38C260.174 16.9133 260.954 16.68 261.821 16.68C262.594 16.68 263.214 16.9133 263.681 17.38C264.148 17.8333 264.381 18.4533 264.381 19.24C264.381 20.16 264.048 20.9533 263.381 21.62C262.728 22.2733 261.608 22.7933 260.021 23.18C260.341 23.7933 260.881 24.1 261.641 24.1C262.188 24.1 262.634 23.9733 262.981 23.72C263.341 23.4667 263.754 23.04 264.221 22.44C264.381 22.24 264.561 22.14 264.761 22.14ZM261.481 18.64C260.988 18.64 260.568 18.9267 260.221 19.5C259.888 20.0733 259.721 20.7667 259.721 21.58V21.62C260.508 21.4333 261.128 21.1533 261.581 20.78C262.034 20.4067 262.261 19.9733 262.261 19.48C262.261 19.2267 262.188 19.0267 262.041 18.88C261.908 18.72 261.721 18.64 261.481 18.64ZM268.362 21.32C268.095 21.32 267.875 21.26 267.702 21.14C267.529 21.02 267.442 20.8333 267.442 20.58L267.462 20.42C267.689 18.9267 267.995 17.2267 268.382 15.32C268.769 13.4133 269.129 11.7667 269.462 10.38C269.675 9.52667 270.255 9.1 271.202 9.1C272.055 9.1 272.482 9.37333 272.482 9.92C272.482 10.04 272.462 10.1733 272.422 10.32C272.075 11.7333 271.615 13.4467 271.042 15.46C270.469 17.46 269.922 19.2 269.402 20.68C269.255 21.1067 268.909 21.32 268.362 21.32ZM267.602 26.1C267.015 26.1 266.569 25.94 266.262 25.62C265.969 25.3 265.822 24.88 265.822 24.36C265.822 23.76 265.989 23.28 266.322 22.92C266.669 22.56 267.149 22.38 267.762 22.38C268.349 22.38 268.789 22.5267 269.082 22.82C269.389 23.1 269.542 23.52 269.542 24.08C269.542 24.6933 269.369 25.1867 269.022 25.56C268.675 25.92 268.202 26.1 267.602 26.1Z" fill="#3D3D3D"/>
</svg>
