<svg width="256" height="106" viewBox="0 0 256 106" fill="none" xmlns="http://www.w3.org/2000/svg">
<path d="M27.9205 91.512C22.2458 91.512 17.7018 90.4453 14.2885 88.312C10.8752 86.136 9.1685 82.8293 9.1685 78.392C9.1685 76.0453 9.57383 74.2533 10.3845 73.016C11.1952 71.7787 12.3898 71.16 13.9685 71.16C15.1205 71.16 16.0592 71.4587 16.7845 72.056C17.5098 72.6533 17.8725 73.4213 17.8725 74.36C17.8725 75.2133 17.8085 75.96 17.6805 76.6C17.6805 76.7707 17.6378 77.0693 17.5525 77.496C17.5098 77.9227 17.4885 78.3707 17.4885 78.84C17.4885 80.76 18.4485 82.1893 20.3685 83.128C22.3312 84.0667 25.0618 84.536 28.5605 84.536C32.1872 84.536 35.0245 83.896 37.0725 82.616C39.1205 81.2933 40.1445 79.4587 40.1445 77.112C40.1445 75.6613 39.6752 74.424 38.7365 73.4C37.7978 72.3333 36.6245 71.4587 35.2165 70.776C33.8085 70.0507 31.8245 69.176 29.2645 68.152C25.9792 66.872 23.2912 65.656 21.2005 64.504C19.1525 63.352 17.3818 61.7947 15.8885 59.832C14.4378 57.8267 13.7125 55.352 13.7125 52.408C13.7125 49.336 14.5232 46.6053 16.1445 44.216C17.8085 41.8267 20.1765 39.9707 23.2485 38.648C26.3632 37.3253 30.0112 36.664 34.1925 36.664C37.3072 36.664 40.1658 37.1333 42.7685 38.072C45.3712 38.968 47.4405 40.3547 48.9765 42.232C50.5552 44.1093 51.3445 46.4133 51.3445 49.144C51.3445 51.832 50.9392 53.8587 50.1285 55.224C49.3178 56.5893 48.1232 57.272 46.5445 57.272C45.4352 57.272 44.4965 56.9307 43.7285 56.248C43.0032 55.5653 42.6405 54.7547 42.6405 53.816C42.6405 53.0053 42.7045 52.2587 42.8325 51.576C42.9605 50.296 43.0245 49.4853 43.0245 49.144C43.0245 47.352 42.1498 45.9867 40.4005 45.048C38.6512 44.1093 36.4752 43.64 33.8725 43.64C30.2032 43.64 27.3872 44.3227 25.4245 45.688C23.5045 47.0107 22.5445 48.888 22.5445 51.32C22.5445 52.9413 23.0352 54.328 24.0165 55.48C25.0405 56.632 26.2992 57.592 27.7925 58.36C29.2858 59.128 31.3765 60.0453 34.0645 61.112C37.3072 62.4347 39.9098 63.6293 41.8725 64.696C43.8352 65.7627 45.4992 67.2133 46.8645 69.048C48.2725 70.8827 48.9765 73.144 48.9765 75.832C48.9765 80.8667 47.0565 84.7493 43.2165 87.48C39.4192 90.168 34.3205 91.512 27.9205 91.512ZM85.1595 71.352C85.7142 71.352 86.1408 71.6293 86.4395 72.184C86.7382 72.7387 86.8875 73.4427 86.8875 74.296C86.8875 76.344 86.2688 77.56 85.0315 77.944C82.4715 78.84 79.6555 79.352 76.5835 79.48C75.7728 83.064 74.1728 85.944 71.7835 88.12C69.3942 90.2533 66.6848 91.32 63.6555 91.32C61.0955 91.32 58.8982 90.7013 57.0635 89.464C55.2715 88.2267 53.9062 86.584 52.9675 84.536C52.0288 82.488 51.5595 80.2693 51.5595 77.88C51.5595 74.6373 52.1782 71.7573 53.4155 69.24C54.6528 66.68 56.3595 64.696 58.5355 63.288C60.7115 61.8373 63.1222 61.112 65.7675 61.112C69.0102 61.112 71.6128 62.2427 73.5755 64.504C75.5808 66.7227 76.7542 69.4747 77.0955 72.76C79.1008 72.632 81.4902 72.2053 84.2635 71.48C84.6048 71.3947 84.9035 71.352 85.1595 71.352ZM64.1675 84.536C65.5328 84.536 66.7062 83.9813 67.6875 82.872C68.7115 81.7627 69.3942 80.1627 69.7355 78.072C68.4128 77.176 67.3888 76.0027 66.6635 74.552C65.9808 73.1013 65.6395 71.5653 65.6395 69.944C65.6395 69.2613 65.7035 68.5787 65.8315 67.896H65.5115C63.8048 67.896 62.3755 68.728 61.2235 70.392C60.1142 72.0133 59.5595 74.3173 59.5595 77.304C59.5595 79.6507 60.0075 81.4427 60.9035 82.68C61.8422 83.9173 62.9302 84.536 64.1675 84.536ZM103.731 76.728C104.285 76.728 104.712 76.984 105.011 77.496C105.352 78.008 105.523 78.712 105.523 79.608C105.523 81.3147 105.117 82.6373 104.307 83.576C102.472 85.8373 100.467 87.6933 98.2905 89.144C96.1572 90.5947 93.7252 91.32 90.9945 91.32C87.2398 91.32 84.4452 89.6133 82.6105 86.2C80.8185 82.7867 79.9225 78.3707 79.9225 72.952C79.9225 67.7467 80.5838 61.816 81.9065 55.16C83.2718 48.504 85.2558 42.7867 87.8585 38.008C90.5038 33.2293 93.6398 30.84 97.2665 30.84C99.3145 30.84 100.915 31.8 102.067 33.72C103.261 35.5973 103.859 38.3067 103.859 41.848C103.859 46.9253 102.451 52.8133 99.6345 59.512C96.8185 66.2107 92.9998 72.8453 88.1785 79.416C88.4772 81.1653 88.9678 82.424 89.6505 83.192C90.3332 83.9173 91.2292 84.28 92.3385 84.28C94.0878 84.28 95.6238 83.7893 96.9465 82.808C98.2692 81.784 99.9545 80.056 102.003 77.624C102.515 77.0267 103.091 76.728 103.731 76.728ZM95.8585 37.176C94.8772 37.176 93.7678 38.9467 92.5305 42.488C91.2932 46.0293 90.2052 50.424 89.2665 55.672C88.3278 60.92 87.8158 65.9547 87.7305 70.776C90.7598 65.784 93.1705 60.792 94.9625 55.8C96.7545 50.7653 97.6505 46.1787 97.6505 42.04C97.6505 38.7973 97.0532 37.176 95.8585 37.176ZM104.957 91.32C103.037 91.32 101.459 90.4453 100.221 88.696C99.0268 86.904 98.4295 84.6853 98.4295 82.04C98.4295 78.84 98.6428 75.9173 99.0695 73.272C99.4962 70.584 100.2 67.7467 101.181 64.76C101.608 63.48 102.205 62.5627 102.973 62.008C103.741 61.4533 104.957 61.176 106.621 61.176C107.56 61.176 108.2 61.3253 108.541 61.624C108.925 61.9227 109.117 62.3707 109.117 62.968C109.117 63.3093 108.883 64.4613 108.413 66.424C107.987 68.0027 107.645 69.432 107.389 70.712C106.536 75.192 106.109 78.1787 106.109 79.672C106.109 80.568 106.216 81.208 106.429 81.592C106.643 81.9333 106.984 82.104 107.453 82.104C108.093 82.104 108.883 81.464 109.821 80.184C110.803 78.904 111.827 76.9627 112.893 74.36C114.003 71.7573 115.069 68.5573 116.093 64.76C116.435 63.48 116.947 62.5627 117.629 62.008C118.355 61.4533 119.421 61.176 120.83 61.176C121.811 61.176 122.493 61.304 122.877 61.56C123.261 61.7733 123.453 62.2 123.453 62.84C123.453 63.9067 122.92 66.8293 121.854 71.608C120.659 77.0693 120.061 80.44 120.061 81.72C120.061 82.5307 120.232 83.1707 120.573 83.64C120.915 84.0667 121.363 84.28 121.917 84.28C122.771 84.28 123.773 83.768 124.925 82.744C126.12 81.6773 127.699 79.9707 129.661 77.624C130.174 77.0267 130.75 76.728 131.389 76.728C131.944 76.728 132.371 76.984 132.669 77.496C133.011 78.008 133.181 78.712 133.181 79.608C133.181 81.3147 132.776 82.6373 131.965 83.576C130.131 85.8373 128.147 87.6933 126.014 89.144C123.923 90.5947 121.533 91.32 118.845 91.32C116.797 91.32 115.283 90.5307 114.301 88.952C113.363 87.3733 112.893 85.1547 112.893 82.296C112.168 85.1973 111.08 87.4373 109.629 89.016C108.179 90.552 106.621 91.32 104.957 91.32ZM154.616 76.728C155.171 76.728 155.597 76.984 155.896 77.496C156.237 78.008 156.408 78.712 156.408 79.608C156.408 81.3147 156.003 82.6373 155.192 83.576C153.357 85.8373 151.352 87.6933 149.176 89.144C147 90.5947 144.504 91.32 141.688 91.32C132.984 91.32 128.632 85.1973 128.632 72.952C128.632 71.0747 128.696 69.176 128.824 67.256H126.328C125.048 67.256 124.173 67.0213 123.704 66.552C123.277 66.0827 123.064 65.336 123.064 64.312C123.064 61.9227 124.024 60.728 125.944 60.728H129.592C130.317 56.0347 131.427 51.7467 132.92 47.864C134.413 43.9813 136.205 40.888 138.296 38.584C140.429 36.28 142.712 35.128 145.144 35.128C146.936 35.128 148.344 35.9173 149.368 37.496C150.392 39.0747 150.904 41.0587 150.904 43.448C150.904 50.0613 148.131 55.8213 142.584 60.728H149.752C150.435 60.728 150.925 60.8773 151.224 61.176C151.523 61.4747 151.672 62.0293 151.672 62.84C151.672 65.784 149.261 67.256 144.44 67.256H136.632C136.547 69.3893 136.504 71.0533 136.504 72.248C136.504 76.6853 137.016 79.8 138.04 81.592C139.107 83.384 140.771 84.28 143.032 84.28C144.867 84.28 146.488 83.7253 147.896 82.616C149.304 81.5067 150.968 79.8427 152.888 77.624C153.4 77.0267 153.976 76.728 154.616 76.728ZM143.416 41.272C142.776 41.272 142.051 42.0827 141.24 43.704C140.472 45.2827 139.725 47.5013 139 50.36C138.317 53.176 137.741 56.312 137.272 59.768C139.789 57.592 141.667 55.16 142.904 52.472C144.184 49.7413 144.824 47.2667 144.824 45.048C144.824 42.5307 144.355 41.272 143.416 41.272ZM157.661 56.952C155.869 56.952 154.525 56.5467 153.629 55.736C152.733 54.8827 152.285 53.7093 152.285 52.216C152.285 50.7227 152.861 49.4853 154.013 48.504C155.208 47.48 156.68 46.968 158.429 46.968C160.008 46.968 161.288 47.352 162.269 48.12C163.25 48.888 163.741 49.976 163.741 51.384C163.741 53.0907 163.186 54.456 162.077 55.48C160.968 56.4613 159.496 56.952 157.661 56.952ZM157.149 91.32C154.376 91.32 152.349 90.3387 151.069 88.376C149.832 86.4133 149.213 83.8107 149.213 80.568C149.213 78.648 149.448 76.1947 149.917 73.208C150.429 70.1787 151.069 67.3627 151.837 64.76C152.221 63.3947 152.733 62.456 153.373 61.944C154.013 61.432 155.037 61.176 156.445 61.176C158.621 61.176 159.709 61.9013 159.709 63.352C159.709 64.4187 159.304 66.8933 158.493 70.776C157.469 75.4693 156.957 78.648 156.957 80.312C156.957 81.592 157.128 82.5733 157.469 83.256C157.81 83.9387 158.386 84.28 159.197 84.28C159.965 84.28 160.925 83.7467 162.077 82.68C163.229 81.6133 164.765 79.928 166.685 77.624C167.197 77.0267 167.773 76.728 168.413 76.728C168.968 76.728 169.394 76.984 169.693 77.496C170.034 78.008 170.205 78.712 170.205 79.608C170.205 81.3147 169.8 82.6373 168.989 83.576C164.765 88.7387 160.818 91.32 157.149 91.32ZM195.747 71.352C196.302 71.352 196.728 71.6293 197.027 72.184C197.326 72.7387 197.475 73.4427 197.475 74.296C197.475 76.344 196.856 77.56 195.619 77.944C193.059 78.84 190.243 79.352 187.171 79.48C186.36 83.064 184.76 85.944 182.371 88.12C179.982 90.2533 177.272 91.32 174.243 91.32C171.683 91.32 169.486 90.7013 167.651 89.464C165.859 88.2267 164.494 86.584 163.555 84.536C162.616 82.488 162.147 80.2693 162.147 77.88C162.147 74.6373 162.766 71.7573 164.003 69.24C165.24 66.68 166.947 64.696 169.123 63.288C171.299 61.8373 173.71 61.112 176.355 61.112C179.598 61.112 182.2 62.2427 184.163 64.504C186.168 66.7227 187.342 69.4747 187.683 72.76C189.688 72.632 192.078 72.2053 194.851 71.48C195.192 71.3947 195.491 71.352 195.747 71.352ZM174.755 84.536C176.12 84.536 177.294 83.9813 178.275 82.872C179.299 81.7627 179.982 80.1627 180.323 78.072C179 77.176 177.976 76.0027 177.251 74.552C176.568 73.1013 176.227 71.5653 176.227 69.944C176.227 69.2613 176.291 68.5787 176.419 67.896H176.099C174.392 67.896 172.963 68.728 171.811 70.392C170.702 72.0133 170.147 74.3173 170.147 77.304C170.147 79.6507 170.595 81.4427 171.491 82.68C172.43 83.9173 173.518 84.536 174.755 84.536ZM194.606 91.32C192.985 91.32 191.833 90.4667 191.15 88.76C190.51 87.0533 190.19 84.3227 190.19 80.568C190.19 75.0213 190.979 69.752 192.558 64.76C192.942 63.5227 193.561 62.6267 194.414 62.072C195.31 61.4747 196.547 61.176 198.126 61.176C198.979 61.176 199.577 61.2827 199.918 61.496C200.259 61.7093 200.43 62.1147 200.43 62.712C200.43 63.3947 200.11 64.9307 199.47 67.32C199.043 69.0267 198.702 70.52 198.446 71.8C198.19 73.08 197.977 74.6587 197.806 76.536C199.214 72.8667 200.793 69.88 202.542 67.576C204.291 65.272 205.998 63.6293 207.662 62.648C209.369 61.6667 210.926 61.176 212.334 61.176C215.107 61.176 216.494 62.5627 216.494 65.336C216.494 67 216.025 70.008 215.086 74.36C214.275 78.072 213.87 80.5253 213.87 81.72C213.87 83.4267 214.489 84.28 215.726 84.28C216.579 84.28 217.582 83.768 218.734 82.744C219.929 81.6773 221.507 79.9707 223.47 77.624C223.982 77.0267 224.558 76.728 225.198 76.728C225.753 76.728 226.179 76.984 226.478 77.496C226.819 78.008 226.99 78.712 226.99 79.608C226.99 81.3147 226.585 82.6373 225.774 83.576C223.939 85.8373 221.955 87.6933 219.822 89.144C217.731 90.5947 215.342 91.32 212.654 91.32C210.478 91.32 208.835 90.7013 207.726 89.464C206.617 88.184 206.062 86.3493 206.062 83.96C206.062 82.7653 206.361 80.632 206.958 77.56C207.513 74.872 207.79 73.016 207.79 71.992C207.79 71.3093 207.555 70.968 207.086 70.968C206.531 70.968 205.742 71.6933 204.718 73.144C203.737 74.552 202.713 76.4293 201.646 78.776C200.622 81.1227 199.79 83.5973 199.15 86.2C198.681 88.2053 198.126 89.5707 197.486 90.296C196.889 90.9787 195.929 91.32 194.606 91.32ZM231.796 92.728C229.577 92.728 227.871 92.216 226.676 91.192C225.524 90.168 224.948 89.016 224.948 87.736C224.948 86.6267 225.353 85.6667 226.164 84.856C226.975 84.0453 228.169 83.64 229.748 83.64C230.303 83.64 230.943 83.704 231.668 83.832C232.436 83.9173 233.012 83.9813 233.396 84.024C233.353 82.9147 233.097 81.8693 232.628 80.888C232.201 79.9067 231.647 78.968 230.964 78.072C230.281 77.1333 229.641 76.3227 229.044 75.64C227.721 78.1573 226.399 80.248 225.076 81.912C223.796 83.576 222.388 85.1547 220.852 86.648C220.084 87.416 219.273 87.8 218.42 87.8C217.737 87.8 217.183 87.5653 216.756 87.096C216.329 86.584 216.116 85.9653 216.116 85.24C216.116 84.3867 216.415 83.5973 217.012 82.872L217.844 81.848C220.191 78.9467 221.961 76.5573 223.156 74.68C223.924 73.4427 224.692 71.9707 225.46 70.264C226.271 68.5573 227.316 66.232 228.596 63.288C229.407 61.4107 231.092 60.472 233.652 60.472C234.847 60.472 235.679 60.5787 236.148 60.792C236.617 61.0053 236.852 61.3467 236.852 61.816C236.852 62.072 236.767 62.4773 236.596 63.032C236.425 63.5867 236.191 64.1413 235.892 64.696C235.124 66.232 234.74 67.5333 234.74 68.6C234.74 69.24 234.953 69.944 235.38 70.712C235.849 71.48 236.553 72.44 237.492 73.592C238.857 75.384 239.881 76.92 240.564 78.2C241.289 79.4373 241.652 80.8027 241.652 82.296C241.652 84.088 241.225 85.7947 240.372 87.416C239.561 88.9947 238.409 90.2747 236.916 91.256C235.423 92.2373 233.716 92.728 231.796 92.728Z" fill="#6977FD"/>
</svg>
