<svg width="250" height="98" viewBox="0 0 250 98" fill="none" xmlns="http://www.w3.org/2000/svg">
<path d="M26.4205 83.512C20.7458 83.512 16.2018 82.4453 12.7885 80.312C9.37517 78.136 7.6685 74.8293 7.6685 70.392C7.6685 68.0453 8.07383 66.2533 8.8845 65.016C9.69517 63.7787 10.8898 63.16 12.4685 63.16C13.6205 63.16 14.5592 63.4587 15.2845 64.056C16.0098 64.6533 16.3725 65.4213 16.3725 66.36C16.3725 67.2133 16.3085 67.96 16.1805 68.6C16.1805 68.7707 16.1378 69.0693 16.0525 69.496C16.0098 69.9227 15.9885 70.3707 15.9885 70.84C15.9885 72.76 16.9485 74.1893 18.8685 75.128C20.8312 76.0667 23.5618 76.536 27.0605 76.536C30.6872 76.536 33.5245 75.896 35.5725 74.616C37.6205 73.2933 38.6445 71.4587 38.6445 69.112C38.6445 67.6613 38.1752 66.424 37.2365 65.4C36.2978 64.3333 35.1245 63.4587 33.7165 62.776C32.3085 62.0507 30.3245 61.176 27.7645 60.152C24.4792 58.872 21.7912 57.656 19.7005 56.504C17.6525 55.352 15.8818 53.7947 14.3885 51.832C12.9378 49.8267 12.2125 47.352 12.2125 44.408C12.2125 41.336 13.0232 38.6053 14.6445 36.216C16.3085 33.8267 18.6765 31.9707 21.7485 30.648C24.8632 29.3253 28.5112 28.664 32.6925 28.664C35.8072 28.664 38.6658 29.1333 41.2685 30.072C43.8712 30.968 45.9405 32.3547 47.4765 34.232C49.0552 36.1093 49.8445 38.4133 49.8445 41.144C49.8445 43.832 49.4392 45.8587 48.6285 47.224C47.8178 48.5893 46.6232 49.272 45.0445 49.272C43.9352 49.272 42.9965 48.9307 42.2285 48.248C41.5032 47.5653 41.1405 46.7547 41.1405 45.816C41.1405 45.0053 41.2045 44.2587 41.3325 43.576C41.4605 42.296 41.5245 41.4853 41.5245 41.144C41.5245 39.352 40.6498 37.9867 38.9005 37.048C37.1512 36.1093 34.9752 35.64 32.3725 35.64C28.7032 35.64 25.8872 36.3227 23.9245 37.688C22.0045 39.0107 21.0445 40.888 21.0445 43.32C21.0445 44.9413 21.5352 46.328 22.5165 47.48C23.5405 48.632 24.7992 49.592 26.2925 50.36C27.7858 51.128 29.8765 52.0453 32.5645 53.112C35.8072 54.4347 38.4098 55.6293 40.3725 56.696C42.3352 57.7627 43.9992 59.2133 45.3645 61.048C46.7725 62.8827 47.4765 65.144 47.4765 67.832C47.4765 72.8667 45.5565 76.7493 41.7165 79.48C37.9192 82.168 32.8205 83.512 26.4205 83.512ZM83.6595 63.352C84.2142 63.352 84.6408 63.6293 84.9395 64.184C85.2382 64.7387 85.3875 65.4427 85.3875 66.296C85.3875 68.344 84.7688 69.56 83.5315 69.944C80.9715 70.84 78.1555 71.352 75.0835 71.48C74.2728 75.064 72.6728 77.944 70.2835 80.12C67.8942 82.2533 65.1848 83.32 62.1555 83.32C59.5955 83.32 57.3982 82.7013 55.5635 81.464C53.7715 80.2267 52.4062 78.584 51.4675 76.536C50.5288 74.488 50.0595 72.2693 50.0595 69.88C50.0595 66.6373 50.6782 63.7573 51.9155 61.24C53.1528 58.68 54.8595 56.696 57.0355 55.288C59.2115 53.8373 61.6222 53.112 64.2675 53.112C67.5102 53.112 70.1128 54.2427 72.0755 56.504C74.0808 58.7227 75.2542 61.4747 75.5955 64.76C77.6008 64.632 79.9902 64.2053 82.7635 63.48C83.1048 63.3947 83.4035 63.352 83.6595 63.352ZM62.6675 76.536C64.0328 76.536 65.2062 75.9813 66.1875 74.872C67.2115 73.7627 67.8942 72.1627 68.2355 70.072C66.9128 69.176 65.8888 68.0027 65.1635 66.552C64.4808 65.1013 64.1395 63.5653 64.1395 61.944C64.1395 61.2613 64.2035 60.5787 64.3315 59.896H64.0115C62.3048 59.896 60.8755 60.728 59.7235 62.392C58.6142 64.0133 58.0595 66.3173 58.0595 69.304C58.0595 71.6507 58.5075 73.4427 59.4035 74.68C60.3422 75.9173 61.4302 76.536 62.6675 76.536ZM102.231 68.728C102.785 68.728 103.212 68.984 103.511 69.496C103.852 70.008 104.023 70.712 104.023 71.608C104.023 73.3147 103.617 74.6373 102.807 75.576C100.972 77.8373 98.9665 79.6933 96.7905 81.144C94.6572 82.5947 92.2252 83.32 89.4945 83.32C85.7398 83.32 82.9452 81.6133 81.1105 78.2C79.3185 74.7867 78.4225 70.3707 78.4225 64.952C78.4225 59.7467 79.0838 53.816 80.4065 47.16C81.7718 40.504 83.7558 34.7867 86.3585 30.008C89.0038 25.2293 92.1398 22.84 95.7665 22.84C97.8145 22.84 99.4145 23.8 100.567 25.72C101.761 27.5973 102.359 30.3067 102.359 33.848C102.359 38.9253 100.951 44.8133 98.1345 51.512C95.3185 58.2107 91.4998 64.8453 86.6785 71.416C86.9772 73.1653 87.4678 74.424 88.1505 75.192C88.8332 75.9173 89.7292 76.28 90.8385 76.28C92.5878 76.28 94.1238 75.7893 95.4465 74.808C96.7692 73.784 98.4545 72.056 100.503 69.624C101.015 69.0267 101.591 68.728 102.231 68.728ZM94.3585 29.176C93.3772 29.176 92.2678 30.9467 91.0305 34.488C89.7932 38.0293 88.7052 42.424 87.7665 47.672C86.8278 52.92 86.3158 57.9547 86.2305 62.776C89.2598 57.784 91.6705 52.792 93.4625 47.8C95.2545 42.7653 96.1505 38.1787 96.1505 34.04C96.1505 30.7973 95.5532 29.176 94.3585 29.176ZM103.457 83.32C101.537 83.32 99.9588 82.4453 98.7215 80.696C97.5268 78.904 96.9295 76.6853 96.9295 74.04C96.9295 70.84 97.1428 67.9173 97.5695 65.272C97.9962 62.584 98.7002 59.7467 99.6815 56.76C100.108 55.48 100.705 54.5627 101.473 54.008C102.241 53.4533 103.457 53.176 105.121 53.176C106.06 53.176 106.7 53.3253 107.041 53.624C107.425 53.9227 107.617 54.3707 107.617 54.968C107.617 55.3093 107.383 56.4613 106.913 58.424C106.487 60.0027 106.145 61.432 105.889 62.712C105.036 67.192 104.609 70.1787 104.609 71.672C104.609 72.568 104.716 73.208 104.929 73.592C105.143 73.9333 105.484 74.104 105.953 74.104C106.593 74.104 107.383 73.464 108.321 72.184C109.303 70.904 110.327 68.9627 111.393 66.36C112.503 63.7573 113.569 60.5573 114.593 56.76C114.935 55.48 115.447 54.5627 116.129 54.008C116.855 53.4533 117.921 53.176 119.33 53.176C120.311 53.176 120.993 53.304 121.377 53.56C121.761 53.7733 121.953 54.2 121.953 54.84C121.953 55.9067 121.42 58.8293 120.354 63.608C119.159 69.0693 118.561 72.44 118.561 73.72C118.561 74.5307 118.732 75.1707 119.073 75.64C119.415 76.0667 119.863 76.28 120.417 76.28C121.271 76.28 122.273 75.768 123.425 74.744C124.62 73.6773 126.199 71.9707 128.161 69.624C128.674 69.0267 129.25 68.728 129.889 68.728C130.444 68.728 130.871 68.984 131.169 69.496C131.511 70.008 131.681 70.712 131.681 71.608C131.681 73.3147 131.276 74.6373 130.465 75.576C128.631 77.8373 126.647 79.6933 124.514 81.144C122.423 82.5947 120.033 83.32 117.345 83.32C115.297 83.32 113.783 82.5307 112.801 80.952C111.863 79.3733 111.393 77.1547 111.393 74.296C110.668 77.1973 109.58 79.4373 108.129 81.016C106.679 82.552 105.121 83.32 103.457 83.32ZM153.116 68.728C153.671 68.728 154.097 68.984 154.396 69.496C154.737 70.008 154.908 70.712 154.908 71.608C154.908 73.3147 154.503 74.6373 153.692 75.576C151.857 77.8373 149.852 79.6933 147.676 81.144C145.5 82.5947 143.004 83.32 140.188 83.32C131.484 83.32 127.132 77.1973 127.132 64.952C127.132 63.0747 127.196 61.176 127.324 59.256H124.828C123.548 59.256 122.673 59.0213 122.204 58.552C121.777 58.0827 121.564 57.336 121.564 56.312C121.564 53.9227 122.524 52.728 124.444 52.728H128.092C128.817 48.0347 129.927 43.7467 131.42 39.864C132.913 35.9813 134.705 32.888 136.796 30.584C138.929 28.28 141.212 27.128 143.644 27.128C145.436 27.128 146.844 27.9173 147.868 29.496C148.892 31.0747 149.404 33.0587 149.404 35.448C149.404 42.0613 146.631 47.8213 141.084 52.728H148.252C148.935 52.728 149.425 52.8773 149.724 53.176C150.023 53.4747 150.172 54.0293 150.172 54.84C150.172 57.784 147.761 59.256 142.94 59.256H135.132C135.047 61.3893 135.004 63.0533 135.004 64.248C135.004 68.6853 135.516 71.8 136.54 73.592C137.607 75.384 139.271 76.28 141.532 76.28C143.367 76.28 144.988 75.7253 146.396 74.616C147.804 73.5067 149.468 71.8427 151.388 69.624C151.9 69.0267 152.476 68.728 153.116 68.728ZM141.916 33.272C141.276 33.272 140.551 34.0827 139.74 35.704C138.972 37.2827 138.225 39.5013 137.5 42.36C136.817 45.176 136.241 48.312 135.772 51.768C138.289 49.592 140.167 47.16 141.404 44.472C142.684 41.7413 143.324 39.2667 143.324 37.048C143.324 34.5307 142.855 33.272 141.916 33.272ZM156.161 48.952C154.369 48.952 153.025 48.5467 152.129 47.736C151.233 46.8827 150.785 45.7093 150.785 44.216C150.785 42.7227 151.361 41.4853 152.513 40.504C153.708 39.48 155.18 38.968 156.929 38.968C158.508 38.968 159.788 39.352 160.769 40.12C161.75 40.888 162.241 41.976 162.241 43.384C162.241 45.0907 161.686 46.456 160.577 47.48C159.468 48.4613 157.996 48.952 156.161 48.952ZM155.649 83.32C152.876 83.32 150.849 82.3387 149.569 80.376C148.332 78.4133 147.713 75.8107 147.713 72.568C147.713 70.648 147.948 68.1947 148.417 65.208C148.929 62.1787 149.569 59.3627 150.337 56.76C150.721 55.3947 151.233 54.456 151.873 53.944C152.513 53.432 153.537 53.176 154.945 53.176C157.121 53.176 158.209 53.9013 158.209 55.352C158.209 56.4187 157.804 58.8933 156.993 62.776C155.969 67.4693 155.457 70.648 155.457 72.312C155.457 73.592 155.628 74.5733 155.969 75.256C156.31 75.9387 156.886 76.28 157.697 76.28C158.465 76.28 159.425 75.7467 160.577 74.68C161.729 73.6133 163.265 71.928 165.185 69.624C165.697 69.0267 166.273 68.728 166.913 68.728C167.468 68.728 167.894 68.984 168.193 69.496C168.534 70.008 168.705 70.712 168.705 71.608C168.705 73.3147 168.3 74.6373 167.489 75.576C163.265 80.7387 159.318 83.32 155.649 83.32ZM194.247 63.352C194.802 63.352 195.228 63.6293 195.527 64.184C195.826 64.7387 195.975 65.4427 195.975 66.296C195.975 68.344 195.356 69.56 194.119 69.944C191.559 70.84 188.743 71.352 185.671 71.48C184.86 75.064 183.26 77.944 180.871 80.12C178.482 82.2533 175.772 83.32 172.743 83.32C170.183 83.32 167.986 82.7013 166.151 81.464C164.359 80.2267 162.994 78.584 162.055 76.536C161.116 74.488 160.647 72.2693 160.647 69.88C160.647 66.6373 161.266 63.7573 162.503 61.24C163.74 58.68 165.447 56.696 167.623 55.288C169.799 53.8373 172.21 53.112 174.855 53.112C178.098 53.112 180.7 54.2427 182.663 56.504C184.668 58.7227 185.842 61.4747 186.183 64.76C188.188 64.632 190.578 64.2053 193.351 63.48C193.692 63.3947 193.991 63.352 194.247 63.352ZM173.255 76.536C174.62 76.536 175.794 75.9813 176.775 74.872C177.799 73.7627 178.482 72.1627 178.823 70.072C177.5 69.176 176.476 68.0027 175.751 66.552C175.068 65.1013 174.727 63.5653 174.727 61.944C174.727 61.2613 174.791 60.5787 174.919 59.896H174.599C172.892 59.896 171.463 60.728 170.311 62.392C169.202 64.0133 168.647 66.3173 168.647 69.304C168.647 71.6507 169.095 73.4427 169.991 74.68C170.93 75.9173 172.018 76.536 173.255 76.536ZM193.106 83.32C191.485 83.32 190.333 82.4667 189.65 80.76C189.01 79.0533 188.69 76.3227 188.69 72.568C188.69 67.0213 189.479 61.752 191.058 56.76C191.442 55.5227 192.061 54.6267 192.914 54.072C193.81 53.4747 195.047 53.176 196.626 53.176C197.479 53.176 198.077 53.2827 198.418 53.496C198.759 53.7093 198.93 54.1147 198.93 54.712C198.93 55.3947 198.61 56.9307 197.97 59.32C197.543 61.0267 197.202 62.52 196.946 63.8C196.69 65.08 196.477 66.6587 196.306 68.536C197.714 64.8667 199.293 61.88 201.042 59.576C202.791 57.272 204.498 55.6293 206.162 54.648C207.869 53.6667 209.426 53.176 210.834 53.176C213.607 53.176 214.994 54.5627 214.994 57.336C214.994 59 214.525 62.008 213.586 66.36C212.775 70.072 212.37 72.5253 212.37 73.72C212.37 75.4267 212.989 76.28 214.226 76.28C215.079 76.28 216.082 75.768 217.234 74.744C218.429 73.6773 220.007 71.9707 221.97 69.624C222.482 69.0267 223.058 68.728 223.698 68.728C224.253 68.728 224.679 68.984 224.978 69.496C225.319 70.008 225.49 70.712 225.49 71.608C225.49 73.3147 225.085 74.6373 224.274 75.576C222.439 77.8373 220.455 79.6933 218.322 81.144C216.231 82.5947 213.842 83.32 211.154 83.32C208.978 83.32 207.335 82.7013 206.226 81.464C205.117 80.184 204.562 78.3493 204.562 75.96C204.562 74.7653 204.861 72.632 205.458 69.56C206.013 66.872 206.29 65.016 206.29 63.992C206.29 63.3093 206.055 62.968 205.586 62.968C205.031 62.968 204.242 63.6933 203.218 65.144C202.237 66.552 201.213 68.4293 200.146 70.776C199.122 73.1227 198.29 75.5973 197.65 78.2C197.181 80.2053 196.626 81.5707 195.986 82.296C195.389 82.9787 194.429 83.32 193.106 83.32ZM230.296 84.728C228.077 84.728 226.371 84.216 225.176 83.192C224.024 82.168 223.448 81.016 223.448 79.736C223.448 78.6267 223.853 77.6667 224.664 76.856C225.475 76.0453 226.669 75.64 228.248 75.64C228.803 75.64 229.443 75.704 230.168 75.832C230.936 75.9173 231.512 75.9813 231.896 76.024C231.853 74.9147 231.597 73.8693 231.128 72.888C230.701 71.9067 230.147 70.968 229.464 70.072C228.781 69.1333 228.141 68.3227 227.544 67.64C226.221 70.1573 224.899 72.248 223.576 73.912C222.296 75.576 220.888 77.1547 219.352 78.648C218.584 79.416 217.773 79.8 216.92 79.8C216.237 79.8 215.683 79.5653 215.256 79.096C214.829 78.584 214.616 77.9653 214.616 77.24C214.616 76.3867 214.915 75.5973 215.512 74.872L216.344 73.848C218.691 70.9467 220.461 68.5573 221.656 66.68C222.424 65.4427 223.192 63.9707 223.96 62.264C224.771 60.5573 225.816 58.232 227.096 55.288C227.907 53.4107 229.592 52.472 232.152 52.472C233.347 52.472 234.179 52.5787 234.648 52.792C235.117 53.0053 235.352 53.3467 235.352 53.816C235.352 54.072 235.267 54.4773 235.096 55.032C234.925 55.5867 234.691 56.1413 234.392 56.696C233.624 58.232 233.24 59.5333 233.24 60.6C233.24 61.24 233.453 61.944 233.88 62.712C234.349 63.48 235.053 64.44 235.992 65.592C237.357 67.384 238.381 68.92 239.064 70.2C239.789 71.4373 240.152 72.8027 240.152 74.296C240.152 76.088 239.725 77.7947 238.872 79.416C238.061 80.9947 236.909 82.2747 235.416 83.256C233.923 84.2373 232.216 84.728 230.296 84.728Z" fill="url(#paint0_linear)"/>
<defs>
<linearGradient id="paint0_linear" x1="123" y1="0" x2="123" y2="74" gradientUnits="userSpaceOnUse">
<stop stop-color="#54FBFB"/>
<stop offset="1" stop-color="#7910FF"/>
</linearGradient>
</defs>
</svg>
