<svg width="333" height="67" viewBox="0 0 333 67" fill="none" xmlns="http://www.w3.org/2000/svg">
<path d="M166.72 56.3661C166.057 57.0651 164.943 57.0651 164.28 56.3661L155.635 47.2511C154.619 46.1799 155.378 44.413 156.854 44.413H174.146C175.622 44.413 176.381 46.1799 175.365 47.2511L166.72 56.3661Z" fill="#3D3D3D"/>
<path d="M136.319 26.16C134.546 26.16 133.126 25.8267 132.059 25.16C130.992 24.48 130.459 23.4467 130.459 22.06C130.459 21.3267 130.586 20.7667 130.839 20.38C131.092 19.9933 131.466 19.8 131.959 19.8C132.319 19.8 132.612 19.8933 132.839 20.08C133.066 20.2667 133.179 20.5067 133.179 20.8C133.179 21.0667 133.159 21.3 133.119 21.5C133.119 21.5533 133.106 21.6467 133.079 21.78C133.066 21.9133 133.059 22.0533 133.059 22.2C133.059 22.8 133.359 23.2467 133.959 23.54C134.572 23.8333 135.426 23.98 136.519 23.98C137.652 23.98 138.539 23.78 139.179 23.38C139.819 22.9667 140.139 22.3933 140.139 21.66C140.139 21.2067 139.992 20.82 139.699 20.5C139.406 20.1667 139.039 19.8933 138.599 19.68C138.159 19.4533 137.539 19.18 136.739 18.86C135.712 18.46 134.872 18.08 134.219 17.72C133.579 17.36 133.026 16.8733 132.559 16.26C132.106 15.6333 131.879 14.86 131.879 13.94C131.879 12.98 132.132 12.1267 132.639 11.38C133.159 10.6333 133.899 10.0533 134.859 9.64C135.832 9.22667 136.972 9.02 138.279 9.02C139.252 9.02 140.146 9.16667 140.959 9.46C141.772 9.74 142.419 10.1733 142.899 10.76C143.392 11.3467 143.639 12.0667 143.639 12.92C143.639 13.76 143.512 14.3933 143.259 14.82C143.006 15.2467 142.632 15.46 142.139 15.46C141.792 15.46 141.499 15.3533 141.259 15.14C141.032 14.9267 140.919 14.6733 140.919 14.38C140.919 14.1267 140.939 13.8933 140.979 13.68C141.019 13.28 141.039 13.0267 141.039 12.92C141.039 12.36 140.766 11.9333 140.219 11.64C139.672 11.3467 138.992 11.2 138.179 11.2C137.032 11.2 136.152 11.4133 135.539 11.84C134.939 12.2533 134.639 12.84 134.639 13.6C134.639 14.1067 134.792 14.54 135.099 14.9C135.419 15.26 135.812 15.56 136.279 15.8C136.746 16.04 137.399 16.3267 138.239 16.66C139.252 17.0733 140.066 17.4467 140.679 17.78C141.292 18.1133 141.812 18.5667 142.239 19.14C142.679 19.7133 142.899 20.42 142.899 21.26C142.899 22.8333 142.299 24.0467 141.099 24.9C139.912 25.74 138.319 26.16 136.319 26.16ZM154.206 19.86C154.379 19.86 154.513 19.9467 154.606 20.12C154.699 20.2933 154.746 20.5133 154.746 20.78C154.746 21.42 154.553 21.8 154.166 21.92C153.366 22.2 152.486 22.36 151.526 22.4C151.273 23.52 150.773 24.42 150.026 25.1C149.279 25.7667 148.433 26.1 147.486 26.1C146.686 26.1 145.999 25.9067 145.426 25.52C144.866 25.1333 144.439 24.62 144.146 23.98C143.853 23.34 143.706 22.6467 143.706 21.9C143.706 20.8867 143.899 19.9867 144.286 19.2C144.673 18.4 145.206 17.78 145.886 17.34C146.566 16.8867 147.319 16.66 148.146 16.66C149.159 16.66 149.973 17.0133 150.586 17.72C151.213 18.4133 151.579 19.2733 151.686 20.3C152.313 20.26 153.059 20.1267 153.926 19.9C154.033 19.8733 154.126 19.86 154.206 19.86ZM147.646 23.98C148.073 23.98 148.439 23.8067 148.746 23.46C149.066 23.1133 149.279 22.6133 149.386 21.96C148.973 21.68 148.653 21.3133 148.426 20.86C148.213 20.4067 148.106 19.9267 148.106 19.42C148.106 19.2067 148.126 18.9933 148.166 18.78H148.066C147.533 18.78 147.086 19.04 146.726 19.56C146.379 20.0667 146.206 20.7867 146.206 21.72C146.206 22.4533 146.346 23.0133 146.626 23.4C146.919 23.7867 147.259 23.98 147.646 23.98ZM160.01 21.54C160.183 21.54 160.316 21.62 160.41 21.78C160.516 21.94 160.57 22.16 160.57 22.44C160.57 22.9733 160.443 23.3867 160.19 23.68C159.616 24.3867 158.99 24.9667 158.31 25.42C157.643 25.8733 156.883 26.1 156.03 26.1C154.856 26.1 153.983 25.5667 153.41 24.5C152.85 23.4333 152.57 22.0533 152.57 20.36C152.57 18.7333 152.776 16.88 153.19 14.8C153.616 12.72 154.236 10.9333 155.05 9.44C155.876 7.94667 156.856 7.2 157.99 7.2C158.63 7.2 159.13 7.5 159.49 8.1C159.863 8.68667 160.05 9.53333 160.05 10.64C160.05 12.2267 159.61 14.0667 158.73 16.16C157.85 18.2533 156.656 20.3267 155.15 22.38C155.243 22.9267 155.396 23.32 155.61 23.56C155.823 23.7867 156.103 23.9 156.45 23.9C156.996 23.9 157.476 23.7467 157.89 23.44C158.303 23.12 158.83 22.58 159.47 21.82C159.63 21.6333 159.81 21.54 160.01 21.54ZM157.55 9.18C157.243 9.18 156.896 9.73333 156.51 10.84C156.123 11.9467 155.783 13.32 155.49 14.96C155.196 16.6 155.036 18.1733 155.01 19.68C155.956 18.12 156.71 16.56 157.27 15C157.83 13.4267 158.11 11.9933 158.11 10.7C158.11 9.68667 157.923 9.18 157.55 9.18ZM160.393 26.1C159.793 26.1 159.3 25.8267 158.913 25.28C158.54 24.72 158.353 24.0267 158.353 23.2C158.353 22.2 158.42 21.2867 158.553 20.46C158.686 19.62 158.906 18.7333 159.213 17.8C159.346 17.4 159.533 17.1133 159.773 16.94C160.013 16.7667 160.393 16.68 160.913 16.68C161.206 16.68 161.406 16.7267 161.513 16.82C161.633 16.9133 161.693 17.0533 161.693 17.24C161.693 17.3467 161.62 17.7067 161.473 18.32C161.34 18.8133 161.233 19.26 161.153 19.66C160.886 21.06 160.753 21.9933 160.753 22.46C160.753 22.74 160.786 22.94 160.853 23.06C160.92 23.1667 161.026 23.22 161.173 23.22C161.373 23.22 161.62 23.02 161.913 22.62C162.22 22.22 162.54 21.6133 162.873 20.8C163.22 19.9867 163.553 18.9867 163.873 17.8C163.98 17.4 164.14 17.1133 164.353 16.94C164.58 16.7667 164.913 16.68 165.353 16.68C165.66 16.68 165.873 16.72 165.993 16.8C166.113 16.8667 166.173 17 166.173 17.2C166.173 17.5333 166.006 18.4467 165.673 19.94C165.3 21.6467 165.113 22.7 165.113 23.1C165.113 23.3533 165.166 23.5533 165.273 23.7C165.38 23.8333 165.52 23.9 165.693 23.9C165.96 23.9 166.273 23.74 166.633 23.42C167.006 23.0867 167.5 22.5533 168.113 21.82C168.273 21.6333 168.453 21.54 168.653 21.54C168.826 21.54 168.96 21.62 169.053 21.78C169.16 21.94 169.213 22.16 169.213 22.44C169.213 22.9733 169.086 23.3867 168.833 23.68C168.26 24.3867 167.64 24.9667 166.973 25.42C166.32 25.8733 165.573 26.1 164.733 26.1C164.093 26.1 163.62 25.8533 163.313 25.36C163.02 24.8667 162.873 24.1733 162.873 23.28C162.646 24.1867 162.306 24.8867 161.853 25.38C161.4 25.86 160.913 26.1 160.393 26.1ZM175.911 21.54C176.085 21.54 176.218 21.62 176.311 21.78C176.418 21.94 176.471 22.16 176.471 22.44C176.471 22.9733 176.345 23.3867 176.091 23.68C175.518 24.3867 174.891 24.9667 174.211 25.42C173.531 25.8733 172.751 26.1 171.871 26.1C169.151 26.1 167.791 24.1867 167.791 20.36C167.791 19.7733 167.811 19.18 167.851 18.58H167.071C166.671 18.58 166.398 18.5067 166.251 18.36C166.118 18.2133 166.051 17.98 166.051 17.66C166.051 16.9133 166.351 16.54 166.951 16.54H168.091C168.318 15.0733 168.665 13.7333 169.131 12.52C169.598 11.3067 170.158 10.34 170.811 9.62C171.478 8.9 172.191 8.54 172.951 8.54C173.511 8.54 173.951 8.78667 174.271 9.28C174.591 9.77333 174.751 10.3933 174.751 11.14C174.751 13.2067 173.885 15.0067 172.151 16.54H174.391C174.605 16.54 174.758 16.5867 174.851 16.68C174.945 16.7733 174.991 16.9467 174.991 17.2C174.991 18.12 174.238 18.58 172.731 18.58H170.291C170.265 19.2467 170.251 19.7667 170.251 20.14C170.251 21.5267 170.411 22.5 170.731 23.06C171.065 23.62 171.585 23.9 172.291 23.9C172.865 23.9 173.371 23.7267 173.811 23.38C174.251 23.0333 174.771 22.5133 175.371 21.82C175.531 21.6333 175.711 21.54 175.911 21.54ZM172.411 10.46C172.211 10.46 171.985 10.7133 171.731 11.22C171.491 11.7133 171.258 12.4067 171.031 13.3C170.818 14.18 170.638 15.16 170.491 16.24C171.278 15.56 171.865 14.8 172.251 13.96C172.651 13.1067 172.851 12.3333 172.851 11.64C172.851 10.8533 172.705 10.46 172.411 10.46ZM176.863 15.36C176.303 15.36 175.883 15.2333 175.603 14.98C175.323 14.7133 175.183 14.3467 175.183 13.88C175.183 13.4133 175.363 13.0267 175.723 12.72C176.096 12.4 176.556 12.24 177.103 12.24C177.596 12.24 177.996 12.36 178.303 12.6C178.609 12.84 178.763 13.18 178.763 13.62C178.763 14.1533 178.589 14.58 178.243 14.9C177.896 15.2067 177.436 15.36 176.863 15.36ZM176.703 26.1C175.836 26.1 175.203 25.7933 174.803 25.18C174.416 24.5667 174.223 23.7533 174.223 22.74C174.223 22.14 174.296 21.3733 174.443 20.44C174.603 19.4933 174.803 18.6133 175.043 17.8C175.163 17.3733 175.323 17.08 175.523 16.92C175.723 16.76 176.043 16.68 176.483 16.68C177.163 16.68 177.503 16.9067 177.503 17.36C177.503 17.6933 177.376 18.4667 177.123 19.68C176.803 21.1467 176.643 22.14 176.643 22.66C176.643 23.06 176.696 23.3667 176.803 23.58C176.909 23.7933 177.089 23.9 177.343 23.9C177.583 23.9 177.883 23.7333 178.243 23.4C178.603 23.0667 179.083 22.54 179.683 21.82C179.843 21.6333 180.023 21.54 180.223 21.54C180.396 21.54 180.529 21.62 180.623 21.78C180.729 21.94 180.783 22.16 180.783 22.44C180.783 22.9733 180.656 23.3867 180.403 23.68C179.083 25.2933 177.849 26.1 176.703 26.1ZM188.765 19.86C188.938 19.86 189.071 19.9467 189.165 20.12C189.258 20.2933 189.305 20.5133 189.305 20.78C189.305 21.42 189.111 21.8 188.725 21.92C187.925 22.2 187.045 22.36 186.085 22.4C185.831 23.52 185.331 24.42 184.585 25.1C183.838 25.7667 182.991 26.1 182.045 26.1C181.245 26.1 180.558 25.9067 179.985 25.52C179.425 25.1333 178.998 24.62 178.705 23.98C178.411 23.34 178.265 22.6467 178.265 21.9C178.265 20.8867 178.458 19.9867 178.845 19.2C179.231 18.4 179.765 17.78 180.445 17.34C181.125 16.8867 181.878 16.66 182.705 16.66C183.718 16.66 184.531 17.0133 185.145 17.72C185.771 18.4133 186.138 19.2733 186.245 20.3C186.871 20.26 187.618 20.1267 188.485 19.9C188.591 19.8733 188.685 19.86 188.765 19.86ZM182.205 23.98C182.631 23.98 182.998 23.8067 183.305 23.46C183.625 23.1133 183.838 22.6133 183.945 21.96C183.531 21.68 183.211 21.3133 182.985 20.86C182.771 20.4067 182.665 19.9267 182.665 19.42C182.665 19.2067 182.685 18.9933 182.725 18.78H182.625C182.091 18.78 181.645 19.04 181.285 19.56C180.938 20.0667 180.765 20.7867 180.765 21.72C180.765 22.4533 180.905 23.0133 181.185 23.4C181.478 23.7867 181.818 23.98 182.205 23.98ZM188.408 26.1C187.901 26.1 187.541 25.8333 187.328 25.3C187.128 24.7667 187.028 23.9133 187.028 22.74C187.028 21.0067 187.275 19.36 187.768 17.8C187.888 17.4133 188.081 17.1333 188.348 16.96C188.628 16.7733 189.015 16.68 189.508 16.68C189.775 16.68 189.961 16.7133 190.068 16.78C190.175 16.8467 190.228 16.9733 190.228 17.16C190.228 17.3733 190.128 17.8533 189.928 18.6C189.795 19.1333 189.688 19.6 189.608 20C189.528 20.4 189.461 20.8933 189.408 21.48C189.848 20.3333 190.341 19.4 190.888 18.68C191.435 17.96 191.968 17.4467 192.488 17.14C193.021 16.8333 193.508 16.68 193.948 16.68C194.815 16.68 195.248 17.1133 195.248 17.98C195.248 18.5 195.101 19.44 194.808 20.8C194.555 21.96 194.428 22.7267 194.428 23.1C194.428 23.6333 194.621 23.9 195.008 23.9C195.275 23.9 195.588 23.74 195.948 23.42C196.321 23.0867 196.815 22.5533 197.428 21.82C197.588 21.6333 197.768 21.54 197.968 21.54C198.141 21.54 198.275 21.62 198.368 21.78C198.475 21.94 198.528 22.16 198.528 22.44C198.528 22.9733 198.401 23.3867 198.148 23.68C197.575 24.3867 196.955 24.9667 196.288 25.42C195.635 25.8733 194.888 26.1 194.048 26.1C193.368 26.1 192.855 25.9067 192.508 25.52C192.161 25.12 191.988 24.5467 191.988 23.8C191.988 23.4267 192.081 22.76 192.268 21.8C192.441 20.96 192.528 20.38 192.528 20.06C192.528 19.8467 192.455 19.74 192.308 19.74C192.135 19.74 191.888 19.9667 191.568 20.42C191.261 20.86 190.941 21.4467 190.608 22.18C190.288 22.9133 190.028 23.6867 189.828 24.5C189.681 25.1267 189.508 25.5533 189.308 25.78C189.121 25.9933 188.821 26.1 188.408 26.1ZM200.03 26.54C199.337 26.54 198.803 26.38 198.43 26.06C198.07 25.74 197.89 25.38 197.89 24.98C197.89 24.6333 198.017 24.3333 198.27 24.08C198.523 23.8267 198.897 23.7 199.39 23.7C199.563 23.7 199.763 23.72 199.99 23.76C200.23 23.7867 200.41 23.8067 200.53 23.82C200.517 23.4733 200.437 23.1467 200.29 22.84C200.157 22.5333 199.983 22.24 199.77 21.96C199.557 21.6667 199.357 21.4133 199.17 21.2C198.757 21.9867 198.343 22.64 197.93 23.16C197.53 23.68 197.09 24.1733 196.61 24.64C196.37 24.88 196.117 25 195.85 25C195.637 25 195.463 24.9267 195.33 24.78C195.197 24.62 195.13 24.4267 195.13 24.2C195.13 23.9333 195.223 23.6867 195.41 23.46L195.67 23.14C196.403 22.2333 196.957 21.4867 197.33 20.9C197.57 20.5133 197.81 20.0533 198.05 19.52C198.303 18.9867 198.63 18.26 199.03 17.34C199.283 16.7533 199.81 16.46 200.61 16.46C200.983 16.46 201.243 16.4933 201.39 16.56C201.537 16.6267 201.61 16.7333 201.61 16.88C201.61 16.96 201.583 17.0867 201.53 17.26C201.477 17.4333 201.403 17.6067 201.31 17.78C201.07 18.26 200.95 18.6667 200.95 19C200.95 19.2 201.017 19.42 201.15 19.66C201.297 19.9 201.517 20.2 201.81 20.56C202.237 21.12 202.557 21.6 202.77 22C202.997 22.3867 203.11 22.8133 203.11 23.28C203.11 23.84 202.977 24.3733 202.71 24.88C202.457 25.3733 202.097 25.7733 201.63 26.08C201.163 26.3867 200.63 26.54 200.03 26.54Z" fill="#3D3D3D"/>
</svg>
