<svg width="250" height="122" viewBox="0 0 250 122" fill="none" xmlns="http://www.w3.org/2000/svg">
<path d="M21.2818 84.512C15.6071 84.512 11.0631 83.4453 7.64975 81.312C4.23642 79.136 2.52975 75.8293 2.52975 71.392C2.52975 69.0453 2.93509 67.2533 3.74575 66.016C4.55642 64.7787 5.75109 64.16 7.32975 64.16C8.48175 64.16 9.42042 64.4587 10.1458 65.056C10.8711 65.6533 11.2338 66.4213 11.2338 67.36C11.2338 68.2133 11.1698 68.96 11.0418 69.6C11.0418 69.7707 10.9991 70.0693 10.9138 70.496C10.8711 70.9227 10.8498 71.3707 10.8498 71.84C10.8498 73.76 11.8098 75.1893 13.7298 76.128C15.6924 77.0667 18.4231 77.536 21.9218 77.536C25.5484 77.536 28.3858 76.896 30.4338 75.616C32.4818 74.2933 33.5058 72.4587 33.5058 70.112C33.5058 68.6613 33.0364 67.424 32.0978 66.4C31.1591 65.3333 29.9858 64.4587 28.5778 63.776C27.1698 63.0507 25.1858 62.176 22.6258 61.152C19.3404 59.872 16.6524 58.656 14.5618 57.504C12.5138 56.352 10.7431 54.7947 9.24975 52.832C7.79909 50.8267 7.07375 48.352 7.07375 45.408C7.07375 42.336 7.88442 39.6053 9.50575 37.216C11.1698 34.8267 13.5378 32.9707 16.6098 31.648C19.7244 30.3253 23.3724 29.664 27.5538 29.664C30.6684 29.664 33.5271 30.1333 36.1298 31.072C38.7324 31.968 40.8018 33.3547 42.3378 35.232C43.9164 37.1093 44.7058 39.4133 44.7058 42.144C44.7058 44.832 44.3004 46.8587 43.4898 48.224C42.6791 49.5893 41.4844 50.272 39.9058 50.272C38.7964 50.272 37.8578 49.9307 37.0898 49.248C36.3644 48.5653 36.0018 47.7547 36.0018 46.816C36.0018 46.0053 36.0658 45.2587 36.1938 44.576C36.3218 43.296 36.3858 42.4853 36.3858 42.144C36.3858 40.352 35.5111 38.9867 33.7618 38.048C32.0124 37.1093 29.8364 36.64 27.2338 36.64C23.5644 36.64 20.7484 37.3227 18.7858 38.688C16.8658 40.0107 15.9058 41.888 15.9058 44.32C15.9058 45.9413 16.3964 47.328 17.3778 48.48C18.4018 49.632 19.6604 50.592 21.1538 51.36C22.6471 52.128 24.7378 53.0453 27.4258 54.112C30.6684 55.4347 33.2711 56.6293 35.2338 57.696C37.1964 58.7627 38.8604 60.2133 40.2258 62.048C41.6338 63.8827 42.3378 66.144 42.3378 68.832C42.3378 73.8667 40.4178 77.7493 36.5778 80.48C32.7804 83.168 27.6818 84.512 21.2818 84.512ZM52.0963 84.32C50.1763 84.32 48.5976 83.4453 47.3603 81.696C46.1656 79.904 45.5683 77.6853 45.5683 75.04C45.5683 71.84 45.7816 68.9173 46.2083 66.272C46.6349 63.584 47.3389 60.7467 48.3203 57.76C48.7469 56.48 49.3443 55.5627 50.1123 55.008C50.8803 54.4533 52.0963 54.176 53.7603 54.176C54.6989 54.176 55.3389 54.3253 55.6803 54.624C56.0643 54.9227 56.2563 55.3707 56.2563 55.968C56.2563 56.3093 56.0216 57.4613 55.5523 59.424C55.1256 61.0027 54.7843 62.432 54.5283 63.712C53.6749 68.192 53.2483 71.1787 53.2483 72.672C53.2483 73.568 53.3549 74.208 53.5683 74.592C53.7816 74.9333 54.1229 75.104 54.5923 75.104C55.2323 75.104 56.0216 74.464 56.9603 73.184C57.9416 71.904 58.9656 69.9627 60.0323 67.36C61.1416 64.7573 62.2083 61.5573 63.2323 57.76C63.5736 56.48 64.0856 55.5627 64.7683 55.008C65.4936 54.4533 66.5603 54.176 67.9683 54.176C68.9496 54.176 69.6323 54.304 70.0163 54.56C70.4003 54.7733 70.5923 55.2 70.5923 55.84C70.5923 56.9067 70.0589 59.8293 68.9923 64.608C67.7976 70.0693 67.2003 73.44 67.2003 74.72C67.2003 75.5307 67.3709 76.1707 67.7123 76.64C68.0536 77.0667 68.5016 77.28 69.0563 77.28C69.9096 77.28 70.9123 76.768 72.0643 75.744C73.2589 74.6773 74.8376 72.9707 76.8003 70.624C77.3123 70.0267 77.8883 69.728 78.5283 69.728C79.0829 69.728 79.5096 69.984 79.8083 70.496C80.1496 71.008 80.3203 71.712 80.3203 72.608C80.3203 74.3147 79.9149 75.6373 79.1043 76.576C77.2696 78.8373 75.2856 80.6933 73.1523 82.144C71.0616 83.5947 68.6723 84.32 65.9843 84.32C63.9363 84.32 62.4216 83.5307 61.4403 81.952C60.5016 80.3733 60.0323 78.1547 60.0323 75.296C59.3069 78.1973 58.2189 80.4373 56.7683 82.016C55.3176 83.552 53.7603 84.32 52.0963 84.32ZM77.7548 84.32C76.1334 84.32 74.9814 83.4667 74.2988 81.76C73.6588 80.0533 73.3388 77.3227 73.3388 73.568C73.3388 68.0213 74.1281 62.752 75.7068 57.76C76.0908 56.5227 76.7094 55.6267 77.5628 55.072C78.4588 54.4747 79.6961 54.176 81.2748 54.176C82.1281 54.176 82.7254 54.2827 83.0668 54.496C83.4081 54.7093 83.5788 55.1147 83.5788 55.712C83.5788 56.3947 83.2588 57.9307 82.6188 60.32C82.1921 62.0267 81.8508 63.52 81.5948 64.8C81.3388 66.0373 81.1254 67.5947 80.9548 69.472C82.1068 66.144 83.4721 63.328 85.0508 61.024C86.6721 58.72 88.3148 57.0133 89.9788 55.904C91.6854 54.752 93.2854 54.176 94.7788 54.176C96.2721 54.176 97.3174 54.5173 97.9148 55.2C98.5548 55.8827 98.8748 56.928 98.8748 58.336C98.8748 59.7013 98.4694 62.176 97.6588 65.76C97.3174 67.296 97.0828 68.448 96.9548 69.216C99.0881 63.968 101.456 60.1493 104.059 57.76C106.661 55.3707 109.093 54.176 111.355 54.176C114.128 54.176 115.515 55.5627 115.515 58.336C115.515 60 115.045 63.008 114.107 67.36C113.296 71.072 112.891 73.5253 112.891 74.72C112.891 76.4267 113.509 77.28 114.747 77.28C115.6 77.28 116.603 76.768 117.755 75.744C118.949 74.6773 120.528 72.9707 122.491 70.624C123.003 70.0267 123.579 69.728 124.219 69.728C124.773 69.728 125.2 69.984 125.499 70.496C125.84 71.008 126.011 71.712 126.011 72.608C126.011 74.3147 125.605 75.6373 124.795 76.576C122.96 78.8373 120.976 80.6933 118.843 82.144C116.752 83.5947 114.363 84.32 111.675 84.32C109.499 84.32 107.856 83.7013 106.747 82.464C105.637 81.184 105.083 79.3493 105.083 76.96C105.083 75.7653 105.381 73.632 105.979 70.56C106.533 67.872 106.811 66.016 106.811 64.992C106.811 64.3093 106.576 63.968 106.107 63.968C105.552 63.968 104.763 64.6933 103.739 66.144C102.715 67.552 101.691 69.4293 100.667 71.776C99.6428 74.1227 98.8108 76.5973 98.1708 79.2C97.7014 81.248 97.1468 82.6133 96.5068 83.296C95.9094 83.9787 94.9281 84.32 93.5628 84.32C92.1548 84.32 91.0881 83.6587 90.3628 82.336C89.6801 80.9707 89.3388 79.328 89.3388 77.408C89.3388 75.7867 89.5521 73.44 89.9788 70.368C90.3201 67.6373 90.4908 65.8453 90.4908 64.992C90.4908 64.3093 90.2561 63.968 89.7868 63.968C89.1468 63.968 88.3361 64.736 87.3548 66.272C86.3734 67.808 85.4134 69.7707 84.4748 72.16C83.5788 74.5493 82.8534 76.896 82.2988 79.2C81.8294 81.2053 81.2748 82.5707 80.6348 83.296C80.0374 83.9787 79.0774 84.32 77.7548 84.32ZM123.46 84.32C121.838 84.32 120.686 83.4667 120.004 81.76C119.364 80.0533 119.044 77.3227 119.044 73.568C119.044 68.0213 119.833 62.752 121.412 57.76C121.796 56.5227 122.414 55.6267 123.268 55.072C124.164 54.4747 125.401 54.176 126.98 54.176C127.833 54.176 128.43 54.2827 128.772 54.496C129.113 54.7093 129.284 55.1147 129.284 55.712C129.284 56.3947 128.964 57.9307 128.324 60.32C127.897 62.0267 127.556 63.52 127.3 64.8C127.044 66.0373 126.83 67.5947 126.66 69.472C127.812 66.144 129.177 63.328 130.756 61.024C132.377 58.72 134.02 57.0133 135.684 55.904C137.39 54.752 138.99 54.176 140.484 54.176C141.977 54.176 143.022 54.5173 143.62 55.2C144.26 55.8827 144.58 56.928 144.58 58.336C144.58 59.7013 144.174 62.176 143.364 65.76C143.022 67.296 142.788 68.448 142.66 69.216C144.793 63.968 147.161 60.1493 149.764 57.76C152.366 55.3707 154.798 54.176 157.06 54.176C159.833 54.176 161.22 55.5627 161.22 58.336C161.22 60 160.75 63.008 159.812 67.36C159.001 71.072 158.596 73.5253 158.596 74.72C158.596 76.4267 159.214 77.28 160.452 77.28C161.305 77.28 162.308 76.768 163.46 75.744C164.654 74.6773 166.233 72.9707 168.196 70.624C168.708 70.0267 169.284 69.728 169.924 69.728C170.478 69.728 170.905 69.984 171.204 70.496C171.545 71.008 171.716 71.712 171.716 72.608C171.716 74.3147 171.31 75.6373 170.5 76.576C168.665 78.8373 166.681 80.6933 164.548 82.144C162.457 83.5947 160.068 84.32 157.38 84.32C155.204 84.32 153.561 83.7013 152.452 82.464C151.342 81.184 150.788 79.3493 150.788 76.96C150.788 75.7653 151.086 73.632 151.684 70.56C152.238 67.872 152.516 66.016 152.516 64.992C152.516 64.3093 152.281 63.968 151.812 63.968C151.257 63.968 150.468 64.6933 149.444 66.144C148.42 67.552 147.396 69.4293 146.372 71.776C145.348 74.1227 144.516 76.5973 143.876 79.2C143.406 81.248 142.852 82.6133 142.212 83.296C141.614 83.9787 140.633 84.32 139.268 84.32C137.86 84.32 136.793 83.6587 136.068 82.336C135.385 80.9707 135.044 79.328 135.044 77.408C135.044 75.7867 135.257 73.44 135.684 70.368C136.025 67.6373 136.196 65.8453 136.196 64.992C136.196 64.3093 135.961 63.968 135.492 63.968C134.852 63.968 134.041 64.736 133.06 66.272C132.078 67.808 131.118 69.7707 130.18 72.16C129.284 74.5493 128.558 76.896 128.004 79.2C127.534 81.2053 126.98 82.5707 126.34 83.296C125.742 83.9787 124.782 84.32 123.46 84.32ZM172.493 84.32C169.847 84.32 167.735 83.36 166.157 81.44C164.578 79.52 163.789 77.0027 163.789 73.888C163.789 70.4747 164.578 67.2533 166.157 64.224C167.735 61.152 169.826 58.6987 172.429 56.864C175.074 54.9867 177.869 54.048 180.813 54.048C181.751 54.048 182.37 54.24 182.669 54.624C183.01 54.9653 183.287 55.6053 183.501 56.544C184.397 56.3733 185.335 56.288 186.317 56.288C188.407 56.288 189.453 57.0347 189.453 58.528C189.453 59.424 189.133 61.5573 188.493 64.928C187.511 69.8347 187.021 73.248 187.021 75.168C187.021 75.808 187.17 76.32 187.469 76.704C187.81 77.088 188.237 77.28 188.749 77.28C189.559 77.28 190.541 76.768 191.693 75.744C192.845 74.6773 194.402 72.9707 196.365 70.624C196.877 70.0267 197.453 69.728 198.093 69.728C198.647 69.728 199.074 69.984 199.373 70.496C199.714 71.008 199.885 71.712 199.885 72.608C199.885 74.3147 199.479 75.6373 198.669 76.576C196.919 78.752 195.063 80.5867 193.101 82.08C191.138 83.5733 189.239 84.32 187.405 84.32C185.997 84.32 184.695 83.8507 183.501 82.912C182.349 81.9307 181.474 80.608 180.877 78.944C178.658 82.528 175.863 84.32 172.493 84.32ZM174.797 77.856C175.735 77.856 176.631 77.3013 177.485 76.192C178.338 75.0827 178.957 73.6107 179.341 71.776L181.709 60C179.917 60.0427 178.253 60.7253 176.717 62.048C175.223 63.328 174.029 65.0347 173.133 67.168C172.237 69.3013 171.789 71.5627 171.789 73.952C171.789 75.2747 172.045 76.256 172.557 76.896C173.111 77.536 173.858 77.856 174.797 77.856ZM197.307 84.32C195.686 84.32 194.534 83.4667 193.851 81.76C193.211 80.0533 192.891 77.3227 192.891 73.568C192.891 68.0213 193.681 62.752 195.259 57.76C195.643 56.5227 196.262 55.6267 197.115 55.072C198.011 54.4747 199.249 54.176 200.827 54.176C201.681 54.176 202.278 54.2827 202.619 54.496C202.961 54.7093 203.131 55.1147 203.131 55.712C203.131 56.3947 202.811 57.9307 202.171 60.32C201.745 62.0267 201.403 63.52 201.147 64.8C200.891 66.08 200.678 67.6587 200.507 69.536C201.915 65.8667 203.494 62.88 205.243 60.576C206.993 58.272 208.699 56.6293 210.363 55.648C212.07 54.6667 213.627 54.176 215.035 54.176C217.809 54.176 219.195 55.5627 219.195 58.336C219.195 58.8907 219.003 60.2347 218.619 62.368C218.278 64.0747 218.107 65.1413 218.107 65.568C218.107 67.0613 218.641 67.808 219.707 67.808C220.902 67.808 222.438 66.8693 224.315 64.992C224.87 64.4373 225.446 64.16 226.043 64.16C226.598 64.16 227.025 64.416 227.323 64.928C227.665 65.3973 227.835 66.0373 227.835 66.848C227.835 68.4267 227.409 69.664 226.555 70.56C225.361 71.7973 223.953 72.864 222.331 73.76C220.753 74.6133 219.067 75.04 217.275 75.04C215.014 75.04 213.286 74.464 212.091 73.312C210.939 72.16 210.363 70.6027 210.363 68.64C210.363 68 210.427 67.36 210.555 66.72C210.641 65.8667 210.683 65.2907 210.683 64.992C210.683 64.3093 210.449 63.968 209.979 63.968C209.339 63.968 208.486 64.6933 207.419 66.144C206.395 67.552 205.371 69.4293 204.347 71.776C203.323 74.1227 202.491 76.5973 201.851 79.2C201.382 81.2053 200.827 82.5707 200.187 83.296C199.59 83.9787 198.63 84.32 197.307 84.32ZM242.368 54.176C243.35 54.176 244.032 54.304 244.416 54.56C244.8 54.816 244.992 55.2427 244.992 55.84C244.992 56.864 244.438 60.512 243.328 66.784C242.347 72.8 241.771 76.3627 241.6 77.472C240.022 88.4373 237.846 97.12 235.072 103.52C232.299 109.92 228.608 113.12 224 113.12C221.824 113.12 220.054 112.437 218.688 111.072C217.323 109.749 216.64 108 216.64 105.824C216.64 103.819 217.088 101.771 217.984 99.68C218.923 97.5893 220.63 95.1787 223.104 92.448C225.622 89.76 229.163 86.6667 233.728 83.168L233.92 81.696C234.219 80.1173 234.56 77.856 234.944 74.912C234.091 77.984 232.896 80.3307 231.36 81.952C229.824 83.5307 228.203 84.32 226.496 84.32C224.576 84.32 222.998 83.4453 221.76 81.696C220.566 79.904 219.968 77.6853 219.968 75.04C219.968 71.84 220.182 68.9173 220.608 66.272C221.035 63.584 221.739 60.7467 222.72 57.76C223.147 56.48 223.744 55.5627 224.512 55.008C225.28 54.4533 226.496 54.176 228.16 54.176C229.099 54.176 229.739 54.3253 230.08 54.624C230.464 54.9227 230.656 55.3707 230.656 55.968C230.656 56.3093 230.422 57.4613 229.952 59.424C229.526 61.0027 229.184 62.432 228.928 63.712C228.587 65.4613 228.288 67.1467 228.032 68.768C227.776 70.3467 227.648 71.648 227.648 72.672C227.648 74.2933 228.096 75.104 228.992 75.104C229.632 75.104 230.422 74.464 231.36 73.184C232.342 71.904 233.366 69.9627 234.432 67.36C235.542 64.7573 236.608 61.5573 237.632 57.76C237.974 56.48 238.486 55.5627 239.168 55.008C239.894 54.4533 240.96 54.176 242.368 54.176ZM224.704 106.912C225.771 106.912 226.966 105.675 228.288 103.2C229.611 100.725 230.934 96.608 232.256 90.848C228.971 93.6213 226.582 96.1387 225.088 98.4C223.638 100.704 222.912 102.709 222.912 104.416C222.912 105.141 223.04 105.739 223.296 106.208C223.595 106.677 224.064 106.912 224.704 106.912Z" fill="url(#paint0_linear)"/>
<defs>
<linearGradient id="paint0_linear" x1="123" y1="1" x2="123" y2="75" gradientUnits="userSpaceOnUse">
<stop stop-color="#54FBFB"/>
<stop offset="1" stop-color="#7910FF"/>
</linearGradient>
</defs>
</svg>
