<svg width="333" height="58" viewBox="0 0 333 58" fill="none" xmlns="http://www.w3.org/2000/svg">
<path d="M166.72 56.3661C166.057 57.0651 164.943 57.0651 164.28 56.3661L155.635 47.2511C154.619 46.1799 155.378 44.413 156.854 44.413H174.146C175.622 44.413 176.381 46.1799 175.365 47.2511L166.72 56.3661Z" fill="#3D3D3D"/>
<path d="M134.713 26.16C132.94 26.16 131.52 25.8267 130.453 25.16C129.386 24.48 128.853 23.4467 128.853 22.06C128.853 21.3267 128.98 20.7667 129.233 20.38C129.486 19.9933 129.86 19.8 130.353 19.8C130.713 19.8 131.006 19.8933 131.233 20.08C131.46 20.2667 131.573 20.5067 131.573 20.8C131.573 21.0667 131.553 21.3 131.513 21.5C131.513 21.5533 131.5 21.6467 131.473 21.78C131.46 21.9133 131.453 22.0533 131.453 22.2C131.453 22.8 131.753 23.2467 132.353 23.54C132.966 23.8333 133.82 23.98 134.913 23.98C136.046 23.98 136.933 23.78 137.573 23.38C138.213 22.9667 138.533 22.3933 138.533 21.66C138.533 21.2067 138.386 20.82 138.093 20.5C137.8 20.1667 137.433 19.8933 136.993 19.68C136.553 19.4533 135.933 19.18 135.133 18.86C134.106 18.46 133.266 18.08 132.613 17.72C131.973 17.36 131.42 16.8733 130.953 16.26C130.5 15.6333 130.273 14.86 130.273 13.94C130.273 12.98 130.526 12.1267 131.033 11.38C131.553 10.6333 132.293 10.0533 133.253 9.64C134.226 9.22667 135.366 9.02 136.673 9.02C137.646 9.02 138.54 9.16667 139.353 9.46C140.166 9.74 140.813 10.1733 141.293 10.76C141.786 11.3467 142.033 12.0667 142.033 12.92C142.033 13.76 141.906 14.3933 141.653 14.82C141.4 15.2467 141.026 15.46 140.533 15.46C140.186 15.46 139.893 15.3533 139.653 15.14C139.426 14.9267 139.313 14.6733 139.313 14.38C139.313 14.1267 139.333 13.8933 139.373 13.68C139.413 13.28 139.433 13.0267 139.433 12.92C139.433 12.36 139.16 11.9333 138.613 11.64C138.066 11.3467 137.386 11.2 136.573 11.2C135.426 11.2 134.546 11.4133 133.933 11.84C133.333 12.2533 133.033 12.84 133.033 13.6C133.033 14.1067 133.186 14.54 133.493 14.9C133.813 15.26 134.206 15.56 134.673 15.8C135.14 16.04 135.793 16.3267 136.633 16.66C137.646 17.0733 138.46 17.4467 139.073 17.78C139.686 18.1133 140.206 18.5667 140.633 19.14C141.073 19.7133 141.293 20.42 141.293 21.26C141.293 22.8333 140.693 24.0467 139.493 24.9C138.306 25.74 136.713 26.16 134.713 26.16ZM144.343 26.1C143.743 26.1 143.249 25.8267 142.863 25.28C142.489 24.72 142.303 24.0267 142.303 23.2C142.303 22.2 142.369 21.2867 142.503 20.46C142.636 19.62 142.856 18.7333 143.163 17.8C143.296 17.4 143.483 17.1133 143.723 16.94C143.963 16.7667 144.343 16.68 144.863 16.68C145.156 16.68 145.356 16.7267 145.463 16.82C145.583 16.9133 145.643 17.0533 145.643 17.24C145.643 17.3467 145.569 17.7067 145.423 18.32C145.289 18.8133 145.183 19.26 145.103 19.66C144.836 21.06 144.703 21.9933 144.703 22.46C144.703 22.74 144.736 22.94 144.803 23.06C144.869 23.1667 144.976 23.22 145.123 23.22C145.323 23.22 145.569 23.02 145.863 22.62C146.169 22.22 146.489 21.6133 146.823 20.8C147.169 19.9867 147.503 18.9867 147.823 17.8C147.929 17.4 148.089 17.1133 148.303 16.94C148.529 16.7667 148.863 16.68 149.303 16.68C149.609 16.68 149.823 16.72 149.943 16.8C150.063 16.8667 150.123 17 150.123 17.2C150.123 17.5333 149.956 18.4467 149.623 19.94C149.249 21.6467 149.063 22.7 149.063 23.1C149.063 23.3533 149.116 23.5533 149.223 23.7C149.329 23.8333 149.469 23.9 149.643 23.9C149.909 23.9 150.223 23.74 150.583 23.42C150.956 23.0867 151.449 22.5533 152.063 21.82C152.223 21.6333 152.403 21.54 152.603 21.54C152.776 21.54 152.909 21.62 153.003 21.78C153.109 21.94 153.163 22.16 153.163 22.44C153.163 22.9733 153.036 23.3867 152.783 23.68C152.209 24.3867 151.589 24.9667 150.923 25.42C150.269 25.8733 149.523 26.1 148.683 26.1C148.043 26.1 147.569 25.8533 147.263 25.36C146.969 24.8667 146.823 24.1733 146.823 23.28C146.596 24.1867 146.256 24.8867 145.803 25.38C145.349 25.86 144.863 26.1 144.343 26.1ZM152.361 26.1C151.854 26.1 151.494 25.8333 151.281 25.3C151.081 24.7667 150.981 23.9133 150.981 22.74C150.981 21.0067 151.228 19.36 151.721 17.8C151.841 17.4133 152.034 17.1333 152.301 16.96C152.581 16.7733 152.968 16.68 153.461 16.68C153.728 16.68 153.914 16.7133 154.021 16.78C154.128 16.8467 154.181 16.9733 154.181 17.16C154.181 17.3733 154.081 17.8533 153.881 18.6C153.748 19.1333 153.641 19.6 153.561 20C153.481 20.3867 153.414 20.8733 153.361 21.46C153.721 20.42 154.148 19.54 154.641 18.82C155.148 18.1 155.661 17.5667 156.181 17.22C156.714 16.86 157.214 16.68 157.681 16.68C158.148 16.68 158.474 16.7867 158.661 17C158.861 17.2133 158.961 17.54 158.961 17.98C158.961 18.4067 158.834 19.18 158.581 20.3C158.474 20.78 158.401 21.14 158.361 21.38C159.028 19.74 159.768 18.5467 160.581 17.8C161.394 17.0533 162.154 16.68 162.861 16.68C163.728 16.68 164.161 17.1133 164.161 17.98C164.161 18.5 164.014 19.44 163.721 20.8C163.468 21.96 163.341 22.7267 163.341 23.1C163.341 23.6333 163.534 23.9 163.921 23.9C164.188 23.9 164.501 23.74 164.861 23.42C165.234 23.0867 165.728 22.5533 166.341 21.82C166.501 21.6333 166.681 21.54 166.881 21.54C167.054 21.54 167.188 21.62 167.281 21.78C167.388 21.94 167.441 22.16 167.441 22.44C167.441 22.9733 167.314 23.3867 167.061 23.68C166.488 24.3867 165.868 24.9667 165.201 25.42C164.548 25.8733 163.801 26.1 162.961 26.1C162.281 26.1 161.768 25.9067 161.421 25.52C161.074 25.12 160.901 24.5467 160.901 23.8C160.901 23.4267 160.994 22.76 161.181 21.8C161.354 20.96 161.441 20.38 161.441 20.06C161.441 19.8467 161.368 19.74 161.221 19.74C161.048 19.74 160.801 19.9667 160.481 20.42C160.161 20.86 159.841 21.4467 159.521 22.18C159.201 22.9133 158.941 23.6867 158.741 24.5C158.594 25.14 158.421 25.5667 158.221 25.78C158.034 25.9933 157.728 26.1 157.301 26.1C156.861 26.1 156.528 25.8933 156.301 25.48C156.088 25.0533 155.981 24.54 155.981 23.94C155.981 23.4333 156.048 22.7 156.181 21.74C156.288 20.8867 156.341 20.3267 156.341 20.06C156.341 19.8467 156.268 19.74 156.121 19.74C155.921 19.74 155.668 19.98 155.361 20.46C155.054 20.94 154.754 21.5533 154.461 22.3C154.181 23.0467 153.954 23.78 153.781 24.5C153.634 25.1267 153.461 25.5533 153.261 25.78C153.074 25.9933 152.774 26.1 152.361 26.1ZM166.644 26.1C166.137 26.1 165.777 25.8333 165.564 25.3C165.364 24.7667 165.264 23.9133 165.264 22.74C165.264 21.0067 165.51 19.36 166.004 17.8C166.124 17.4133 166.317 17.1333 166.584 16.96C166.864 16.7733 167.25 16.68 167.744 16.68C168.01 16.68 168.197 16.7133 168.304 16.78C168.41 16.8467 168.464 16.9733 168.464 17.16C168.464 17.3733 168.364 17.8533 168.164 18.6C168.03 19.1333 167.924 19.6 167.844 20C167.764 20.3867 167.697 20.8733 167.644 21.46C168.004 20.42 168.43 19.54 168.924 18.82C169.43 18.1 169.944 17.5667 170.464 17.22C170.997 16.86 171.497 16.68 171.964 16.68C172.43 16.68 172.757 16.7867 172.944 17C173.144 17.2133 173.244 17.54 173.244 17.98C173.244 18.4067 173.117 19.18 172.864 20.3C172.757 20.78 172.684 21.14 172.644 21.38C173.31 19.74 174.05 18.5467 174.864 17.8C175.677 17.0533 176.437 16.68 177.144 16.68C178.01 16.68 178.444 17.1133 178.444 17.98C178.444 18.5 178.297 19.44 178.004 20.8C177.75 21.96 177.624 22.7267 177.624 23.1C177.624 23.6333 177.817 23.9 178.204 23.9C178.47 23.9 178.784 23.74 179.144 23.42C179.517 23.0867 180.01 22.5533 180.624 21.82C180.784 21.6333 180.964 21.54 181.164 21.54C181.337 21.54 181.47 21.62 181.564 21.78C181.67 21.94 181.724 22.16 181.724 22.44C181.724 22.9733 181.597 23.3867 181.344 23.68C180.77 24.3867 180.15 24.9667 179.484 25.42C178.83 25.8733 178.084 26.1 177.244 26.1C176.564 26.1 176.05 25.9067 175.704 25.52C175.357 25.12 175.184 24.5467 175.184 23.8C175.184 23.4267 175.277 22.76 175.464 21.8C175.637 20.96 175.724 20.38 175.724 20.06C175.724 19.8467 175.65 19.74 175.504 19.74C175.33 19.74 175.084 19.9667 174.764 20.42C174.444 20.86 174.124 21.4467 173.804 22.18C173.484 22.9133 173.224 23.6867 173.024 24.5C172.877 25.14 172.704 25.5667 172.504 25.78C172.317 25.9933 172.01 26.1 171.584 26.1C171.144 26.1 170.81 25.8933 170.584 25.48C170.37 25.0533 170.264 24.54 170.264 23.94C170.264 23.4333 170.33 22.7 170.464 21.74C170.57 20.8867 170.624 20.3267 170.624 20.06C170.624 19.8467 170.55 19.74 170.404 19.74C170.204 19.74 169.95 19.98 169.644 20.46C169.337 20.94 169.037 21.5533 168.744 22.3C168.464 23.0467 168.237 23.78 168.064 24.5C167.917 25.1267 167.744 25.5533 167.544 25.78C167.357 25.9933 167.057 26.1 166.644 26.1ZM181.966 26.1C181.14 26.1 180.48 25.8 179.986 25.2C179.493 24.6 179.246 23.8133 179.246 22.84C179.246 21.7733 179.493 20.7667 179.986 19.82C180.48 18.86 181.133 18.0933 181.946 17.52C182.773 16.9333 183.646 16.64 184.566 16.64C184.86 16.64 185.053 16.7 185.146 16.82C185.253 16.9267 185.34 17.1267 185.406 17.42C185.686 17.3667 185.98 17.34 186.286 17.34C186.94 17.34 187.266 17.5733 187.266 18.04C187.266 18.32 187.166 18.9867 186.966 20.04C186.66 21.5733 186.506 22.64 186.506 23.24C186.506 23.44 186.553 23.6 186.646 23.72C186.753 23.84 186.886 23.9 187.046 23.9C187.3 23.9 187.606 23.74 187.966 23.42C188.326 23.0867 188.813 22.5533 189.426 21.82C189.586 21.6333 189.766 21.54 189.966 21.54C190.14 21.54 190.273 21.62 190.366 21.78C190.473 21.94 190.526 22.16 190.526 22.44C190.526 22.9733 190.4 23.3867 190.146 23.68C189.6 24.36 189.02 24.9333 188.406 25.4C187.793 25.8667 187.2 26.1 186.626 26.1C186.186 26.1 185.78 25.9533 185.406 25.66C185.046 25.3533 184.773 24.94 184.586 24.42C183.893 25.54 183.02 26.1 181.966 26.1ZM182.686 24.08C182.98 24.08 183.26 23.9067 183.526 23.56C183.793 23.2133 183.986 22.7533 184.106 22.18L184.846 18.5C184.286 18.5133 183.766 18.7267 183.286 19.14C182.82 19.54 182.446 20.0733 182.166 20.74C181.886 21.4067 181.746 22.1133 181.746 22.86C181.746 23.2733 181.826 23.58 181.986 23.78C182.16 23.98 182.393 24.08 182.686 24.08ZM189.721 26.1C189.214 26.1 188.854 25.8333 188.641 25.3C188.441 24.7667 188.341 23.9133 188.341 22.74C188.341 21.0067 188.588 19.36 189.081 17.8C189.201 17.4133 189.394 17.1333 189.661 16.96C189.941 16.7733 190.328 16.68 190.821 16.68C191.088 16.68 191.274 16.7133 191.381 16.78C191.488 16.8467 191.541 16.9733 191.541 17.16C191.541 17.3733 191.441 17.8533 191.241 18.6C191.108 19.1333 191.001 19.6 190.921 20C190.841 20.4 190.774 20.8933 190.721 21.48C191.161 20.3333 191.654 19.4 192.201 18.68C192.748 17.96 193.281 17.4467 193.801 17.14C194.334 16.8333 194.821 16.68 195.261 16.68C196.128 16.68 196.561 17.1133 196.561 17.98C196.561 18.1533 196.501 18.5733 196.381 19.24C196.274 19.7733 196.221 20.1067 196.221 20.24C196.221 20.7067 196.388 20.94 196.721 20.94C197.094 20.94 197.574 20.6467 198.161 20.06C198.334 19.8867 198.514 19.8 198.701 19.8C198.874 19.8 199.008 19.88 199.101 20.04C199.208 20.1867 199.261 20.3867 199.261 20.64C199.261 21.1333 199.128 21.52 198.861 21.8C198.488 22.1867 198.048 22.52 197.541 22.8C197.048 23.0667 196.521 23.2 195.961 23.2C195.254 23.2 194.714 23.02 194.341 22.66C193.981 22.3 193.801 21.8133 193.801 21.2C193.801 21 193.821 20.8 193.861 20.6C193.888 20.3333 193.901 20.1533 193.901 20.06C193.901 19.8467 193.828 19.74 193.681 19.74C193.481 19.74 193.214 19.9667 192.881 20.42C192.561 20.86 192.241 21.4467 191.921 22.18C191.601 22.9133 191.341 23.6867 191.141 24.5C190.994 25.1267 190.821 25.5533 190.621 25.78C190.434 25.9933 190.134 26.1 189.721 26.1ZM203.803 16.68C204.109 16.68 204.323 16.72 204.443 16.8C204.563 16.88 204.623 17.0133 204.623 17.2C204.623 17.52 204.449 18.66 204.103 20.62C203.796 22.5 203.616 23.6133 203.563 23.96C203.069 27.3867 202.389 30.1 201.523 32.1C200.656 34.1 199.503 35.1 198.063 35.1C197.383 35.1 196.829 34.8867 196.403 34.46C195.976 34.0467 195.763 33.5 195.763 32.82C195.763 32.1933 195.903 31.5533 196.183 30.9C196.476 30.2467 197.009 29.4933 197.783 28.64C198.569 27.8 199.676 26.8333 201.103 25.74L201.163 25.28C201.256 24.7867 201.363 24.08 201.483 23.16C201.216 24.12 200.843 24.8533 200.363 25.36C199.883 25.8533 199.376 26.1 198.843 26.1C198.243 26.1 197.749 25.8267 197.363 25.28C196.989 24.72 196.803 24.0267 196.803 23.2C196.803 22.2 196.869 21.2867 197.003 20.46C197.136 19.62 197.356 18.7333 197.663 17.8C197.796 17.4 197.983 17.1133 198.223 16.94C198.463 16.7667 198.843 16.68 199.363 16.68C199.656 16.68 199.856 16.7267 199.963 16.82C200.083 16.9133 200.143 17.0533 200.143 17.24C200.143 17.3467 200.069 17.7067 199.923 18.32C199.789 18.8133 199.683 19.26 199.603 19.66C199.496 20.2067 199.403 20.7333 199.323 21.24C199.243 21.7333 199.203 22.14 199.203 22.46C199.203 22.9667 199.343 23.22 199.623 23.22C199.823 23.22 200.069 23.02 200.363 22.62C200.669 22.22 200.989 21.6133 201.323 20.8C201.669 19.9867 202.003 18.9867 202.323 17.8C202.429 17.4 202.589 17.1133 202.803 16.94C203.029 16.7667 203.363 16.68 203.803 16.68ZM198.283 33.16C198.616 33.16 198.989 32.7733 199.403 32C199.816 31.2267 200.229 29.94 200.643 28.14C199.616 29.0067 198.869 29.7933 198.403 30.5C197.949 31.22 197.723 31.8467 197.723 32.38C197.723 32.6067 197.763 32.7933 197.843 32.94C197.936 33.0867 198.083 33.16 198.283 33.16Z" fill="#3D3D3D"/>
</svg>
